<?xml version="1.0" encoding="UTF-8" standalone="no"?>
<!-- Created with Inkscape (http://www.inkscape.org/) -->

<svg
   version="1.1"
   id="svg2"
   xml:space="preserve"
   width="1207.8118"
   height="433.03174"
   viewBox="0 0 1207.8118 433.03174"
   sodipodi:docname="eMLM.svg"
   inkscape:version="1.1.2 (0a00cf5339, 2022-02-04)"
   xmlns:inkscape="http://www.inkscape.org/namespaces/inkscape"
   xmlns:sodipodi="http://sodipodi.sourceforge.net/DTD/sodipodi-0.dtd"
   xmlns="http://www.w3.org/2000/svg"
   xmlns:svg="http://www.w3.org/2000/svg"><defs
     id="defs6"><marker
       style="overflow:visible"
       id="Arrow1Lend"
       refX="0"
       refY="0"
       orient="auto"
       inkscape:stockid="Arrow1Lend"
       inkscape:isstock="true"><path
         transform="matrix(-0.8,0,0,-0.8,-10,0)"
         style="fill:context-stroke;fill-rule:evenodd;stroke:context-stroke;stroke-width:1pt"
         d="M 0,0 5,-5 -12.5,0 5,5 Z"
         id="path19677" /></marker><clipPath
       clipPathUnits="userSpaceOnUse"
       id="clipPath186"><path
         d="m 715.852,144.363 h 14 v 14 h -14 z"
         id="path184" /></clipPath><clipPath
       clipPathUnits="userSpaceOnUse"
       id="clipPath196"><path
         d="M 0,0 H 922 V 598 H 0 Z"
         id="path194" /></clipPath><clipPath
       clipPathUnits="userSpaceOnUse"
       id="clipPath210"><path
         d="m 795.617,144.363 h 14 v 14 h -14 z"
         id="path208" /></clipPath><clipPath
       clipPathUnits="userSpaceOnUse"
       id="clipPath220"><path
         d="M 0,0 H 922 V 598 H 0 Z"
         id="path218" /></clipPath><clipPath
       clipPathUnits="userSpaceOnUse"
       id="clipPath234"><path
         d="m 875.379,126.84 h 14 v 14 h -14 z"
         id="path232" /></clipPath><clipPath
       clipPathUnits="userSpaceOnUse"
       id="clipPath244"><path
         d="M 0,0 H 922 V 598 H 0 Z"
         id="path242" /></clipPath><clipPath
       clipPathUnits="userSpaceOnUse"
       id="clipPath296"><path
         d="m 795.617,39.23 h 14 v 14 h -14 z"
         id="path294" /></clipPath><clipPath
       clipPathUnits="userSpaceOnUse"
       id="clipPath306"><path
         d="M 0,0 H 922 V 598 H 0 Z"
         id="path304" /></clipPath><clipPath
       clipPathUnits="userSpaceOnUse"
       id="clipPath320"><path
         d="m 875.379,21.711 h 14 v 14 h -14 z"
         id="path318" /></clipPath><clipPath
       clipPathUnits="userSpaceOnUse"
       id="clipPath330"><path
         d="M 0,0 H 922 V 598 H 0 Z"
         id="path328" /></clipPath></defs><sodipodi:namedview
     id="namedview4"
     pagecolor="#ffffff"
     bordercolor="#666666"
     borderopacity="1.0"
     inkscape:pageshadow="2"
     inkscape:pageopacity="0.0"
     inkscape:pagecheckerboard="0"
     showgrid="false"
     showguides="true"
     inkscape:guide-bbox="true"
     inkscape:zoom="0.93490998"
     inkscape:cx="-41.180435"
     inkscape:cy="68.9906"
     inkscape:window-width="1920"
     inkscape:window-height="983"
     inkscape:window-x="1920"
     inkscape:window-y="0"
     inkscape:window-maximized="1"
     inkscape:current-layer="g8"><sodipodi:guide
       position="457.00871,315.42139"
       orientation="0,-1"
       id="guide20200" /></sodipodi:namedview><g
     id="g8"
     inkscape:groupmode="layer"
     inkscape:label="mlm_emlm_scores-V2"
     transform="matrix(1.3333333,0,0,1.3333333,-20.239794,1.3333333e-6)"><path
       style="fill:none;fill-rule:evenodd;stroke:#000000;stroke-width:1.48364;stroke-linecap:butt;stroke-linejoin:miter;stroke-miterlimit:4;stroke-dasharray:none;stroke-opacity:1;marker-end:url(#Arrow1Lend)"
       d="M 239.06046,104.08825 V 220.65606"
       id="path20046"
       inkscape:connector-type="polyline"
       inkscape:connector-curvature="0" /><g
       id="g10"
       transform="matrix(0.54341708,0,0,0.54341708,420.53055,-4.5658292e-7)"><g
         id="g12"
         transform="scale(1,-1)"><path
           d="m 164.516,-525.457 v -3.5"
           style="fill:none;stroke:#000000;stroke-width:0.8;stroke-linecap:butt;stroke-linejoin:round;stroke-miterlimit:10;stroke-dasharray:none;stroke-opacity:1"
           id="path14" /></g><text
         transform="translate(135.17203,554.9177)"
         style="font-variant:normal;font-weight:normal;font-size:30px;font-family:'DejaVu Sans';-inkscape-font-specification:DejaVuSans;writing-mode:lr-tb;fill:#000000;fill-opacity:1;fill-rule:nonzero;stroke:none"
         id="text18"><tspan
           x="0 19.08 38.16"
           y="0"
           sodipodi:role="line"
           id="tspan16">10K</tspan></text><g
         id="g20"
         transform="scale(1,-1)"><path
           d="m 244.277,-525.457 v -3.5"
           style="fill:none;stroke:#000000;stroke-width:0.8;stroke-linecap:butt;stroke-linejoin:round;stroke-miterlimit:10;stroke-dasharray:none;stroke-opacity:1"
           id="path22" /></g><text
         transform="translate(215.30086,554.9177)"
         style="font-variant:normal;font-weight:normal;font-size:30px;font-family:'DejaVu Sans';-inkscape-font-specification:DejaVuSans;writing-mode:lr-tb;fill:#000000;fill-opacity:1;fill-rule:nonzero;stroke:none"
         id="text26"><tspan
           x="0 19.08 38.16"
           y="0"
           sodipodi:role="line"
           id="tspan24">20K</tspan></text><g
         id="g28"
         transform="scale(1,-1)"><path
           d="m 324.039,-525.457 v -3.5"
           style="fill:none;stroke:#000000;stroke-width:0.8;stroke-linecap:butt;stroke-linejoin:round;stroke-miterlimit:10;stroke-dasharray:none;stroke-opacity:1"
           id="path30" /></g><text
         transform="translate(295.03419,554.9177)"
         style="font-variant:normal;font-weight:normal;font-size:30px;font-family:'DejaVu Sans';-inkscape-font-specification:DejaVuSans;writing-mode:lr-tb;fill:#000000;fill-opacity:1;fill-rule:nonzero;stroke:none"
         id="text34"><tspan
           x="0 19.08 38.16"
           y="0"
           sodipodi:role="line"
           id="tspan32">30K</tspan></text><g
         id="g36"
         transform="scale(1,-1)"><path
           d="m 403.801,-525.457 v -3.5"
           style="fill:none;stroke:#000000;stroke-width:0.8;stroke-linecap:butt;stroke-linejoin:round;stroke-miterlimit:10;stroke-dasharray:none;stroke-opacity:1"
           id="path38" /></g><text
         transform="translate(375.07026,554.9177)"
         style="font-variant:normal;font-weight:normal;font-size:30px;font-family:'DejaVu Sans';-inkscape-font-specification:DejaVuSans;writing-mode:lr-tb;fill:#000000;fill-opacity:1;fill-rule:nonzero;stroke:none"
         id="text42"><tspan
           x="0 19.08 38.16"
           y="0"
           sodipodi:role="line"
           id="tspan40">40K</tspan></text><g
         id="g44"
         transform="scale(1,-1)"><path
           d="m 483.566,-525.457 v -3.5"
           style="fill:none;stroke:#000000;stroke-width:0.8;stroke-linecap:butt;stroke-linejoin:round;stroke-miterlimit:10;stroke-dasharray:none;stroke-opacity:1"
           id="path46" /></g><text
         transform="translate(454.54969,554.9177)"
         style="font-variant:normal;font-weight:normal;font-size:30px;font-family:'DejaVu Sans';-inkscape-font-specification:DejaVuSans;writing-mode:lr-tb;fill:#000000;fill-opacity:1;fill-rule:nonzero;stroke:none"
         id="text50"><tspan
           x="0 19.08 38.16"
           y="0"
           sodipodi:role="line"
           id="tspan48">50K</tspan></text><g
         id="g52"
         transform="scale(1,-1)"><path
           d="m 563.328,-525.457 v -3.5"
           style="fill:none;stroke:#000000;stroke-width:0.8;stroke-linecap:butt;stroke-linejoin:round;stroke-miterlimit:10;stroke-dasharray:none;stroke-opacity:1"
           id="path54" /></g><text
         transform="translate(534.38554,554.9177)"
         style="font-variant:normal;font-weight:normal;font-size:30px;font-family:'DejaVu Sans';-inkscape-font-specification:DejaVuSans;writing-mode:lr-tb;fill:#000000;fill-opacity:1;fill-rule:nonzero;stroke:none"
         id="text58"><tspan
           x="0 19.08 38.16"
           y="0"
           sodipodi:role="line"
           id="tspan56">60K</tspan></text><g
         id="g60"
         transform="scale(1,-1)"><path
           d="m 643.09,-525.457 v -3.5"
           style="fill:none;stroke:#000000;stroke-width:0.8;stroke-linecap:butt;stroke-linejoin:round;stroke-miterlimit:10;stroke-dasharray:none;stroke-opacity:1"
           id="path62" /></g><text
         transform="translate(614.0261,554.9177)"
         style="font-variant:normal;font-weight:normal;font-size:30px;font-family:'DejaVu Sans';-inkscape-font-specification:DejaVuSans;writing-mode:lr-tb;fill:#000000;fill-opacity:1;fill-rule:nonzero;stroke:none"
         id="text66"><tspan
           x="0 19.08 38.16"
           y="0"
           sodipodi:role="line"
           id="tspan64">70K</tspan></text><g
         id="g68"
         transform="scale(1,-1)"><path
           d="m 722.852,-525.457 v -3.5"
           style="fill:none;stroke:#000000;stroke-width:0.8;stroke-linecap:butt;stroke-linejoin:round;stroke-miterlimit:10;stroke-dasharray:none;stroke-opacity:1"
           id="path70" /></g><text
         transform="translate(693.93033,554.9177)"
         style="font-variant:normal;font-weight:normal;font-size:30px;font-family:'DejaVu Sans';-inkscape-font-specification:DejaVuSans;writing-mode:lr-tb;fill:#000000;fill-opacity:1;fill-rule:nonzero;stroke:none"
         id="text74"><tspan
           x="0 19.08 38.16"
           y="0"
           sodipodi:role="line"
           id="tspan72">80K</tspan></text><g
         id="g76"
         transform="scale(1,-1)"><path
           d="m 802.617,-525.457 v -3.5"
           style="fill:none;stroke:#000000;stroke-width:0.8;stroke-linecap:butt;stroke-linejoin:round;stroke-miterlimit:10;stroke-dasharray:none;stroke-opacity:1"
           id="path78" /></g><text
         transform="translate(773.74179,554.9177)"
         style="font-variant:normal;font-weight:normal;font-size:30px;font-family:'DejaVu Sans';-inkscape-font-specification:DejaVuSans;writing-mode:lr-tb;fill:#000000;fill-opacity:1;fill-rule:nonzero;stroke:none"
         id="text82"><tspan
           x="0 19.08 38.16"
           y="0"
           sodipodi:role="line"
           id="tspan80">90K</tspan></text><g
         id="g84"
         transform="scale(1,-1)"><path
           d="m 882.379,-525.457 v -3.5"
           style="fill:none;stroke:#000000;stroke-width:0.8;stroke-linecap:butt;stroke-linejoin:round;stroke-miterlimit:10;stroke-dasharray:none;stroke-opacity:1"
           id="path86" /></g><text
         transform="translate(843.496,554.9177)"
         style="font-variant:normal;font-weight:normal;font-size:30px;font-family:'DejaVu Sans';-inkscape-font-specification:DejaVuSans;writing-mode:lr-tb;fill:#000000;fill-opacity:1;fill-rule:nonzero;stroke:none"
         id="text90"><tspan
           x="0 19.08 38.16 57.239998"
           y="0"
           sodipodi:role="line"
           id="tspan88">100K</tspan></text><text
         transform="translate(472.86817,590.16282)"
         style="font-variant:normal;font-weight:normal;font-size:36px;font-family:'DejaVu Sans';-inkscape-font-specification:DejaVuSans;writing-mode:lr-tb;fill:#000000;fill-opacity:1;fill-rule:nonzero;stroke:none"
         id="text94"><tspan
           x="0 22.823999 36.936001 59.076 81.900002"
           y="0"
           sodipodi:role="line"
           id="tspan92">Steps</tspan></text><g
         id="g96"
         transform="scale(1,-1)"><path
           d="m 128.621,-449.234 h -3.5"
           style="fill:none;stroke:#000000;stroke-width:0.8;stroke-linecap:butt;stroke-linejoin:round;stroke-miterlimit:10;stroke-dasharray:none;stroke-opacity:1"
           id="path98" /></g><text
         transform="translate(35.717542,460.31274)"
         style="font-variant:normal;font-weight:normal;font-size:30px;font-family:'DejaVu Sans';-inkscape-font-specification:DejaVuSans;writing-mode:lr-tb;fill:#000000;fill-opacity:1;fill-rule:nonzero;stroke:none"
         id="text102"><tspan
           x="0 19.08 38.16 47.669998 66.75"
           y="0"
           sodipodi:role="line"
           id="tspan100">72.50</tspan></text><g
         id="g104"
         transform="scale(1,-1)"><path
           d="m 128.621,-361.625 h -3.5"
           style="fill:none;stroke:#000000;stroke-width:0.8;stroke-linecap:butt;stroke-linejoin:round;stroke-miterlimit:10;stroke-dasharray:none;stroke-opacity:1"
           id="path106" /></g><text
         transform="translate(35.927503,372.70331)"
         style="font-variant:normal;font-weight:normal;font-size:30px;font-family:'DejaVu Sans';-inkscape-font-specification:DejaVuSans;writing-mode:lr-tb;fill:#000000;fill-opacity:1;fill-rule:nonzero;stroke:none"
         id="text110"><tspan
           x="0 19.08 38.16 47.669998 66.75"
           y="0"
           sodipodi:role="line"
           id="tspan108">72.55</tspan></text><g
         id="g112"
         transform="scale(1,-1)"><path
           d="m 128.621,-274.016 h -3.5"
           style="fill:none;stroke:#000000;stroke-width:0.8;stroke-linecap:butt;stroke-linejoin:round;stroke-miterlimit:10;stroke-dasharray:none;stroke-opacity:1"
           id="path114" /></g><text
         transform="translate(35.717542,285.09389)"
         style="font-variant:normal;font-weight:normal;font-size:30px;font-family:'DejaVu Sans';-inkscape-font-specification:DejaVuSans;writing-mode:lr-tb;fill:#000000;fill-opacity:1;fill-rule:nonzero;stroke:none"
         id="text118"><tspan
           x="0 19.08 38.16 47.669998 66.75"
           y="0"
           sodipodi:role="line"
           id="tspan116">72.60</tspan></text><g
         id="g120"
         transform="scale(1,-1)"><path
           d="m 128.621,-186.406 h -3.5"
           style="fill:none;stroke:#000000;stroke-width:0.8;stroke-linecap:butt;stroke-linejoin:round;stroke-miterlimit:10;stroke-dasharray:none;stroke-opacity:1"
           id="path122" /></g><text
         transform="translate(35.927503,197.48446)"
         style="font-variant:normal;font-weight:normal;font-size:30px;font-family:'DejaVu Sans';-inkscape-font-specification:DejaVuSans;writing-mode:lr-tb;fill:#000000;fill-opacity:1;fill-rule:nonzero;stroke:none"
         id="text126"><tspan
           x="0 19.08 38.16 47.669998 66.75"
           y="0"
           sodipodi:role="line"
           id="tspan124">72.65</tspan></text><g
         id="g128"
         transform="scale(1,-1)"><path
           d="m 128.621,-98.797 h -3.5"
           style="fill:none;stroke:#000000;stroke-width:0.8;stroke-linecap:butt;stroke-linejoin:round;stroke-miterlimit:10;stroke-dasharray:none;stroke-opacity:1"
           id="path130" /></g><text
         transform="translate(35.717542,109.87503)"
         style="font-variant:normal;font-weight:normal;font-size:30px;font-family:'DejaVu Sans';-inkscape-font-specification:DejaVuSans;writing-mode:lr-tb;fill:#000000;fill-opacity:1;fill-rule:nonzero;stroke:none"
         id="text134"><tspan
           x="0 19.08 38.16 47.669998 66.75"
           y="0"
           sodipodi:role="line"
           id="tspan132">72.70</tspan></text><g
         id="g136"
         transform="scale(1,-1)"><path
           d="m 128.621,-11.188 h -3.5"
           style="fill:none;stroke:#000000;stroke-width:0.8;stroke-linecap:butt;stroke-linejoin:round;stroke-miterlimit:10;stroke-dasharray:none;stroke-opacity:1"
           id="path138" /></g><text
         transform="translate(35.927503,22.265624)"
         style="font-variant:normal;font-weight:normal;font-size:30px;font-family:'DejaVu Sans';-inkscape-font-specification:DejaVuSans;writing-mode:lr-tb;fill:#000000;fill-opacity:1;fill-rule:nonzero;stroke:none"
         id="text142"><tspan
           x="0 19.08 38.16 47.669998 66.75"
           y="0"
           sodipodi:role="line"
           id="tspan140">72.75</tspan></text><text
         transform="rotate(-90,156.68924,130.4451)"
         style="font-variant:normal;font-weight:normal;font-size:36px;font-family:'DejaVu Sans';-inkscape-font-specification:DejaVuSans;writing-mode:lr-tb;fill:#000000;fill-opacity:1;fill-rule:nonzero;stroke:none"
         id="text146"><tspan
           x="0 20.699999"
           y="0"
           sodipodi:role="line"
           id="tspan144">F1</tspan></text><g
         id="g148"
         transform="scale(1,-1)"><path
           d="m 164.516,-501.801 79.761,52.567 79.762,122.652 79.762,52.566 79.765,-17.523 79.762,87.609 79.762,17.524 79.762,35.043 h 79.765 l 79.762,17.523"
           style="fill:none;stroke:#9c9ca1;stroke-width:3;stroke-linecap:square;stroke-linejoin:round;stroke-miterlimit:10;stroke-dasharray:none;stroke-opacity:1"
           id="path150" /></g><g
         id="g152"
         transform="scale(1,-1)"><path
           d="m 164.516,-507.801 c 1.589,0 3.117,0.633 4.242,1.758 1.125,1.125 1.758,2.652 1.758,4.242 0,1.59 -0.633,3.117 -1.758,4.242 -1.125,1.125 -2.653,1.758 -4.242,1.758 -1.594,0 -3.118,-0.633 -4.243,-1.758 -1.128,-1.125 -1.757,-2.652 -1.757,-4.242 0,-1.59 0.629,-3.117 1.757,-4.242 1.125,-1.125 2.649,-1.758 4.243,-1.758 z"
           style="fill:#9c9ca1;fill-opacity:1;fill-rule:nonzero;stroke:#9c9ca1;stroke-width:2;stroke-linecap:butt;stroke-linejoin:round;stroke-miterlimit:10;stroke-dasharray:none;stroke-opacity:1"
           id="path154" /></g><g
         id="g156"
         transform="scale(1,-1)"><path
           d="m 244.277,-455.234 c 1.59,0 3.118,0.632 4.243,1.757 1.125,1.125 1.757,2.649 1.757,4.243 0,1.589 -0.632,3.117 -1.757,4.242 -1.125,1.125 -2.653,1.758 -4.243,1.758 -1.589,0 -3.117,-0.633 -4.242,-1.758 -1.125,-1.125 -1.758,-2.653 -1.758,-4.242 0,-1.594 0.633,-3.118 1.758,-4.243 1.125,-1.125 2.653,-1.757 4.242,-1.757 z"
           style="fill:#9c9ca1;fill-opacity:1;fill-rule:nonzero;stroke:#9c9ca1;stroke-width:2;stroke-linecap:butt;stroke-linejoin:round;stroke-miterlimit:10;stroke-dasharray:none;stroke-opacity:1"
           id="path158" /></g><g
         id="g160"
         transform="scale(1,-1)"><path
           d="m 324.039,-332.582 c 1.59,0 3.117,0.633 4.242,1.758 1.125,1.125 1.758,2.652 1.758,4.242 0,1.59 -0.633,3.117 -1.758,4.242 -1.125,1.125 -2.652,1.758 -4.242,1.758 -1.59,0 -3.117,-0.633 -4.242,-1.758 -1.125,-1.125 -1.758,-2.652 -1.758,-4.242 0,-1.59 0.633,-3.117 1.758,-4.242 1.125,-1.125 2.652,-1.758 4.242,-1.758 z"
           style="fill:#9c9ca1;fill-opacity:1;fill-rule:nonzero;stroke:#9c9ca1;stroke-width:2;stroke-linecap:butt;stroke-linejoin:round;stroke-miterlimit:10;stroke-dasharray:none;stroke-opacity:1"
           id="path162" /></g><g
         id="g164"
         transform="scale(1,-1)"><path
           d="m 403.801,-280.016 c 1.594,0 3.117,0.633 4.242,1.758 1.129,1.125 1.758,2.649 1.758,4.242 0,1.59 -0.629,3.118 -1.758,4.243 -1.125,1.125 -2.648,1.757 -4.242,1.757 -1.59,0 -3.117,-0.632 -4.242,-1.757 -1.125,-1.125 -1.758,-2.653 -1.758,-4.243 0,-1.593 0.633,-3.117 1.758,-4.242 1.125,-1.125 2.652,-1.758 4.242,-1.758 z"
           style="fill:#9c9ca1;fill-opacity:1;fill-rule:nonzero;stroke:#9c9ca1;stroke-width:2;stroke-linecap:butt;stroke-linejoin:round;stroke-miterlimit:10;stroke-dasharray:none;stroke-opacity:1"
           id="path166" /></g><g
         id="g168"
         transform="scale(1,-1)"><path
           d="m 483.566,-297.539 c 1.59,0 3.118,0.633 4.243,1.758 1.125,1.125 1.757,2.652 1.757,4.242 0,1.59 -0.632,3.117 -1.757,4.242 -1.125,1.125 -2.653,1.758 -4.243,1.758 -1.593,0 -3.117,-0.633 -4.246,-1.758 -1.125,-1.125 -1.754,-2.652 -1.754,-4.242 0,-1.59 0.629,-3.117 1.754,-4.242 1.129,-1.125 2.653,-1.758 4.246,-1.758 z"
           style="fill:#9c9ca1;fill-opacity:1;fill-rule:nonzero;stroke:#9c9ca1;stroke-width:2;stroke-linecap:butt;stroke-linejoin:round;stroke-miterlimit:10;stroke-dasharray:none;stroke-opacity:1"
           id="path170" /></g><g
         id="g172"
         transform="scale(1,-1)"><path
           d="m 563.328,-209.93 c 1.59,0 3.117,0.633 4.242,1.758 1.125,1.125 1.758,2.652 1.758,4.242 0,1.59 -0.633,3.118 -1.758,4.242 -1.125,1.126 -2.652,1.758 -4.242,1.758 -1.594,0 -3.117,-0.632 -4.242,-1.758 -1.125,-1.124 -1.758,-2.652 -1.758,-4.242 0,-1.59 0.633,-3.117 1.758,-4.242 1.125,-1.125 2.648,-1.758 4.242,-1.758 z"
           style="fill:#9c9ca1;fill-opacity:1;fill-rule:nonzero;stroke:#9c9ca1;stroke-width:2;stroke-linecap:butt;stroke-linejoin:round;stroke-miterlimit:10;stroke-dasharray:none;stroke-opacity:1"
           id="path174" /></g><g
         id="g176"
         transform="scale(1,-1)"><path
           d="m 643.09,-192.406 c 1.59,0 3.117,0.633 4.242,1.758 1.125,1.125 1.758,2.648 1.758,4.242 0,1.59 -0.633,3.117 -1.758,4.242 -1.125,1.125 -2.652,1.758 -4.242,1.758 -1.59,0 -3.117,-0.633 -4.242,-1.758 -1.125,-1.125 -1.758,-2.652 -1.758,-4.242 0,-1.594 0.633,-3.117 1.758,-4.242 1.125,-1.125 2.652,-1.758 4.242,-1.758 z"
           style="fill:#9c9ca1;fill-opacity:1;fill-rule:nonzero;stroke:#9c9ca1;stroke-width:2;stroke-linecap:butt;stroke-linejoin:round;stroke-miterlimit:10;stroke-dasharray:none;stroke-opacity:1"
           id="path178" /></g></g><g
       id="g180"
       transform="matrix(0.54341708,0,0,0.54341708,420.53055,-4.5658292e-7)"><g
         id="g182"
         clip-path="url(#clipPath186)"><g
           id="g188"><g
             id="g190"><g
               id="g192"
               clip-path="url(#clipPath196)"><g
                 id="g198"><g
                   id="g200"
                   transform="scale(1,-1)"><path
                     d="m 722.852,-157.363 c 1.593,0 3.117,0.633 4.242,1.758 1.125,1.125 1.758,2.652 1.758,4.242 0,1.59 -0.633,3.117 -1.758,4.242 -1.125,1.125 -2.649,1.758 -4.242,1.758 -1.59,0 -3.118,-0.633 -4.243,-1.758 -1.125,-1.125 -1.757,-2.652 -1.757,-4.242 0,-1.59 0.632,-3.117 1.757,-4.242 1.125,-1.125 2.653,-1.758 4.243,-1.758 z"
                     style="fill:#9c9ca1;fill-opacity:1;fill-rule:nonzero;stroke:#9c9ca1;stroke-width:2;stroke-linecap:butt;stroke-linejoin:round;stroke-miterlimit:10;stroke-dasharray:none;stroke-opacity:1"
                     id="path202" /></g></g></g></g></g></g></g><g
       id="g204"
       transform="matrix(0.54341708,0,0,0.54341708,420.53055,-4.5658292e-7)"><g
         id="g206"
         clip-path="url(#clipPath210)"><g
           id="g212"><g
             id="g214"><g
               id="g216"
               clip-path="url(#clipPath220)"><g
                 id="g222"><g
                   id="g224"
                   transform="scale(1,-1)"><path
                     d="m 802.617,-157.363 c 1.59,0 3.117,0.633 4.242,1.758 1.125,1.125 1.758,2.652 1.758,4.242 0,1.59 -0.633,3.117 -1.758,4.242 -1.125,1.125 -2.652,1.758 -4.242,1.758 -1.594,0 -3.121,-0.633 -4.246,-1.758 -1.125,-1.125 -1.754,-2.652 -1.754,-4.242 0,-1.59 0.629,-3.117 1.754,-4.242 1.125,-1.125 2.652,-1.758 4.246,-1.758 z"
                     style="fill:#9c9ca1;fill-opacity:1;fill-rule:nonzero;stroke:#9c9ca1;stroke-width:2;stroke-linecap:butt;stroke-linejoin:round;stroke-miterlimit:10;stroke-dasharray:none;stroke-opacity:1"
                     id="path226" /></g></g></g></g></g></g></g><g
       id="g228"
       transform="matrix(0.54341708,0,0,0.54341708,420.53055,-4.5658292e-7)"><g
         id="g230"
         clip-path="url(#clipPath234)"><g
           id="g236"><g
             id="g238"><g
               id="g240"
               clip-path="url(#clipPath244)"><g
                 id="g246"><g
                   id="g248"
                   transform="scale(1,-1)"><path
                     d="m 882.379,-139.84 c 1.59,0 3.117,0.629 4.242,1.754 1.125,1.125 1.758,2.652 1.758,4.246 0,1.59 -0.633,3.117 -1.758,4.242 -1.125,1.125 -2.652,1.758 -4.242,1.758 -1.594,0 -3.117,-0.633 -4.242,-1.758 -1.125,-1.125 -1.758,-2.652 -1.758,-4.242 0,-1.594 0.633,-3.121 1.758,-4.246 1.125,-1.125 2.648,-1.754 4.242,-1.754 z"
                     style="fill:#9c9ca1;fill-opacity:1;fill-rule:nonzero;stroke:#9c9ca1;stroke-width:2;stroke-linecap:butt;stroke-linejoin:round;stroke-miterlimit:10;stroke-dasharray:none;stroke-opacity:1"
                     id="path250" /></g></g></g></g></g></g></g><g
       id="g252"
       transform="matrix(0.54341708,0,0,0.54341708,420.53055,-4.5658292e-7)"><g
         id="g254"
         transform="scale(1,-1)"><path
           d="m 164.516,-466.758 79.761,105.133 79.762,87.609 79.762,35.043 79.765,70.086 79.762,52.567 79.762,70.09 79.762,17.519 79.765,-17.519 79.762,17.519"
           style="fill:none;stroke:#7a21dd;stroke-width:3;stroke-linecap:square;stroke-linejoin:round;stroke-miterlimit:10;stroke-dasharray:none;stroke-opacity:1"
           id="path256" /></g><g
         id="g258"
         transform="scale(1,-1)"><path
           d="m 164.516,-472.758 c 1.589,0 3.117,0.633 4.242,1.758 1.125,1.125 1.758,2.652 1.758,4.242 0,1.59 -0.633,3.117 -1.758,4.242 -1.125,1.125 -2.653,1.758 -4.242,1.758 -1.594,0 -3.118,-0.633 -4.243,-1.758 -1.128,-1.125 -1.757,-2.652 -1.757,-4.242 0,-1.59 0.629,-3.117 1.757,-4.242 1.125,-1.125 2.649,-1.758 4.243,-1.758 z"
           style="fill:#7a21dd;fill-opacity:1;fill-rule:nonzero;stroke:#7a21dd;stroke-width:2;stroke-linecap:butt;stroke-linejoin:round;stroke-miterlimit:10;stroke-dasharray:none;stroke-opacity:1"
           id="path260" /></g><g
         id="g262"
         transform="scale(1,-1)"><path
           d="m 244.277,-367.625 c 1.59,0 3.118,0.633 4.243,1.758 1.125,1.125 1.757,2.648 1.757,4.242 0,1.59 -0.632,3.117 -1.757,4.242 -1.125,1.125 -2.653,1.758 -4.243,1.758 -1.589,0 -3.117,-0.633 -4.242,-1.758 -1.125,-1.125 -1.758,-2.652 -1.758,-4.242 0,-1.594 0.633,-3.117 1.758,-4.242 1.125,-1.125 2.653,-1.758 4.242,-1.758 z"
           style="fill:#7a21dd;fill-opacity:1;fill-rule:nonzero;stroke:#7a21dd;stroke-width:2;stroke-linecap:butt;stroke-linejoin:round;stroke-miterlimit:10;stroke-dasharray:none;stroke-opacity:1"
           id="path264" /></g><g
         id="g266"
         transform="scale(1,-1)"><path
           d="m 324.039,-280.016 c 1.59,0 3.117,0.633 4.242,1.758 1.125,1.125 1.758,2.649 1.758,4.242 0,1.59 -0.633,3.118 -1.758,4.243 -1.125,1.125 -2.652,1.757 -4.242,1.757 -1.59,0 -3.117,-0.632 -4.242,-1.757 -1.125,-1.125 -1.758,-2.653 -1.758,-4.243 0,-1.593 0.633,-3.117 1.758,-4.242 1.125,-1.125 2.652,-1.758 4.242,-1.758 z"
           style="fill:#7a21dd;fill-opacity:1;fill-rule:nonzero;stroke:#7a21dd;stroke-width:2;stroke-linecap:butt;stroke-linejoin:round;stroke-miterlimit:10;stroke-dasharray:none;stroke-opacity:1"
           id="path268" /></g><g
         id="g270"
         transform="scale(1,-1)"><path
           d="m 403.801,-244.973 c 1.594,0 3.117,0.633 4.242,1.758 1.129,1.125 1.758,2.653 1.758,4.242 0,1.59 -0.629,3.118 -1.758,4.243 -1.125,1.125 -2.648,1.757 -4.242,1.757 -1.59,0 -3.117,-0.632 -4.242,-1.757 -1.125,-1.125 -1.758,-2.653 -1.758,-4.243 0,-1.589 0.633,-3.117 1.758,-4.242 1.125,-1.125 2.652,-1.758 4.242,-1.758 z"
           style="fill:#7a21dd;fill-opacity:1;fill-rule:nonzero;stroke:#7a21dd;stroke-width:2;stroke-linecap:butt;stroke-linejoin:round;stroke-miterlimit:10;stroke-dasharray:none;stroke-opacity:1"
           id="path272" /></g><g
         id="g274"
         transform="scale(1,-1)"><path
           d="m 483.566,-174.887 c 1.59,0 3.118,0.633 4.243,1.758 1.125,1.125 1.757,2.652 1.757,4.242 0,1.594 -0.632,3.117 -1.757,4.242 -1.125,1.125 -2.653,1.758 -4.243,1.758 -1.593,0 -3.117,-0.633 -4.246,-1.758 -1.125,-1.125 -1.754,-2.648 -1.754,-4.242 0,-1.59 0.629,-3.117 1.754,-4.242 1.129,-1.125 2.653,-1.758 4.246,-1.758 z"
           style="fill:#7a21dd;fill-opacity:1;fill-rule:nonzero;stroke:#7a21dd;stroke-width:2;stroke-linecap:butt;stroke-linejoin:round;stroke-miterlimit:10;stroke-dasharray:none;stroke-opacity:1"
           id="path276" /></g><g
         id="g278"
         transform="scale(1,-1)"><path
           d="m 563.328,-122.32 c 1.59,0 3.117,0.632 4.242,1.758 1.125,1.124 1.758,2.652 1.758,4.242 0,1.59 -0.633,3.117 -1.758,4.242 -1.125,1.125 -2.652,1.758 -4.242,1.758 -1.594,0 -3.117,-0.633 -4.242,-1.758 -1.125,-1.125 -1.758,-2.652 -1.758,-4.242 0,-1.59 0.633,-3.118 1.758,-4.242 1.125,-1.126 2.648,-1.758 4.242,-1.758 z"
           style="fill:#7a21dd;fill-opacity:1;fill-rule:nonzero;stroke:#7a21dd;stroke-width:2;stroke-linecap:butt;stroke-linejoin:round;stroke-miterlimit:10;stroke-dasharray:none;stroke-opacity:1"
           id="path280" /></g><g
         id="g282"
         transform="scale(1,-1)"><path
           d="m 643.09,-52.23 c 1.59,0 3.117,0.628 4.242,1.753 1.125,1.125 1.758,2.653 1.758,4.247 0,1.589 -0.633,3.117 -1.758,4.242 -1.125,1.125 -2.652,1.758 -4.242,1.758 -1.59,0 -3.117,-0.633 -4.242,-1.758 -1.125,-1.125 -1.758,-2.653 -1.758,-4.242 0,-1.594 0.633,-3.122 1.758,-4.247 1.125,-1.125 2.652,-1.753 4.242,-1.753 z"
           style="fill:#7a21dd;fill-opacity:1;fill-rule:nonzero;stroke:#7a21dd;stroke-width:2;stroke-linecap:butt;stroke-linejoin:round;stroke-miterlimit:10;stroke-dasharray:none;stroke-opacity:1"
           id="path284" /></g><g
         id="g286"
         transform="scale(1,-1)"><path
           d="m 722.852,-34.711 c 1.593,0 3.117,0.633 4.242,1.758 1.125,1.125 1.758,2.652 1.758,4.242 0,1.594 -0.633,3.117 -1.758,4.242 -1.125,1.125 -2.649,1.758 -4.242,1.758 -1.59,0 -3.118,-0.633 -4.243,-1.758 -1.125,-1.125 -1.757,-2.648 -1.757,-4.242 0,-1.59 0.632,-3.117 1.757,-4.242 1.125,-1.125 2.653,-1.758 4.243,-1.758 z"
           style="fill:#7a21dd;fill-opacity:1;fill-rule:nonzero;stroke:#7a21dd;stroke-width:2;stroke-linecap:butt;stroke-linejoin:round;stroke-miterlimit:10;stroke-dasharray:none;stroke-opacity:1"
           id="path288" /></g></g><g
       id="g290"
       transform="matrix(0.54341708,0,0,0.54341708,420.53055,-4.5658292e-7)"><g
         id="g292"
         clip-path="url(#clipPath296)"><g
           id="g298"><g
             id="g300"><g
               id="g302"
               clip-path="url(#clipPath306)"><g
                 id="g308"><g
                   id="g310"
                   transform="scale(1,-1)"><path
                     d="m 802.617,-52.23 c 1.59,0 3.117,0.628 4.242,1.753 1.125,1.125 1.758,2.653 1.758,4.247 0,1.589 -0.633,3.117 -1.758,4.242 -1.125,1.125 -2.652,1.758 -4.242,1.758 -1.594,0 -3.121,-0.633 -4.246,-1.758 -1.125,-1.125 -1.754,-2.653 -1.754,-4.242 0,-1.594 0.629,-3.122 1.754,-4.247 1.125,-1.125 2.652,-1.753 4.246,-1.753 z"
                     style="fill:#7a21dd;fill-opacity:1;fill-rule:nonzero;stroke:#7a21dd;stroke-width:2;stroke-linecap:butt;stroke-linejoin:round;stroke-miterlimit:10;stroke-dasharray:none;stroke-opacity:1"
                     id="path312" /></g></g></g></g></g></g></g><g
       id="g314"
       transform="matrix(0.54341708,0,0,0.54341708,420.53055,-4.5658292e-7)"><g
         id="g316"
         clip-path="url(#clipPath320)"><g
           id="g322"><g
             id="g324"><g
               id="g326"
               clip-path="url(#clipPath330)"><g
                 id="g332"><g
                   id="g334"
                   transform="scale(1,-1)"><path
                     d="m 882.379,-34.711 c 1.59,0 3.117,0.633 4.242,1.758 1.125,1.125 1.758,2.652 1.758,4.242 0,1.594 -0.633,3.117 -1.758,4.242 -1.125,1.125 -2.652,1.758 -4.242,1.758 -1.594,0 -3.117,-0.633 -4.242,-1.758 -1.125,-1.125 -1.758,-2.648 -1.758,-4.242 0,-1.59 0.633,-3.117 1.758,-4.242 1.125,-1.125 2.648,-1.758 4.242,-1.758 z"
                     style="fill:#7a21dd;fill-opacity:1;fill-rule:nonzero;stroke:#7a21dd;stroke-width:2;stroke-linecap:butt;stroke-linejoin:round;stroke-miterlimit:10;stroke-dasharray:none;stroke-opacity:1"
                     id="path336" /></g></g></g></g></g></g></g><g
       id="g338"
       transform="matrix(0.54341708,0,0,0.54341708,420.53055,-4.5658292e-7)"><g
         id="g340"
         transform="scale(1,-1)"><path
           d="M 128.621,-525.457 V -5.055"
           style="fill:none;stroke:#000000;stroke-width:0.8;stroke-linecap:square;stroke-linejoin:miter;stroke-miterlimit:10;stroke-dasharray:none;stroke-opacity:1"
           id="path342" /></g><g
         id="g344"
         transform="scale(1,-1)"><path
           d="M 128.621,-525.457 H 918.27"
           style="fill:none;stroke:#000000;stroke-width:0.8;stroke-linecap:square;stroke-linejoin:miter;stroke-miterlimit:10;stroke-dasharray:none;stroke-opacity:1"
           id="path346" /></g><g
         id="g348"
         transform="scale(1,-1)"><path
           d="m 175.832,-31.32 h 40"
           style="fill:none;stroke:#9c9ca1;stroke-width:3;stroke-linecap:square;stroke-linejoin:round;stroke-miterlimit:10;stroke-dasharray:none;stroke-opacity:1"
           id="path350" /></g><g
         id="g352"
         transform="scale(1,-1)"><path
           d="m 195.832,-37.32 c 1.59,0 3.117,0.632 4.242,1.758 1.125,1.124 1.758,2.652 1.758,4.242 0,1.593 -0.633,3.117 -1.758,4.242 -1.125,1.125 -2.652,1.758 -4.242,1.758 -1.59,0 -3.117,-0.633 -4.242,-1.758 -1.125,-1.125 -1.758,-2.649 -1.758,-4.242 0,-1.59 0.633,-3.118 1.758,-4.242 1.125,-1.126 2.652,-1.758 4.242,-1.758 z"
           style="fill:#9c9ca1;fill-opacity:1;fill-rule:nonzero;stroke:#9c9ca1;stroke-width:2;stroke-linecap:butt;stroke-linejoin:round;stroke-miterlimit:10;stroke-dasharray:none;stroke-opacity:1"
           id="path354" /></g><text
         transform="translate(227.31928,43.690307)"
         style="font-variant:normal;font-weight:normal;font-size:30px;font-family:'DejaVu Sans';-inkscape-font-specification:DejaVuSans;writing-mode:lr-tb;fill:#000000;fill-opacity:1;fill-rule:nonzero;stroke:none"
         id="text358"><tspan
           x="0 25.859999 42.57"
           y="0"
           sodipodi:role="line"
           id="tspan356">MLM</tspan></text><g
         id="g360"
         transform="scale(1,-1)"><path
           d="m 175.832,-73.605 h 40"
           style="fill:none;stroke:#7a21dd;stroke-width:3;stroke-linecap:square;stroke-linejoin:round;stroke-miterlimit:10;stroke-dasharray:none;stroke-opacity:1"
           id="path362" /></g><g
         id="g364"
         transform="scale(1,-1)"><path
           d="m 195.832,-79.605 c 1.59,0 3.117,0.628 4.242,1.757 1.125,1.125 1.758,2.649 1.758,4.243 0,1.589 -0.633,3.117 -1.758,4.242 -1.125,1.125 -2.652,1.758 -4.242,1.758 -1.59,0 -3.117,-0.633 -4.242,-1.758 -1.125,-1.125 -1.758,-2.653 -1.758,-4.242 0,-1.594 0.633,-3.118 1.758,-4.243 1.125,-1.129 2.652,-1.757 4.242,-1.757 z"
           style="fill:#7a21dd;fill-opacity:1;fill-rule:nonzero;stroke:#7a21dd;stroke-width:2;stroke-linecap:butt;stroke-linejoin:round;stroke-miterlimit:10;stroke-dasharray:none;stroke-opacity:1"
           id="path366" /></g><text
         transform="translate(227.04784,82.45532)"
         style="font-variant:normal;font-weight:normal;font-size:30px;font-family:'DejaVu Sans';-inkscape-font-specification:DejaVuSans;writing-mode:lr-tb;fill:#000000;fill-opacity:1;fill-rule:nonzero;stroke:none"
         id="text370"><tspan
           x="0 18.449999 44.309998 61.019997"
           y="0"
           sodipodi:role="line"
           id="tspan368">eMLM</tspan></text></g><rect
       style="fill:#ff0000;fill-opacity:0.640985;stroke-width:0.722528;stroke-linecap:round;stop-color:#000000"
       id="rect9300"
       width="86.184776"
       height="26.492802"
       x="160.56606"
       y="28.879156" /><rect
       style="fill:#ff0000;fill-opacity:0.640985;stroke-width:0.998207;stroke-linecap:round;stop-color:#000000"
       id="rect9300-1"
       width="164.49986"
       height="26.492802"
       x="106.33915"
       y="61.714966" /><rect
       style="fill:#ff0000;fill-opacity:0.640985;stroke-width:0.609319;stroke-linecap:round;stop-color:#000000"
       id="rect9300-0"
       width="61.293026"
       height="26.492802"
       x="320.68301"
       y="61.714966" /><text
       xml:space="preserve"
       style="font-style:normal;font-weight:normal;font-size:26.5446px;line-height:1.25;font-family:sans-serif;fill:#000000;fill-opacity:1;stroke:none;stroke-width:0.663615"
       x="213.91328"
       y="51.602455"
       id="text3019"><tspan
         sodipodi:role="line"
         style="font-style:normal;font-variant:normal;font-weight:normal;font-stretch:normal;font-family:arial;-inkscape-font-specification:arial;text-align:center;text-anchor:middle;stroke-width:0.663615"
         x="213.91328"
         y="51.602455"
         id="tspan3021">I had a terrible day and </tspan><tspan
         sodipodi:role="line"
         style="font-style:normal;font-variant:normal;font-weight:normal;font-stretch:normal;font-family:arial;-inkscape-font-specification:arial;text-align:center;text-anchor:middle;stroke-width:0.663615"
         x="213.91327"
         y="85.025314"
         id="tspan4158">I felt overwhelmed and tired</tspan></text><text
       xml:space="preserve"
       style="font-style:normal;font-weight:normal;font-size:26.5446px;line-height:1.25;font-family:sans-serif;fill:#000000;fill-opacity:1;stroke:none;stroke-width:0.663615"
       x="218.86171"
       y="259.12903"
       id="text3019-9"><tspan
         sodipodi:role="line"
         style="font-style:normal;font-variant:normal;font-weight:normal;font-stretch:normal;font-family:arial;-inkscape-font-specification:arial;text-align:center;text-anchor:middle;stroke-width:0.663615"
         x="218.86169"
         y="259.12903"
         id="tspan3021-3">I had a &lt;mask&gt; day and </tspan><tspan
         sodipodi:role="line"
         style="font-style:normal;font-variant:normal;font-weight:normal;font-stretch:normal;font-family:arial;-inkscape-font-specification:arial;text-align:center;text-anchor:middle;stroke-width:0.663615"
         x="218.86171"
         y="292.55188"
         id="tspan4158-6">I felt &lt;mask&gt; and &lt;mask&gt;</tspan></text><rect
       style="fill:#ffffff;fill-opacity:0.982411;stroke:#000000;stroke-width:1.5;stroke-linecap:round;stroke-miterlimit:4;stroke-dasharray:none;stop-color:#000000"
       id="rect19365-6"
       width="213.26262"
       height="75.091621"
       x="132.61084"
       y="115.81413" /><text
       xml:space="preserve"
       style="font-style:normal;font-weight:normal;font-size:26.5446px;line-height:1.25;font-family:sans-serif;fill:#000000;fill-opacity:1;stroke:none;stroke-width:0.663615"
       x="241.79057"
       y="145.13519"
       id="text3019-9-5"><tspan
         sodipodi:role="line"
         style="font-style:normal;font-variant:normal;font-weight:normal;font-stretch:normal;font-family:arial;-inkscape-font-specification:arial;text-align:center;text-anchor:middle;stroke-width:0.663615"
         x="241.79057"
         y="145.13519"
         id="tspan4158-6-1">emotion-aware </tspan><tspan
         sodipodi:role="line"
         style="font-style:normal;font-variant:normal;font-weight:normal;font-stretch:normal;font-family:arial;-inkscape-font-specification:arial;text-align:center;text-anchor:middle;stroke-width:0.663615"
         x="241.79057"
         y="178.55804"
         id="tspan13237">masking</tspan></text><text
       xml:space="preserve"
       style="font-style:normal;font-weight:normal;font-size:26.5446px;line-height:1.25;font-family:sans-serif;fill:#000000;fill-opacity:1;stroke:none;stroke-width:0.663615"
       x="58.409454"
       y="143.04575"
       id="text3019-9-5-0"><tspan
         sodipodi:role="line"
         style="font-style:normal;font-variant:normal;font-weight:normal;font-stretch:normal;font-family:Arial;-inkscape-font-specification:Arial;text-align:center;text-anchor:middle;stroke-width:0.663615"
         x="58.409454"
         y="143.04575"
         id="tspan13237-5">NRC</tspan><tspan
         sodipodi:role="line"
         style="font-style:normal;font-variant:normal;font-weight:normal;font-stretch:normal;font-family:Arial;-inkscape-font-specification:Arial;text-align:center;text-anchor:middle;stroke-width:0.663615"
         x="58.409458"
         y="176.4686"
         id="tspan14421">lexica</tspan></text><rect
       style="fill:none;fill-opacity:0.640985;stroke:#000000;stroke-width:1.5;stroke-linecap:round;stroke-miterlimit:4;stroke-dasharray:none;stop-color:#000000"
       id="rect19365"
       width="396.3075"
       height="87.173416"
       x="18.843975"
       y="16.190887" /><rect
       style="fill:none;fill-opacity:0.640985;stroke:#000000;stroke-width:1.5;stroke-linecap:round;stroke-miterlimit:4;stroke-dasharray:none;stop-color:#000000"
       id="rect19365-0"
       width="396.3075"
       height="87.173416"
       x="18.980181"
       y="223.5036" /><rect
       style="fill:none;fill-opacity:0.640985;stroke:#000000;stroke-width:1.5;stroke-linecap:round;stroke-miterlimit:4;stroke-dasharray:none;stop-color:#000000"
       id="rect19365-6-6"
       width="87.759178"
       height="68.058266"
       x="15.929846"
       y="116.28191" /><path
       style="fill:none;fill-rule:evenodd;stroke:#000000;stroke-width:1.5;stroke-linecap:butt;stroke-linejoin:miter;stroke-miterlimit:4;stroke-dasharray:none;stroke-opacity:1;marker-end:url(#Arrow1Lend)"
       d="m 103.74255,148.98909 h 28.8967"
       id="path19672"
       inkscape:connector-type="polyline"
       inkscape:connector-curvature="0" /></g></svg>
