<?xml version="1.0" encoding="UTF-8" standalone="no"?>
<!-- Created with Inkscape (http://www.inkscape.org/) -->

<svg
   xmlns:dc="http://purl.org/dc/elements/1.1/"
   xmlns:cc="http://creativecommons.org/ns#"
   xmlns:rdf="http://www.w3.org/1999/02/22-rdf-syntax-ns#"
   xmlns:svg="http://www.w3.org/2000/svg"
   xmlns="http://www.w3.org/2000/svg"
   xmlns:sodipodi="http://sodipodi.sourceforge.net/DTD/sodipodi-0.dtd"
   xmlns:inkscape="http://www.inkscape.org/namespaces/inkscape"
   version="1.1"
   id="svg2"
   xml:space="preserve"
   width="542.73505"
   height="396.85367"
   viewBox="0 0 542.73505 396.85367"
   sodipodi:docname="DS1.svg"
   inkscape:version="0.92.5 (2060ec1f9f, 2020-04-08)"><metadata
     id="metadata8"><rdf:RDF><cc:Work
         rdf:about=""><dc:format>image/svg+xml</dc:format><dc:type
           rdf:resource="http://purl.org/dc/dcmitype/StillImage" /><dc:title></dc:title></cc:Work></rdf:RDF></metadata><defs
     id="defs6"><clipPath
       clipPathUnits="userSpaceOnUse"
       id="clipPath372"><path
         d="M 0,0 H 408 V 298 H 0 Z"
         id="path370"
         inkscape:connector-curvature="0" /></clipPath><clipPath
       clipPathUnits="userSpaceOnUse"
       id="clipPath390"><path
         d="M 0,0 H 408 V 298 H 0 Z"
         id="path388"
         inkscape:connector-curvature="0" /></clipPath><clipPath
       clipPathUnits="userSpaceOnUse"
       id="clipPath408"><path
         d="M 0,0 H 408 V 298 H 0 Z"
         id="path406"
         inkscape:connector-curvature="0" /></clipPath><clipPath
       clipPathUnits="userSpaceOnUse"
       id="clipPath438"><path
         d="M 0,0 H 408 V 298 H 0 Z"
         id="path436"
         inkscape:connector-curvature="0" /></clipPath><clipPath
       clipPathUnits="userSpaceOnUse"
       id="clipPath456"><path
         d="M 0,0 H 408 V 298 H 0 Z"
         id="path454"
         inkscape:connector-curvature="0" /></clipPath><clipPath
       clipPathUnits="userSpaceOnUse"
       id="clipPath474"><path
         d="M 0,0 H 408 V 298 H 0 Z"
         id="path472"
         inkscape:connector-curvature="0" /></clipPath></defs><sodipodi:namedview
     pagecolor="#ffffff"
     bordercolor="#666666"
     borderopacity="1"
     objecttolerance="10"
     gridtolerance="10"
     guidetolerance="10"
     inkscape:pageopacity="0"
     inkscape:pageshadow="2"
     inkscape:window-width="2560"
     inkscape:window-height="1305"
     id="namedview4"
     showgrid="false"
     inkscape:zoom="0.59467763"
     inkscape:cx="271.36752"
     inkscape:cy="198.42683"
     inkscape:window-x="2560"
     inkscape:window-y="0"
     inkscape:window-maximized="1"
     inkscape:current-layer="g10" /><g
     id="g10"
     inkscape:groupmode="layer"
     inkscape:label="plot_twopanels"
     transform="matrix(1.3333333,0,0,1.3333333,0,1.1254675e-5)"><g
       id="g12"><text
         transform="matrix(0,1,-0.9280853,0,397.831,67.942012)"
         style="font-variant:normal;font-weight:normal;font-size:13.40724468px;font-family:'Nimbus Sans';-inkscape-font-specification:NimbusSans-Regular;writing-mode:lr-tb;fill:#ff0000;fill-opacity:1;fill-rule:nonzero;stroke:none"
         id="text16"><tspan
           x="0 9.6398096 17.094238 21.625887 28.289288 32.016502 39.470928 46.925358 54.299343 61.753769 66.218384 73.672813 77.400024 84.331573 91.397186 98.100815 101.82803 105.55524 114.45765 121.91208 129.3665 133.02669 136.0031 147.17133 154.62576 162.08018"
           y="0"
           sodipodi:role="line"
           id="tspan14">Derstandard Text Sentiment</tspan></text>
<g
         id="g18"><path
           d="M 39.527,0.492 H 367.25 V 269.574 H 39.527 Z"
           style="fill:#ffffff;fill-opacity:1;fill-rule:nonzero;stroke:#000000;stroke-width:0.98716402;stroke-linecap:round;stroke-linejoin:round;stroke-miterlimit:10;stroke-dasharray:none;stroke-opacity:1"
           id="path20"
           inkscape:connector-curvature="0" /></g><g
         id="g22"><path
           d="M 39.527,264.289 H 367.262"
           style="fill:none;stroke:#e5e5e5;stroke-width:0.98716402;stroke-linecap:butt;stroke-linejoin:round;stroke-miterlimit:10;stroke-dasharray:none;stroke-opacity:1"
           id="path24"
           inkscape:connector-curvature="0" /></g><g
         id="g26"><path
           d="M 39.527,218.637 H 367.262"
           style="fill:none;stroke:#e5e5e5;stroke-width:0.98716402;stroke-linecap:butt;stroke-linejoin:round;stroke-miterlimit:10;stroke-dasharray:none;stroke-opacity:1"
           id="path28"
           inkscape:connector-curvature="0" /></g><g
         id="g30"><path
           d="M 39.527,172.98 H 367.262"
           style="fill:none;stroke:#e5e5e5;stroke-width:0.98716402;stroke-linecap:butt;stroke-linejoin:round;stroke-miterlimit:10;stroke-dasharray:none;stroke-opacity:1"
           id="path32"
           inkscape:connector-curvature="0" /></g><g
         id="g34"><path
           d="M 39.527,127.324 H 367.262"
           style="fill:none;stroke:#e5e5e5;stroke-width:0.98716402;stroke-linecap:butt;stroke-linejoin:round;stroke-miterlimit:10;stroke-dasharray:none;stroke-opacity:1"
           id="path36"
           inkscape:connector-curvature="0" /></g><g
         id="g38"><path
           d="M 39.527,81.664 H 367.262"
           style="fill:none;stroke:#e5e5e5;stroke-width:0.98716402;stroke-linecap:butt;stroke-linejoin:round;stroke-miterlimit:10;stroke-dasharray:none;stroke-opacity:1"
           id="path40"
           inkscape:connector-curvature="0" /></g><g
         id="g42"><path
           d="M 39.527,36.012 H 367.262"
           style="fill:none;stroke:#e5e5e5;stroke-width:0.98716402;stroke-linecap:butt;stroke-linejoin:round;stroke-miterlimit:10;stroke-dasharray:none;stroke-opacity:1"
           id="path44"
           inkscape:connector-curvature="0" /></g><g
         id="g46"><path
           d="M 77.949,269.574 V 0.492"
           style="fill:none;stroke:#e5e5e5;stroke-width:0.98716402;stroke-linecap:butt;stroke-linejoin:round;stroke-miterlimit:10;stroke-dasharray:none;stroke-opacity:1"
           id="path48"
           inkscape:connector-curvature="0" /></g><g
         id="g50"><path
           d="M 187.715,269.574 V 0.492"
           style="fill:none;stroke:#e5e5e5;stroke-width:0.98716402;stroke-linecap:butt;stroke-linejoin:round;stroke-miterlimit:10;stroke-dasharray:none;stroke-opacity:1"
           id="path52"
           inkscape:connector-curvature="0" /></g><g
         id="g54"><path
           d="M 297.48,269.574 V 0.492"
           style="fill:none;stroke:#e5e5e5;stroke-width:0.98716402;stroke-linecap:butt;stroke-linejoin:round;stroke-miterlimit:10;stroke-dasharray:none;stroke-opacity:1"
           id="path56"
           inkscape:connector-curvature="0" /></g><g
         id="g58"><path
           d="M 39.527,241.457 H 367.262"
           style="fill:none;stroke:#e5e5e5;stroke-width:0.98716402;stroke-linecap:butt;stroke-linejoin:round;stroke-miterlimit:10;stroke-dasharray:none;stroke-opacity:1"
           id="path60"
           inkscape:connector-curvature="0" /></g><g
         id="g62"><path
           d="M 39.527,195.812 H 367.262"
           style="fill:none;stroke:#e5e5e5;stroke-width:0.98716402;stroke-linecap:butt;stroke-linejoin:round;stroke-miterlimit:10;stroke-dasharray:none;stroke-opacity:1"
           id="path64"
           inkscape:connector-curvature="0" /></g><g
         id="g66"><path
           d="M 39.527,150.148 H 367.262"
           style="fill:none;stroke:#e5e5e5;stroke-width:0.98716402;stroke-linecap:butt;stroke-linejoin:round;stroke-miterlimit:10;stroke-dasharray:none;stroke-opacity:1"
           id="path68"
           inkscape:connector-curvature="0" /></g><g
         id="g70"><path
           d="M 39.527,104.492 H 367.262"
           style="fill:none;stroke:#e5e5e5;stroke-width:0.98716402;stroke-linecap:butt;stroke-linejoin:round;stroke-miterlimit:10;stroke-dasharray:none;stroke-opacity:1"
           id="path72"
           inkscape:connector-curvature="0" /></g><g
         id="g74"><path
           d="M 39.527,58.844 H 367.262"
           style="fill:none;stroke:#e5e5e5;stroke-width:0.98716402;stroke-linecap:butt;stroke-linejoin:round;stroke-miterlimit:10;stroke-dasharray:none;stroke-opacity:1"
           id="path76"
           inkscape:connector-curvature="0" /></g><g
         id="g78"><path
           d="M 39.527,13.18 H 367.262"
           style="fill:none;stroke:#e5e5e5;stroke-width:0.98716402;stroke-linecap:butt;stroke-linejoin:round;stroke-miterlimit:10;stroke-dasharray:none;stroke-opacity:1"
           id="path80"
           inkscape:connector-curvature="0" /></g><g
         id="g82"><path
           d="M 132.832,269.574 V 0.492"
           style="fill:none;stroke:#e5e5e5;stroke-width:0.98716402;stroke-linecap:butt;stroke-linejoin:round;stroke-miterlimit:10;stroke-dasharray:none;stroke-opacity:1"
           id="path84"
           inkscape:connector-curvature="0" /></g><g
         id="g86"><path
           d="M 242.598,269.574 V 0.492"
           style="fill:none;stroke:#e5e5e5;stroke-width:0.98716402;stroke-linecap:butt;stroke-linejoin:round;stroke-miterlimit:10;stroke-dasharray:none;stroke-opacity:1"
           id="path88"
           inkscape:connector-curvature="0" /></g><g
         id="g90"><path
           d="M 352.355,269.574 V 0.492"
           style="fill:none;stroke:#e5e5e5;stroke-width:0.98716402;stroke-linecap:butt;stroke-linejoin:round;stroke-miterlimit:10;stroke-dasharray:none;stroke-opacity:1"
           id="path92"
           inkscape:connector-curvature="0" /></g><g
         id="g94"><path
           d="m 54.434,158.566 15.679,36.063 15.676,35.187 15.68,13.914 15.687,-19.652 15.676,-49.445 15.68,-7.36 15.679,-23.027 15.688,-2.949 15.676,-7.672 15.679,-72.418 15.676,-32.281 15.688,31.66 15.679,93.152 15.68,12.977 15.676,13.281 15.687,-23.078 15.68,-19.813 15.676,-58.476 15.679,16.894"
           style="fill:none;stroke:#0000ff;stroke-width:2.16807008;stroke-linecap:butt;stroke-linejoin:round;stroke-miterlimit:10;stroke-dasharray:none;stroke-opacity:1"
           id="path96"
           inkscape:connector-curvature="0" /></g><g
         id="g98"><path
           d="m 52.219,158.566 c 0,-1.316 0.996,-2.386 2.215,-2.386 1.207,0 2.203,1.07 2.203,2.386 0,1.309 -0.996,2.383 -2.203,2.383 -1.219,0 -2.215,-1.074 -2.215,-2.383"
           style="fill:#0000ff;fill-opacity:1;fill-rule:nonzero;stroke:#0000ff;stroke-width:0.65503401;stroke-linecap:round;stroke-linejoin:round;stroke-miterlimit:10;stroke-dasharray:none;stroke-opacity:1"
           id="path100"
           inkscape:connector-curvature="0" /></g><g
         id="g102"><path
           d="m 67.898,194.629 c 0,-1.309 0.997,-2.383 2.215,-2.383 1.215,0 2.211,1.074 2.211,2.383 0,1.316 -0.996,2.383 -2.211,2.383 -1.218,0 -2.215,-1.067 -2.215,-2.383"
           style="fill:#0000ff;fill-opacity:1;fill-rule:nonzero;stroke:#0000ff;stroke-width:0.65503401;stroke-linecap:round;stroke-linejoin:round;stroke-miterlimit:10;stroke-dasharray:none;stroke-opacity:1"
           id="path104"
           inkscape:connector-curvature="0" /></g><g
         id="g106"><path
           d="m 83.578,229.816 c 0,-1.316 0.992,-2.386 2.211,-2.386 1.219,0 2.215,1.07 2.215,2.386 0,1.309 -0.996,2.383 -2.215,2.383 -1.219,0 -2.211,-1.074 -2.211,-2.383"
           style="fill:#0000ff;fill-opacity:1;fill-rule:nonzero;stroke:#0000ff;stroke-width:0.65503401;stroke-linecap:round;stroke-linejoin:round;stroke-miterlimit:10;stroke-dasharray:none;stroke-opacity:1"
           id="path108"
           inkscape:connector-curvature="0" /></g><g
         id="g110"><path
           d="m 99.254,243.73 c 0,-1.312 0.996,-2.386 2.215,-2.386 1.215,0 2.211,1.074 2.211,2.386 0,1.309 -0.996,2.383 -2.211,2.383 -1.219,0 -2.215,-1.074 -2.215,-2.383"
           style="fill:#0000ff;fill-opacity:1;fill-rule:nonzero;stroke:#0000ff;stroke-width:0.65503401;stroke-linecap:round;stroke-linejoin:round;stroke-miterlimit:10;stroke-dasharray:none;stroke-opacity:1"
           id="path112"
           inkscape:connector-curvature="0" /></g><g
         id="g114"><path
           d="m 114.941,224.078 c 0,-1.312 0.997,-2.383 2.215,-2.383 1.207,0 2.203,1.071 2.203,2.383 0,1.313 -0.996,2.383 -2.203,2.383 -1.218,0 -2.215,-1.07 -2.215,-2.383"
           style="fill:#0000ff;fill-opacity:1;fill-rule:nonzero;stroke:#0000ff;stroke-width:0.65503401;stroke-linecap:round;stroke-linejoin:round;stroke-miterlimit:10;stroke-dasharray:none;stroke-opacity:1"
           id="path116"
           inkscape:connector-curvature="0" /></g><g
         id="g118"><path
           d="m 130.621,174.633 c 0,-1.309 0.996,-2.383 2.211,-2.383 1.219,0 2.215,1.074 2.215,2.383 0,1.308 -0.996,2.375 -2.215,2.375 -1.215,0 -2.211,-1.067 -2.211,-2.375"
           style="fill:#0000ff;fill-opacity:1;fill-rule:nonzero;stroke:#0000ff;stroke-width:0.65503401;stroke-linecap:round;stroke-linejoin:round;stroke-miterlimit:10;stroke-dasharray:none;stroke-opacity:1"
           id="path120"
           inkscape:connector-curvature="0" /></g><g
         id="g122"><path
           d="m 146.297,167.273 c 0,-1.316 0.996,-2.39 2.215,-2.39 1.218,0 2.215,1.074 2.215,2.39 0,1.309 -0.997,2.383 -2.215,2.383 -1.219,0 -2.215,-1.074 -2.215,-2.383"
           style="fill:#0000ff;fill-opacity:1;fill-rule:nonzero;stroke:#0000ff;stroke-width:0.65503401;stroke-linecap:round;stroke-linejoin:round;stroke-miterlimit:10;stroke-dasharray:none;stroke-opacity:1"
           id="path124"
           inkscape:connector-curvature="0" /></g><g
         id="g126"><path
           d="m 161.984,144.246 c 0,-1.305 0.989,-2.383 2.207,-2.383 1.215,0 2.211,1.078 2.211,2.383 0,1.316 -0.996,2.387 -2.211,2.387 -1.218,0 -2.207,-1.071 -2.207,-2.387"
           style="fill:#0000ff;fill-opacity:1;fill-rule:nonzero;stroke:#0000ff;stroke-width:0.65503401;stroke-linecap:round;stroke-linejoin:round;stroke-miterlimit:10;stroke-dasharray:none;stroke-opacity:1"
           id="path128"
           inkscape:connector-curvature="0" /></g><g
         id="g130"><path
           d="m 177.664,141.297 c 0,-1.301 0.996,-2.375 2.215,-2.375 1.207,0 2.203,1.074 2.203,2.375 0,1.316 -0.996,2.383 -2.203,2.383 -1.219,0 -2.215,-1.067 -2.215,-2.383"
           style="fill:#0000ff;fill-opacity:1;fill-rule:nonzero;stroke:#0000ff;stroke-width:0.65503401;stroke-linecap:round;stroke-linejoin:round;stroke-miterlimit:10;stroke-dasharray:none;stroke-opacity:1"
           id="path132"
           inkscape:connector-curvature="0" /></g><g
         id="g134"><path
           d="m 193.344,133.625 c 0,-1.309 0.992,-2.383 2.211,-2.383 1.218,0 2.215,1.074 2.215,2.383 0,1.316 -0.997,2.387 -2.215,2.387 -1.219,0 -2.211,-1.071 -2.211,-2.387"
           style="fill:#0000ff;fill-opacity:1;fill-rule:nonzero;stroke:#0000ff;stroke-width:0.65503401;stroke-linecap:round;stroke-linejoin:round;stroke-miterlimit:10;stroke-dasharray:none;stroke-opacity:1"
           id="path136"
           inkscape:connector-curvature="0" /></g><g
         id="g138"><path
           d="m 209.02,61.207 c 0,-1.309 0.996,-2.383 2.214,-2.383 1.215,0 2.211,1.074 2.211,2.383 0,1.316 -0.996,2.387 -2.211,2.387 -1.218,0 -2.214,-1.071 -2.214,-2.387"
           style="fill:#0000ff;fill-opacity:1;fill-rule:nonzero;stroke:#0000ff;stroke-width:0.65503401;stroke-linecap:round;stroke-linejoin:round;stroke-miterlimit:10;stroke-dasharray:none;stroke-opacity:1"
           id="path140"
           inkscape:connector-curvature="0" /></g><g
         id="g142"><path
           d="m 224.707,28.926 c 0,-1.313 0.996,-2.387 2.203,-2.387 1.219,0 2.215,1.074 2.215,2.387 0,1.312 -0.996,2.386 -2.215,2.386 -1.207,0 -2.203,-1.074 -2.203,-2.386"
           style="fill:#0000ff;fill-opacity:1;fill-rule:nonzero;stroke:#0000ff;stroke-width:0.65503401;stroke-linecap:round;stroke-linejoin:round;stroke-miterlimit:10;stroke-dasharray:none;stroke-opacity:1"
           id="path144"
           inkscape:connector-curvature="0" /></g><g
         id="g146"><path
           d="m 240.387,60.586 c 0,-1.309 0.996,-2.387 2.211,-2.387 1.218,0 2.207,1.078 2.207,2.387 0,1.301 -0.989,2.375 -2.207,2.375 -1.215,0 -2.211,-1.074 -2.211,-2.375"
           style="fill:#0000ff;fill-opacity:1;fill-rule:nonzero;stroke:#0000ff;stroke-width:0.65503401;stroke-linecap:round;stroke-linejoin:round;stroke-miterlimit:10;stroke-dasharray:none;stroke-opacity:1"
           id="path148"
           inkscape:connector-curvature="0" /></g><g
         id="g150"><path
           d="m 256.062,153.738 c 0,-1.312 0.997,-2.383 2.215,-2.383 1.219,0 2.215,1.071 2.215,2.383 0,1.313 -0.996,2.383 -2.215,2.383 -1.218,0 -2.215,-1.07 -2.215,-2.383"
           style="fill:#0000ff;fill-opacity:1;fill-rule:nonzero;stroke:#0000ff;stroke-width:0.65503401;stroke-linecap:round;stroke-linejoin:round;stroke-miterlimit:10;stroke-dasharray:none;stroke-opacity:1"
           id="path152"
           inkscape:connector-curvature="0" /></g><g
         id="g154"><path
           d="m 271.742,166.715 c 0,-1.309 0.996,-2.387 2.215,-2.387 1.215,0 2.211,1.078 2.211,2.387 0,1.312 -0.996,2.383 -2.211,2.383 -1.219,0 -2.215,-1.071 -2.215,-2.383"
           style="fill:#0000ff;fill-opacity:1;fill-rule:nonzero;stroke:#0000ff;stroke-width:0.65503401;stroke-linecap:round;stroke-linejoin:round;stroke-miterlimit:10;stroke-dasharray:none;stroke-opacity:1"
           id="path156"
           inkscape:connector-curvature="0" /></g><g
         id="g158"><path
           d="m 287.43,179.996 c 0,-1.305 0.996,-2.383 2.203,-2.383 1.219,0 2.215,1.078 2.215,2.383 0,1.316 -0.996,2.383 -2.215,2.383 -1.207,0 -2.203,-1.067 -2.203,-2.383"
           style="fill:#0000ff;fill-opacity:1;fill-rule:nonzero;stroke:#0000ff;stroke-width:0.65503401;stroke-linecap:round;stroke-linejoin:round;stroke-miterlimit:10;stroke-dasharray:none;stroke-opacity:1"
           id="path160"
           inkscape:connector-curvature="0" /></g><g
         id="g162"><path
           d="m 303.109,156.918 c 0,-1.309 0.993,-2.387 2.211,-2.387 1.219,0 2.215,1.078 2.215,2.387 0,1.312 -0.996,2.383 -2.215,2.383 -1.218,0 -2.211,-1.071 -2.211,-2.383"
           style="fill:#0000ff;fill-opacity:1;fill-rule:nonzero;stroke:#0000ff;stroke-width:0.65503401;stroke-linecap:round;stroke-linejoin:round;stroke-miterlimit:10;stroke-dasharray:none;stroke-opacity:1"
           id="path164"
           inkscape:connector-curvature="0" /></g><g
         id="g166"><path
           d="m 318.785,137.105 c 0,-1.304 0.996,-2.375 2.215,-2.375 1.219,0 2.211,1.071 2.211,2.375 0,1.309 -0.992,2.383 -2.211,2.383 -1.219,0 -2.215,-1.074 -2.215,-2.383"
           style="fill:#0000ff;fill-opacity:1;fill-rule:nonzero;stroke:#0000ff;stroke-width:0.65503401;stroke-linecap:round;stroke-linejoin:round;stroke-miterlimit:10;stroke-dasharray:none;stroke-opacity:1"
           id="path168"
           inkscape:connector-curvature="0" /></g><g
         id="g170"><path
           d="m 334.465,78.629 c 0,-1.309 0.996,-2.387 2.211,-2.387 1.219,0 2.215,1.078 2.215,2.387 0,1.316 -0.996,2.383 -2.215,2.383 -1.215,0 -2.211,-1.067 -2.211,-2.383"
           style="fill:#0000ff;fill-opacity:1;fill-rule:nonzero;stroke:#0000ff;stroke-width:0.65503401;stroke-linecap:round;stroke-linejoin:round;stroke-miterlimit:10;stroke-dasharray:none;stroke-opacity:1"
           id="path172"
           inkscape:connector-curvature="0" /></g><g
         id="g174"><path
           d="m 350.152,95.523 c 0,-1.316 0.996,-2.375 2.203,-2.375 1.219,0 2.215,1.059 2.215,2.375 0,1.309 -0.996,2.383 -2.215,2.383 -1.207,0 -2.203,-1.074 -2.203,-2.383"
           style="fill:#0000ff;fill-opacity:1;fill-rule:nonzero;stroke:#0000ff;stroke-width:0.65503401;stroke-linecap:round;stroke-linejoin:round;stroke-miterlimit:10;stroke-dasharray:none;stroke-opacity:1"
           id="path176"
           inkscape:connector-curvature="0" /></g><path
         d="m 54.434,142.457 15.679,42.297 15.676,34.246 15.68,10.996 15.687,-19.887 15.676,-47.199 15.68,-10.379 15.679,-22.726 15.688,-4.426 15.676,-8.481 15.679,-72.652 15.676,-31.523 15.688,31.648 15.679,92.875 15.68,12.305 15.676,13.234 15.687,-22.797 15.68,-21.855 15.676,-57.453 15.679,18.406 v 32.527 L 336.676,96.805 321,156.082 l -15.68,18.129 -15.687,23.363 -15.676,-13.519 -15.68,-13.309 -15.679,-93.785 -15.688,-31.832 -15.676,32.84 -15.679,72.937 -15.676,6 -15.688,2.059 -15.679,22.906 -15.68,4.914 -15.676,51.039 -15.687,19.524 -15.68,-16.934 -15.676,-36.137 -15.679,-30.535 z"
         style="fill:#0000ff;fill-opacity:0.25100002;fill-rule:nonzero;stroke:none"
         id="path178"
         inkscape:connector-curvature="0" /><g
         id="g180"><path
           d="m 54.434,137.324 15.679,27.129 15.676,38.805 15.68,20.398 15.687,-18.644 15.676,-13.293 15.68,-25.371 15.679,3.89 15.688,-26.504 15.676,-11.23 15.679,-87.606 15.676,-24.226 15.688,38.683 15.679,70.711 15.68,43.918 15.676,7.133 15.687,7.008 15.68,-47.535 15.676,-20.645 15.679,14.274"
           style="fill:none;stroke:#ff0000;stroke-width:2.16807008;stroke-linecap:butt;stroke-linejoin:round;stroke-miterlimit:10;stroke-dasharray:none;stroke-opacity:1"
           id="path182"
           inkscape:connector-curvature="0" /></g><g
         id="g184"><path
           d="m 52.219,137.324 c 0,-1.312 0.996,-2.375 2.215,-2.375 1.207,0 2.203,1.063 2.203,2.375 0,1.309 -0.996,2.383 -2.203,2.383 -1.219,0 -2.215,-1.074 -2.215,-2.383"
           style="fill:#ff0000;fill-opacity:1;fill-rule:nonzero;stroke:#ff0000;stroke-width:0.65503401;stroke-linecap:round;stroke-linejoin:round;stroke-miterlimit:10;stroke-dasharray:none;stroke-opacity:1"
           id="path186"
           inkscape:connector-curvature="0" /></g><g
         id="g188"><path
           d="m 67.898,164.453 c 0,-1.297 0.997,-2.375 2.215,-2.375 1.215,0 2.211,1.078 2.211,2.375 0,1.313 -0.996,2.383 -2.211,2.383 -1.218,0 -2.215,-1.07 -2.215,-2.383"
           style="fill:#ff0000;fill-opacity:1;fill-rule:nonzero;stroke:#ff0000;stroke-width:0.65503401;stroke-linecap:round;stroke-linejoin:round;stroke-miterlimit:10;stroke-dasharray:none;stroke-opacity:1"
           id="path190"
           inkscape:connector-curvature="0" /></g><g
         id="g192"><path
           d="m 83.578,203.258 c 0,-1.313 0.992,-2.387 2.211,-2.387 1.219,0 2.215,1.074 2.215,2.387 0,1.316 -0.996,2.383 -2.215,2.383 -1.219,0 -2.211,-1.067 -2.211,-2.383"
           style="fill:#ff0000;fill-opacity:1;fill-rule:nonzero;stroke:#ff0000;stroke-width:0.65503401;stroke-linecap:round;stroke-linejoin:round;stroke-miterlimit:10;stroke-dasharray:none;stroke-opacity:1"
           id="path194"
           inkscape:connector-curvature="0" /></g><g
         id="g196"><path
           d="m 99.254,223.656 c 0,-1.312 0.996,-2.383 2.215,-2.383 1.215,0 2.211,1.071 2.211,2.383 0,1.313 -0.996,2.383 -2.211,2.383 -1.219,0 -2.215,-1.07 -2.215,-2.383"
           style="fill:#ff0000;fill-opacity:1;fill-rule:nonzero;stroke:#ff0000;stroke-width:0.65503401;stroke-linecap:round;stroke-linejoin:round;stroke-miterlimit:10;stroke-dasharray:none;stroke-opacity:1"
           id="path198"
           inkscape:connector-curvature="0" /></g><g
         id="g200"><path
           d="m 114.941,205.012 c 0,-1.313 0.997,-2.387 2.215,-2.387 1.207,0 2.203,1.074 2.203,2.387 0,1.312 -0.996,2.386 -2.203,2.386 -1.218,0 -2.215,-1.074 -2.215,-2.386"
           style="fill:#ff0000;fill-opacity:1;fill-rule:nonzero;stroke:#ff0000;stroke-width:0.65503401;stroke-linecap:round;stroke-linejoin:round;stroke-miterlimit:10;stroke-dasharray:none;stroke-opacity:1"
           id="path202"
           inkscape:connector-curvature="0" /></g><g
         id="g204"><path
           d="m 130.621,191.719 c 0,-1.313 0.996,-2.387 2.211,-2.387 1.219,0 2.215,1.074 2.215,2.387 0,1.312 -0.996,2.386 -2.215,2.386 -1.215,0 -2.211,-1.074 -2.211,-2.386"
           style="fill:#ff0000;fill-opacity:1;fill-rule:nonzero;stroke:#ff0000;stroke-width:0.65503401;stroke-linecap:round;stroke-linejoin:round;stroke-miterlimit:10;stroke-dasharray:none;stroke-opacity:1"
           id="path206"
           inkscape:connector-curvature="0" /></g><g
         id="g208"><path
           d="m 146.297,166.348 c 0,-1.309 0.996,-2.383 2.215,-2.383 1.218,0 2.215,1.074 2.215,2.383 0,1.312 -0.997,2.39 -2.215,2.39 -1.219,0 -2.215,-1.078 -2.215,-2.39"
           style="fill:#ff0000;fill-opacity:1;fill-rule:nonzero;stroke:#ff0000;stroke-width:0.65503401;stroke-linecap:round;stroke-linejoin:round;stroke-miterlimit:10;stroke-dasharray:none;stroke-opacity:1"
           id="path210"
           inkscape:connector-curvature="0" /></g><g
         id="g212"><path
           d="m 161.984,170.238 c 0,-1.312 0.989,-2.383 2.207,-2.383 1.215,0 2.211,1.071 2.211,2.383 0,1.313 -0.996,2.383 -2.211,2.383 -1.218,0 -2.207,-1.07 -2.207,-2.383"
           style="fill:#ff0000;fill-opacity:1;fill-rule:nonzero;stroke:#ff0000;stroke-width:0.65503401;stroke-linecap:round;stroke-linejoin:round;stroke-miterlimit:10;stroke-dasharray:none;stroke-opacity:1"
           id="path214"
           inkscape:connector-curvature="0" /></g><g
         id="g216"><path
           d="m 177.664,143.734 c 0,-1.308 0.996,-2.375 2.215,-2.375 1.207,0 2.203,1.067 2.203,2.375 0,1.309 -0.996,2.379 -2.203,2.379 -1.219,0 -2.215,-1.07 -2.215,-2.379"
           style="fill:#ff0000;fill-opacity:1;fill-rule:nonzero;stroke:#ff0000;stroke-width:0.65503401;stroke-linecap:round;stroke-linejoin:round;stroke-miterlimit:10;stroke-dasharray:none;stroke-opacity:1"
           id="path218"
           inkscape:connector-curvature="0" /></g><g
         id="g220"><path
           d="m 193.344,132.504 c 0,-1.309 0.992,-2.383 2.211,-2.383 1.218,0 2.215,1.074 2.215,2.383 0,1.308 -0.997,2.375 -2.215,2.375 -1.219,0 -2.211,-1.067 -2.211,-2.375"
           style="fill:#ff0000;fill-opacity:1;fill-rule:nonzero;stroke:#ff0000;stroke-width:0.65503401;stroke-linecap:round;stroke-linejoin:round;stroke-miterlimit:10;stroke-dasharray:none;stroke-opacity:1"
           id="path222"
           inkscape:connector-curvature="0" /></g><g
         id="g224"><path
           d="m 209.02,44.898 c 0,-1.32 0.996,-2.394 2.214,-2.394 1.215,0 2.211,1.074 2.211,2.394 0,1.305 -0.996,2.379 -2.211,2.379 -1.218,0 -2.214,-1.074 -2.214,-2.379"
           style="fill:#ff0000;fill-opacity:1;fill-rule:nonzero;stroke:#ff0000;stroke-width:0.65503401;stroke-linecap:round;stroke-linejoin:round;stroke-miterlimit:10;stroke-dasharray:none;stroke-opacity:1"
           id="path226"
           inkscape:connector-curvature="0" /></g><g
         id="g228"><path
           d="m 224.707,20.672 c 0,-1.309 0.996,-2.387 2.203,-2.387 1.219,0 2.215,1.078 2.215,2.387 0,1.312 -0.996,2.383 -2.215,2.383 -1.207,0 -2.203,-1.071 -2.203,-2.383"
           style="fill:#ff0000;fill-opacity:1;fill-rule:nonzero;stroke:#ff0000;stroke-width:0.65503401;stroke-linecap:round;stroke-linejoin:round;stroke-miterlimit:10;stroke-dasharray:none;stroke-opacity:1"
           id="path230"
           inkscape:connector-curvature="0" /></g><g
         id="g232"><path
           d="m 240.387,59.355 c 0,-1.316 0.996,-2.39 2.211,-2.39 1.218,0 2.207,1.074 2.207,2.39 0,1.301 -0.989,2.375 -2.207,2.375 -1.215,0 -2.211,-1.074 -2.211,-2.375"
           style="fill:#ff0000;fill-opacity:1;fill-rule:nonzero;stroke:#ff0000;stroke-width:0.65503401;stroke-linecap:round;stroke-linejoin:round;stroke-miterlimit:10;stroke-dasharray:none;stroke-opacity:1"
           id="path234"
           inkscape:connector-curvature="0" /></g><g
         id="g236"><path
           d="m 256.062,130.066 c 0,-1.304 0.997,-2.375 2.215,-2.375 1.219,0 2.215,1.071 2.215,2.375 0,1.309 -0.996,2.383 -2.215,2.383 -1.218,0 -2.215,-1.074 -2.215,-2.383"
           style="fill:#ff0000;fill-opacity:1;fill-rule:nonzero;stroke:#ff0000;stroke-width:0.65503401;stroke-linecap:round;stroke-linejoin:round;stroke-miterlimit:10;stroke-dasharray:none;stroke-opacity:1"
           id="path238"
           inkscape:connector-curvature="0" /></g><g
         id="g240"><path
           d="m 271.742,173.984 c 0,-1.316 0.996,-2.386 2.215,-2.386 1.215,0 2.211,1.07 2.211,2.386 0,1.309 -0.996,2.383 -2.211,2.383 -1.219,0 -2.215,-1.074 -2.215,-2.383"
           style="fill:#ff0000;fill-opacity:1;fill-rule:nonzero;stroke:#ff0000;stroke-width:0.65503401;stroke-linecap:round;stroke-linejoin:round;stroke-miterlimit:10;stroke-dasharray:none;stroke-opacity:1"
           id="path242"
           inkscape:connector-curvature="0" /></g><g
         id="g244"><path
           d="m 287.43,181.117 c 0,-1.312 0.996,-2.383 2.203,-2.383 1.219,0 2.215,1.071 2.215,2.383 0,1.313 -0.996,2.383 -2.215,2.383 -1.207,0 -2.203,-1.07 -2.203,-2.383"
           style="fill:#ff0000;fill-opacity:1;fill-rule:nonzero;stroke:#ff0000;stroke-width:0.65503401;stroke-linecap:round;stroke-linejoin:round;stroke-miterlimit:10;stroke-dasharray:none;stroke-opacity:1"
           id="path246"
           inkscape:connector-curvature="0" /></g><g
         id="g248"><path
           d="m 303.109,188.125 c 0,-1.305 0.993,-2.383 2.211,-2.383 1.219,0 2.215,1.078 2.215,2.383 0,1.316 -0.996,2.387 -2.215,2.387 -1.218,0 -2.211,-1.071 -2.211,-2.387"
           style="fill:#ff0000;fill-opacity:1;fill-rule:nonzero;stroke:#ff0000;stroke-width:0.65503401;stroke-linecap:round;stroke-linejoin:round;stroke-miterlimit:10;stroke-dasharray:none;stroke-opacity:1"
           id="path250"
           inkscape:connector-curvature="0" /></g><g
         id="g252"><path
           d="m 318.785,140.59 c 0,-1.305 0.996,-2.375 2.215,-2.375 1.219,0 2.211,1.07 2.211,2.375 0,1.312 -0.992,2.383 -2.211,2.383 -1.219,0 -2.215,-1.071 -2.215,-2.383"
           style="fill:#ff0000;fill-opacity:1;fill-rule:nonzero;stroke:#ff0000;stroke-width:0.65503401;stroke-linecap:round;stroke-linejoin:round;stroke-miterlimit:10;stroke-dasharray:none;stroke-opacity:1"
           id="path254"
           inkscape:connector-curvature="0" /></g><g
         id="g256"><path
           d="m 334.465,119.945 c 0,-1.316 0.996,-2.39 2.211,-2.39 1.219,0 2.215,1.074 2.215,2.39 0,1.309 -0.996,2.379 -2.215,2.379 -1.215,0 -2.211,-1.07 -2.211,-2.379"
           style="fill:#ff0000;fill-opacity:1;fill-rule:nonzero;stroke:#ff0000;stroke-width:0.65503401;stroke-linecap:round;stroke-linejoin:round;stroke-miterlimit:10;stroke-dasharray:none;stroke-opacity:1"
           id="path258"
           inkscape:connector-curvature="0" /></g><g
         id="g260"><path
           d="m 350.152,134.219 c 0,-1.313 0.996,-2.383 2.203,-2.383 1.219,0 2.215,1.07 2.215,2.383 0,1.312 -0.996,2.39 -2.215,2.39 -1.207,0 -2.203,-1.078 -2.203,-2.39"
           style="fill:#ff0000;fill-opacity:1;fill-rule:nonzero;stroke:#ff0000;stroke-width:0.65503401;stroke-linecap:round;stroke-linejoin:round;stroke-miterlimit:10;stroke-dasharray:none;stroke-opacity:1"
           id="path262"
           inkscape:connector-curvature="0" /></g><g
         id="g264"><path
           d="M 39.527,0.492 H 367.25 V 269.574 H 39.527 Z"
           style="fill:none;stroke:#333333;stroke-width:0.98716402;stroke-linecap:round;stroke-linejoin:round;stroke-miterlimit:10;stroke-dasharray:none;stroke-opacity:1"
           id="path266"
           inkscape:connector-curvature="0" /></g><text
         transform="matrix(0.92808534,0,0,1,14.393076,245.58949)"
         style="font-variant:normal;font-weight:normal;font-size:11.49192619px;font-family:'Nimbus Sans';-inkscape-font-specification:NimbusSans-Regular;writing-mode:lr-tb;fill:#000000;fill-opacity:1;fill-rule:nonzero;stroke:none"
         id="text280"><tspan
           x="0 6.3895106 12.779021 15.973777"
           y="0"
           sodipodi:role="line"
           id="tspan268">60.0</tspan><tspan
           x="0 6.3895106 12.779021 15.973777"
           y="-45.651676"
           sodipodi:role="line"
           id="tspan270">62.5</tspan><tspan
           x="0 6.3895106 12.779021 15.973777"
           y="-91.312912"
           sodipodi:role="line"
           id="tspan272">65.0</tspan><tspan
           x="0 6.3895106 12.779021 15.973777"
           y="-136.96458"
           sodipodi:role="line"
           id="tspan274">67.5</tspan><tspan
           x="0 6.3895106 12.779021 15.973777"
           y="-182.62585"
           sodipodi:role="line"
           id="tspan276">70.0</tspan><tspan
           x="0 6.3895106 12.779021 15.973777"
           y="-228.27751"
           sodipodi:role="line"
           id="tspan278">72.5</tspan></text>
<g
         id="g282"><path
           d="m 37.094,241.457 h 2.433"
           style="fill:none;stroke:#333333;stroke-width:0.98716402;stroke-linecap:butt;stroke-linejoin:round;stroke-miterlimit:10;stroke-dasharray:none;stroke-opacity:1"
           id="path284"
           inkscape:connector-curvature="0" /></g><g
         id="g286"><path
           d="m 37.094,195.812 h 2.433"
           style="fill:none;stroke:#333333;stroke-width:0.98716402;stroke-linecap:butt;stroke-linejoin:round;stroke-miterlimit:10;stroke-dasharray:none;stroke-opacity:1"
           id="path288"
           inkscape:connector-curvature="0" /></g><g
         id="g290"><path
           d="m 37.094,150.148 h 2.433"
           style="fill:none;stroke:#333333;stroke-width:0.98716402;stroke-linecap:butt;stroke-linejoin:round;stroke-miterlimit:10;stroke-dasharray:none;stroke-opacity:1"
           id="path292"
           inkscape:connector-curvature="0" /></g><g
         id="g294"><path
           d="m 37.094,104.492 h 2.433"
           style="fill:none;stroke:#333333;stroke-width:0.98716402;stroke-linecap:butt;stroke-linejoin:round;stroke-miterlimit:10;stroke-dasharray:none;stroke-opacity:1"
           id="path296"
           inkscape:connector-curvature="0" /></g><g
         id="g298"><path
           d="m 37.094,58.844 h 2.433"
           style="fill:none;stroke:#333333;stroke-width:0.98716402;stroke-linecap:butt;stroke-linejoin:round;stroke-miterlimit:10;stroke-dasharray:none;stroke-opacity:1"
           id="path300"
           inkscape:connector-curvature="0" /></g><g
         id="g302"><path
           d="m 37.094,13.18 h 2.433"
           style="fill:none;stroke:#333333;stroke-width:0.98716402;stroke-linecap:butt;stroke-linejoin:round;stroke-miterlimit:10;stroke-dasharray:none;stroke-opacity:1"
           id="path304"
           inkscape:connector-curvature="0" /></g><g
         id="g306"><path
           d="M 367.262,269.574 V 0.492"
           style="fill:none;stroke:#ff0000;stroke-width:0.98716402;stroke-linecap:butt;stroke-linejoin:round;stroke-miterlimit:10;stroke-dasharray:none;stroke-opacity:1"
           id="path308"
           inkscape:connector-curvature="0" /></g><g
         id="g310"><path
           d="m 367.262,245.074 h 2.433"
           style="fill:none;stroke:#ff0000;stroke-width:0.98716402;stroke-linecap:butt;stroke-linejoin:round;stroke-miterlimit:10;stroke-dasharray:none;stroke-opacity:1"
           id="path312"
           inkscape:connector-curvature="0" /></g><g
         id="g314"><path
           d="m 367.262,190.656 h 2.433"
           style="fill:none;stroke:#ff0000;stroke-width:0.98716402;stroke-linecap:butt;stroke-linejoin:round;stroke-miterlimit:10;stroke-dasharray:none;stroke-opacity:1"
           id="path316"
           inkscape:connector-curvature="0" /></g><g
         id="g318"><path
           d="m 367.262,135.973 h 2.433"
           style="fill:none;stroke:#ff0000;stroke-width:0.98716402;stroke-linecap:butt;stroke-linejoin:round;stroke-miterlimit:10;stroke-dasharray:none;stroke-opacity:1"
           id="path320"
           inkscape:connector-curvature="0" /></g><g
         id="g322"><path
           d="m 367.262,81.57 h 2.433"
           style="fill:none;stroke:#ff0000;stroke-width:0.98716402;stroke-linecap:butt;stroke-linejoin:round;stroke-miterlimit:10;stroke-dasharray:none;stroke-opacity:1"
           id="path324"
           inkscape:connector-curvature="0" /></g><g
         id="g326"><path
           d="m 367.262,27.156 h 2.433"
           style="fill:none;stroke:#ff0000;stroke-width:0.98716402;stroke-linecap:butt;stroke-linejoin:round;stroke-miterlimit:10;stroke-dasharray:none;stroke-opacity:1"
           id="path328"
           inkscape:connector-curvature="0" /></g><text
         transform="matrix(0.92808533,0,0,1,371.64245,249.1903)"
         style="font-variant:normal;font-weight:normal;font-size:11.49192524px;font-family:'Nimbus Sans';-inkscape-font-specification:NimbusSans-Regular;writing-mode:lr-tb;fill:#ff0000;fill-opacity:1;fill-rule:nonzero;stroke:none"
         id="text340"><tspan
           x="0 6.3895102 9.5842657 15.973776"
           y="0"
           sodipodi:role="line"
           id="tspan330">0.05</tspan><tspan
           x="0 6.3895102 9.5842657 15.973776"
           y="-54.404671"
           sodipodi:role="line"
           id="tspan332">0.10</tspan><tspan
           x="0 6.3895102 9.5842657 15.973776"
           y="-109.08709"
           sodipodi:role="line"
           id="tspan334">0.15</tspan><tspan
           x="0 6.3895102 9.5842657 15.973776"
           y="-163.49176"
           sodipodi:role="line"
           id="tspan336">0.20</tspan><tspan
           x="0 6.3895102 9.5842657 15.973776"
           y="-217.90607"
           sodipodi:role="line"
           id="tspan338">0.25</tspan></text>
<g
         id="g342"><path
           d="m 132.832,272.199 v -2.625"
           style="fill:none;stroke:#333333;stroke-width:0.98716402;stroke-linecap:butt;stroke-linejoin:round;stroke-miterlimit:10;stroke-dasharray:none;stroke-opacity:1"
           id="path344"
           inkscape:connector-curvature="0" /></g><g
         id="g346"><path
           d="m 242.598,272.199 v -2.625"
           style="fill:none;stroke:#333333;stroke-width:0.98716402;stroke-linecap:butt;stroke-linejoin:round;stroke-miterlimit:10;stroke-dasharray:none;stroke-opacity:1"
           id="path348"
           inkscape:connector-curvature="0" /></g><g
         id="g350"><path
           d="m 352.355,272.199 v -2.625"
           style="fill:none;stroke:#333333;stroke-width:0.98716402;stroke-linecap:butt;stroke-linejoin:round;stroke-miterlimit:10;stroke-dasharray:none;stroke-opacity:1"
           id="path352"
           inkscape:connector-curvature="0" /></g><text
         transform="matrix(0.92808534,0,0,1,116.01739,282.55517)"
         style="font-variant:normal;font-weight:normal;font-size:11.49192619px;font-family:'Nimbus Sans';-inkscape-font-specification:NimbusSans-Regular;writing-mode:lr-tb;fill:#000000;fill-opacity:1;fill-rule:nonzero;stroke:none"
         id="text356"><tspan
           x="0 8.2971706 14.514302 20.260265 23.455021 29.844532 118.2749 126.57207 132.7892 138.53517 141.72992 148.11943 236.54214 244.83931 251.05644 256.8024 259.99716 266.38666"
           y="0"
           sodipodi:role="line"
           id="tspan354">Nov 16Nov 23Nov 30</tspan></text>
<text
         transform="matrix(0.9280853,0,0,1,190.25807,297.33189)"
         style="font-variant:normal;font-weight:normal;font-size:13.40724468px;font-family:'Nimbus Sans';-inkscape-font-specification:NimbusSans-Regular;writing-mode:lr-tb;fill:#000000;fill-opacity:1;fill-rule:nonzero;stroke:none"
         id="text360"><tspan
           x="0 9.6800308 17.134459 20.861673"
           y="0"
           sodipodi:role="line"
           id="tspan358">Date</tspan></text>
<text
         transform="matrix(0,-1,0.9280853,0,9.220313,225.33497)"
         style="font-variant:normal;font-weight:normal;font-size:13.40724468px;font-family:'Nimbus Sans';-inkscape-font-specification:NimbusSans-Regular;writing-mode:lr-tb;fill:#000000;fill-opacity:1;fill-rule:nonzero;stroke:none"
         id="text364"><tspan
           x="0 11.919041 15.646255 23.918526 31.372953 38.076576 41.052982 44.780197 47.756607 54.12505 61.579475 65.306694 74.249321 85.417557 92.871986 96.599197 99.575607 107.03004 114.48447 121.18809 124.9153 127.89171 135.34615 139.07335 148.01599 155.47041 160.33725 166.70569 173.89197"
           y="0"
           sodipodi:role="line"
           id="tspan362">% Positive Emotions in Survey</tspan></text>
<g
         id="g366"><g
           id="g368" /><g
           id="g382"><g
             clip-path="url(#clipPath372)"
             id="g380"
             style="opacity:0.95"><g
               id="g378"><g
                 transform="scale(1,-1)"
                 id="g376"><path
                   d="M 53.402,-48.812 H 68.961"
                   style="fill:none;stroke:#ff0c0c;stroke-width:2.64376211;stroke-linecap:butt;stroke-linejoin:round;stroke-miterlimit:10;stroke-dasharray:none;stroke-opacity:1"
                   id="path374"
                   inkscape:connector-curvature="0" /></g></g></g></g></g><g
         id="g384"><g
           id="g386" /><g
           id="g400"><g
             clip-path="url(#clipPath390)"
             id="g398"
             style="opacity:0.95"><g
               id="g396"><g
                 transform="scale(1,-1)"
                 id="g394"><path
                   d="m 58.387,-48.812 c 0,1.539 1.258,2.808 2.801,2.808 1.539,0 2.789,-1.269 2.789,-2.808 0,-1.536 -1.25,-2.801 -2.789,-2.801 -1.543,0 -2.801,1.265 -2.801,2.801"
                   style="fill:#ff0c0c;fill-opacity:1;fill-rule:nonzero;stroke:#ff0c0c;stroke-width:0.79875398;stroke-linecap:round;stroke-linejoin:round;stroke-miterlimit:10;stroke-dasharray:none;stroke-opacity:1"
                   id="path392"
                   inkscape:connector-curvature="0" /></g></g></g></g></g><g
         id="g402"><g
           id="g404" /><g
           id="g418"><g
             clip-path="url(#clipPath408)"
             id="g416"
             style="opacity:0.95"><g
               id="g414"><text
                 transform="translate(77.072285,52.443884)"
                 style="font-variant:normal;font-weight:normal;font-size:10.12504578px;font-family:'Nimbus Sans';-inkscape-font-specification:NimbusSans-Regular;writing-mode:lr-tb;fill:#000000;fill-opacity:1;fill-rule:nonzero;stroke:none"
                 id="text412"><tspan
                   x="0 7.2799082 12.909433 16.331699 21.363848 24.17861 29.808136 35.43766 41.006435 46.635963 50.007603 55.637127 58.451889 63.686539 69.022438 74.084961"
                   y="0"
                   sodipodi:role="line"
                   id="tspan410">Derstandard Text</tspan></text>
</g></g></g></g><g
         id="g420"><path
           d="M 53.402,63.191 H 68.961"
           style="fill:none;stroke:#0000ff;stroke-width:2.64376211;stroke-linecap:butt;stroke-linejoin:round;stroke-miterlimit:10;stroke-dasharray:none;stroke-opacity:1"
           id="path422"
           inkscape:connector-curvature="0" /></g><g
         id="g424"><path
           d="m 58.387,63.191 c 0,-1.543 1.258,-2.808 2.801,-2.808 1.539,0 2.789,1.265 2.789,2.808 0,1.539 -1.25,2.797 -2.789,2.797 -1.543,0 -2.801,-1.258 -2.801,-2.797"
           style="fill:#0000ff;fill-opacity:1;fill-rule:nonzero;stroke:#0000ff;stroke-width:0.79875398;stroke-linecap:round;stroke-linejoin:round;stroke-miterlimit:10;stroke-dasharray:none;stroke-opacity:1"
           id="path426"
           inkscape:connector-curvature="0" /></g><text
         transform="translate(77.072284,66.821425)"
         style="font-variant:normal;font-weight:normal;font-size:10.12504578px;font-family:'Nimbus Sans';-inkscape-font-specification:NimbusSans-Regular;writing-mode:lr-tb;fill:#000000;fill-opacity:1;fill-rule:nonzero;stroke:none"
         id="text430"><tspan
           x="0 6.7534056 12.382932 16.038073 20.898094 26.314995"
           y="0"
           sodipodi:role="line"
           id="tspan428">Survey</tspan></text>
<g
         id="g432"><g
           id="g434" /><g
           id="g448"><g
             clip-path="url(#clipPath438)"
             id="g446"
             style="opacity:0.95"><g
               id="g444"><g
                 transform="scale(1,-1)"
                 id="g442"><path
                   d="M 53.402,-48.812 H 68.961"
                   style="fill:none;stroke:#ff0c0c;stroke-width:2.64376211;stroke-linecap:butt;stroke-linejoin:round;stroke-miterlimit:10;stroke-dasharray:none;stroke-opacity:1"
                   id="path440"
                   inkscape:connector-curvature="0" /></g></g></g></g></g><g
         id="g450"><g
           id="g452" /><g
           id="g466"><g
             clip-path="url(#clipPath456)"
             id="g464"
             style="opacity:0.95"><g
               id="g462"><g
                 transform="scale(1,-1)"
                 id="g460"><path
                   d="m 58.387,-48.812 c 0,1.539 1.258,2.808 2.801,2.808 1.539,0 2.789,-1.269 2.789,-2.808 0,-1.536 -1.25,-2.801 -2.789,-2.801 -1.543,0 -2.801,1.265 -2.801,2.801"
                   style="fill:#ff0c0c;fill-opacity:1;fill-rule:nonzero;stroke:#ff0c0c;stroke-width:0.79875398;stroke-linecap:round;stroke-linejoin:round;stroke-miterlimit:10;stroke-dasharray:none;stroke-opacity:1"
                   id="path458"
                   inkscape:connector-curvature="0" /></g></g></g></g></g><g
         id="g468"><g
           id="g470" /><g
           id="g484"><g
             clip-path="url(#clipPath474)"
             id="g482"
             style="opacity:0.95"><g
               id="g480"><text
                 transform="translate(77.072285,52.443884)"
                 style="font-variant:normal;font-weight:normal;font-size:10.12504578px;font-family:'Nimbus Sans';-inkscape-font-specification:NimbusSans-Regular;writing-mode:lr-tb;fill:#000000;fill-opacity:1;fill-rule:nonzero;stroke:none"
                 id="text478"><tspan
                   x="0 7.2799082 12.909433 16.331699 21.363848 24.17861 29.808136 35.43766 41.006435 46.635963 50.007603 55.637127 58.451889 63.686539 69.022438 74.084961"
                   y="0"
                   sodipodi:role="line"
                   id="tspan476">Derstandard Text</tspan></text>
</g></g></g></g><g
         id="g486"><path
           d="M 53.402,63.191 H 68.961"
           style="fill:none;stroke:#0000ff;stroke-width:2.64376211;stroke-linecap:butt;stroke-linejoin:round;stroke-miterlimit:10;stroke-dasharray:none;stroke-opacity:1"
           id="path488"
           inkscape:connector-curvature="0" /></g><g
         id="g490"><path
           d="m 58.387,63.191 c 0,-1.543 1.258,-2.808 2.801,-2.808 1.539,0 2.789,1.265 2.789,2.808 0,1.539 -1.25,2.797 -2.789,2.797 -1.543,0 -2.801,-1.258 -2.801,-2.797"
           style="fill:#0000ff;fill-opacity:1;fill-rule:nonzero;stroke:#0000ff;stroke-width:0.79875398;stroke-linecap:round;stroke-linejoin:round;stroke-miterlimit:10;stroke-dasharray:none;stroke-opacity:1"
           id="path492"
           inkscape:connector-curvature="0" /></g><text
         transform="translate(77.072284,66.821425)"
         style="font-variant:normal;font-weight:normal;font-size:10.12504578px;font-family:'Nimbus Sans';-inkscape-font-specification:NimbusSans-Regular;writing-mode:lr-tb;fill:#000000;fill-opacity:1;fill-rule:nonzero;stroke:none"
         id="text496"><tspan
           x="0 6.7534056 12.382932 16.038073 20.898094 26.314995"
           y="0"
           sodipodi:role="line"
           id="tspan494">Survey</tspan></text>
<g
         id="g498"><path
           d="m 301.906,6.617 h 58.309 v 16.406 h -58.309 z"
           style="fill:#ffffff;fill-opacity:1;fill-rule:nonzero;stroke:#333333;stroke-width:0.68835402;stroke-linecap:round;stroke-linejoin:round;stroke-miterlimit:10;stroke-dasharray:none;stroke-opacity:1"
           id="path500"
           inkscape:connector-curvature="0" /></g><text
         transform="translate(306.01354,20.271471)"
         style="font-variant:normal;font-weight:normal;font-size:16.1301384px;font-family:'Nimbus Sans';-inkscape-font-specification:NimbusSans-Regular;writing-mode:lr-tb;fill:#000000;fill-opacity:1;fill-rule:nonzero;stroke:none"
         id="text504"><tspan
           x="0 5.371336 20.162672 29.131029 33.615208 42.583565"
           y="0"
           sodipodi:role="line"
           id="tspan502">r=0.93</tspan></text>
</g></g></svg>