<?xml version="1.0" encoding="UTF-8" standalone="no"?>
<!-- Created with Inkscape (http://www.inkscape.org/) -->

<svg
   xmlns:dc="http://purl.org/dc/elements/1.1/"
   xmlns:cc="http://creativecommons.org/ns#"
   xmlns:rdf="http://www.w3.org/1999/02/22-rdf-syntax-ns#"
   xmlns:svg="http://www.w3.org/2000/svg"
   xmlns="http://www.w3.org/2000/svg"
   xmlns:sodipodi="http://sodipodi.sourceforge.net/DTD/sodipodi-0.dtd"
   xmlns:inkscape="http://www.inkscape.org/namespaces/inkscape"
   version="1.1"
   id="svg2"
   xml:space="preserve"
   width="537.51202"
   height="244.06377"
   viewBox="0 0 537.51202 244.06377"
   sodipodi:docname="DS31.svg"
   inkscape:version="0.92.5 (2060ec1f9f, 2020-04-08)"><metadata
     id="metadata8"><rdf:RDF><cc:Work
         rdf:about=""><dc:format>image/svg+xml</dc:format><dc:type
           rdf:resource="http://purl.org/dc/dcmitype/StillImage" /><dc:title></dc:title></cc:Work></rdf:RDF></metadata><defs
     id="defs6" /><sodipodi:namedview
     pagecolor="#ffffff"
     bordercolor="#666666"
     borderopacity="1"
     objecttolerance="10"
     gridtolerance="10"
     guidetolerance="10"
     inkscape:pageopacity="0"
     inkscape:pageshadow="2"
     inkscape:window-width="2560"
     inkscape:window-height="1305"
     id="namedview4"
     showgrid="false"
     inkscape:zoom="0.87625947"
     inkscape:cx="268.75601"
     inkscape:cy="122.03188"
     inkscape:window-x="2560"
     inkscape:window-y="0"
     inkscape:window-maximized="1"
     inkscape:current-layer="g10" /><g
     id="g10"
     inkscape:groupmode="layer"
     inkscape:label="DS31"
     transform="matrix(1.3333333,0,0,1.3333333,0,4.7682607e-6)"><g
       id="g12"><g
         id="g14"><path
           d="m 47.812,0.535 h 350.301 v 150.48 H 47.812 Z"
           style="fill:#ffffff;fill-opacity:1;fill-rule:nonzero;stroke:#000000;stroke-width:1.07000005;stroke-linecap:round;stroke-linejoin:round;stroke-miterlimit:10;stroke-dasharray:none;stroke-opacity:1"
           id="path16"
           inkscape:connector-curvature="0" /></g><g
         id="g18"><path
           d="M 47.812,139.137 H 398.113"
           style="fill:none;stroke:#e5e5e5;stroke-width:1.07000005;stroke-linecap:butt;stroke-linejoin:round;stroke-miterlimit:10;stroke-dasharray:none;stroke-opacity:1"
           id="path20"
           inkscape:connector-curvature="0" /></g><g
         id="g22"><path
           d="M 47.812,99.125 H 398.113"
           style="fill:none;stroke:#e5e5e5;stroke-width:1.07000005;stroke-linecap:butt;stroke-linejoin:round;stroke-miterlimit:10;stroke-dasharray:none;stroke-opacity:1"
           id="path24"
           inkscape:connector-curvature="0" /></g><g
         id="g26"><path
           d="M 47.812,59.117 H 398.113"
           style="fill:none;stroke:#e5e5e5;stroke-width:1.07000005;stroke-linecap:butt;stroke-linejoin:round;stroke-miterlimit:10;stroke-dasharray:none;stroke-opacity:1"
           id="path28"
           inkscape:connector-curvature="0" /></g><g
         id="g30"><path
           d="M 47.812,19.094 H 398.113"
           style="fill:none;stroke:#e5e5e5;stroke-width:1.07000005;stroke-linecap:butt;stroke-linejoin:round;stroke-miterlimit:10;stroke-dasharray:none;stroke-opacity:1"
           id="path32"
           inkscape:connector-curvature="0" /></g><g
         id="g34"><path
           d="M 107.703,151.016 V 0.535"
           style="fill:none;stroke:#e5e5e5;stroke-width:1.07000005;stroke-linecap:butt;stroke-linejoin:round;stroke-miterlimit:10;stroke-dasharray:none;stroke-opacity:1"
           id="path36"
           inkscape:connector-curvature="0" /></g><g
         id="g38"><path
           d="M 188.934,151.016 V 0.535"
           style="fill:none;stroke:#e5e5e5;stroke-width:1.07000005;stroke-linecap:butt;stroke-linejoin:round;stroke-miterlimit:10;stroke-dasharray:none;stroke-opacity:1"
           id="path40"
           inkscape:connector-curvature="0" /></g><g
         id="g42"><path
           d="M 270.152,151.016 V 0.535"
           style="fill:none;stroke:#e5e5e5;stroke-width:1.07000005;stroke-linecap:butt;stroke-linejoin:round;stroke-miterlimit:10;stroke-dasharray:none;stroke-opacity:1"
           id="path44"
           inkscape:connector-curvature="0" /></g><g
         id="g46"><path
           d="M 351.383,151.016 V 0.535"
           style="fill:none;stroke:#e5e5e5;stroke-width:1.07000005;stroke-linecap:butt;stroke-linejoin:round;stroke-miterlimit:10;stroke-dasharray:none;stroke-opacity:1"
           id="path48"
           inkscape:connector-curvature="0" /></g><g
         id="g50"><path
           d="M 47.812,119.125 H 398.113"
           style="fill:none;stroke:#e5e5e5;stroke-width:1.07000005;stroke-linecap:butt;stroke-linejoin:round;stroke-miterlimit:10;stroke-dasharray:none;stroke-opacity:1"
           id="path52"
           inkscape:connector-curvature="0" /></g><g
         id="g54"><path
           d="M 47.812,79.117 H 398.113"
           style="fill:none;stroke:#e5e5e5;stroke-width:1.07000005;stroke-linecap:butt;stroke-linejoin:round;stroke-miterlimit:10;stroke-dasharray:none;stroke-opacity:1"
           id="path56"
           inkscape:connector-curvature="0" /></g><g
         id="g58"><path
           d="M 47.812,39.105 H 398.113"
           style="fill:none;stroke:#e5e5e5;stroke-width:1.07000005;stroke-linecap:butt;stroke-linejoin:round;stroke-miterlimit:10;stroke-dasharray:none;stroke-opacity:1"
           id="path60"
           inkscape:connector-curvature="0" /></g><g
         id="g62"><path
           d="M 67.094,151.016 V 0.535"
           style="fill:none;stroke:#e5e5e5;stroke-width:1.07000005;stroke-linecap:butt;stroke-linejoin:round;stroke-miterlimit:10;stroke-dasharray:none;stroke-opacity:1"
           id="path64"
           inkscape:connector-curvature="0" /></g><g
         id="g66"><path
           d="M 148.312,151.016 V 0.535"
           style="fill:none;stroke:#e5e5e5;stroke-width:1.07000005;stroke-linecap:butt;stroke-linejoin:round;stroke-miterlimit:10;stroke-dasharray:none;stroke-opacity:1"
           id="path68"
           inkscape:connector-curvature="0" /></g><g
         id="g70"><path
           d="M 229.543,151.016 V 0.535"
           style="fill:none;stroke:#e5e5e5;stroke-width:1.07000005;stroke-linecap:butt;stroke-linejoin:round;stroke-miterlimit:10;stroke-dasharray:none;stroke-opacity:1"
           id="path72"
           inkscape:connector-curvature="0" /></g><g
         id="g74"><path
           d="M 310.773,151.016 V 0.535"
           style="fill:none;stroke:#e5e5e5;stroke-width:1.07000005;stroke-linecap:butt;stroke-linejoin:round;stroke-miterlimit:10;stroke-dasharray:none;stroke-opacity:1"
           id="path76"
           inkscape:connector-curvature="0" /></g><g
         id="g78"><path
           d="M 391.992,151.016 V 0.535"
           style="fill:none;stroke:#e5e5e5;stroke-width:1.07000005;stroke-linecap:butt;stroke-linejoin:round;stroke-miterlimit:10;stroke-dasharray:none;stroke-opacity:1"
           id="path80"
           inkscape:connector-curvature="0" /></g><g
         id="g82"><path
           d="m 188.043,48.824 c 0,-1.07 0.879,-1.949 1.949,-1.949 1.082,0 1.961,0.879 1.961,1.949 0,1.082 -0.879,1.961 -1.961,1.961 -1.07,0 -1.949,-0.879 -1.949,-1.961"
           style="fill:#000000;fill-opacity:1;fill-rule:nonzero;stroke:#000000;stroke-width:0.70999998;stroke-linecap:round;stroke-linejoin:round;stroke-miterlimit:10;stroke-dasharray:none;stroke-opacity:1"
           id="path84"
           inkscape:connector-curvature="0" /></g><g
         id="g86"><path
           d="m 134.574,13.855 c 0,-1.07 0.879,-1.949 1.949,-1.949 1.082,0 1.961,0.879 1.961,1.949 0,1.079 -0.879,1.961 -1.961,1.961 -1.07,0 -1.949,-0.882 -1.949,-1.961"
           style="fill:#000000;fill-opacity:1;fill-rule:nonzero;stroke:#000000;stroke-width:0.70999998;stroke-linecap:round;stroke-linejoin:round;stroke-miterlimit:10;stroke-dasharray:none;stroke-opacity:1"
           id="path88"
           inkscape:connector-curvature="0" /></g><g
         id="g90"><path
           d="m 82.402,7.375 c 0,-1.078 0.883,-1.961 1.961,-1.961 1.071,0 1.949,0.883 1.949,1.961 0,1.07 -0.878,1.949 -1.949,1.949 -1.078,0 -1.961,-0.879 -1.961,-1.949"
           style="fill:#000000;fill-opacity:1;fill-rule:nonzero;stroke:#000000;stroke-width:0.70999998;stroke-linecap:round;stroke-linejoin:round;stroke-miterlimit:10;stroke-dasharray:none;stroke-opacity:1"
           id="path92"
           inkscape:connector-curvature="0" /></g><g
         id="g94"><path
           d="m 61.785,57.844 c 0,-1.067 0.879,-1.949 1.949,-1.949 1.078,0 1.961,0.882 1.961,1.949 0,1.082 -0.883,1.961 -1.961,1.961 -1.07,0 -1.949,-0.879 -1.949,-1.961"
           style="fill:#000000;fill-opacity:1;fill-rule:nonzero;stroke:#000000;stroke-width:0.70999998;stroke-linecap:round;stroke-linejoin:round;stroke-miterlimit:10;stroke-dasharray:none;stroke-opacity:1"
           id="path96"
           inkscape:connector-curvature="0" /></g><g
         id="g98"><path
           d="m 90.914,85.816 c 0,-1.07 0.879,-1.949 1.949,-1.949 1.082,0 1.961,0.879 1.961,1.949 0,1.079 -0.879,1.961 -1.961,1.961 -1.07,0 -1.949,-0.882 -1.949,-1.961"
           style="fill:#000000;fill-opacity:1;fill-rule:nonzero;stroke:#000000;stroke-width:0.70999998;stroke-linecap:round;stroke-linejoin:round;stroke-miterlimit:10;stroke-dasharray:none;stroke-opacity:1"
           id="path100"
           inkscape:connector-curvature="0" /></g><g
         id="g102"><path
           d="m 164.223,105.984 c 0,-1.078 0.882,-1.957 1.949,-1.957 1.082,0 1.961,0.879 1.961,1.957 0,1.071 -0.879,1.95 -1.961,1.95 -1.067,0 -1.949,-0.879 -1.949,-1.95"
           style="fill:#000000;fill-opacity:1;fill-rule:nonzero;stroke:#000000;stroke-width:0.70999998;stroke-linecap:round;stroke-linejoin:round;stroke-miterlimit:10;stroke-dasharray:none;stroke-opacity:1"
           id="path104"
           inkscape:connector-curvature="0" /></g><g
         id="g106"><path
           d="m 175.133,79.434 c 0,-1.067 0.883,-1.95 1.949,-1.95 1.082,0 1.961,0.883 1.961,1.95 0,1.082 -0.879,1.961 -1.961,1.961 -1.066,0 -1.949,-0.879 -1.949,-1.961"
           style="fill:#000000;fill-opacity:1;fill-rule:nonzero;stroke:#000000;stroke-width:0.70999998;stroke-linecap:round;stroke-linejoin:round;stroke-miterlimit:10;stroke-dasharray:none;stroke-opacity:1"
           id="path108"
           inkscape:connector-curvature="0" /></g><g
         id="g110"><path
           d="m 209.266,57.285 c 0,-1.07 0.879,-1.949 1.949,-1.949 1.078,0 1.957,0.879 1.957,1.949 0,1.082 -0.879,1.961 -1.957,1.961 -1.07,0 -1.949,-0.879 -1.949,-1.961"
           style="fill:#000000;fill-opacity:1;fill-rule:nonzero;stroke:#000000;stroke-width:0.70999998;stroke-linecap:round;stroke-linejoin:round;stroke-miterlimit:10;stroke-dasharray:none;stroke-opacity:1"
           id="path112"
           inkscape:connector-curvature="0" /></g><g
         id="g114"><path
           d="m 213.633,59.215 c 0,-1.078 0.883,-1.961 1.949,-1.961 1.082,0 1.961,0.883 1.961,1.961 0,1.07 -0.879,1.949 -1.961,1.949 -1.066,0 -1.949,-0.879 -1.949,-1.949"
           style="fill:#000000;fill-opacity:1;fill-rule:nonzero;stroke:#000000;stroke-width:0.70999998;stroke-linecap:round;stroke-linejoin:round;stroke-miterlimit:10;stroke-dasharray:none;stroke-opacity:1"
           id="path116"
           inkscape:connector-curvature="0" /></g><g
         id="g118"><path
           d="m 225.016,65.754 c 0,-1.078 0.879,-1.957 1.957,-1.957 1.07,0 1.949,0.879 1.949,1.957 0,1.07 -0.879,1.953 -1.949,1.953 -1.078,0 -1.957,-0.883 -1.957,-1.953"
           style="fill:#000000;fill-opacity:1;fill-rule:nonzero;stroke:#000000;stroke-width:0.70999998;stroke-linecap:round;stroke-linejoin:round;stroke-miterlimit:10;stroke-dasharray:none;stroke-opacity:1"
           id="path120"
           inkscape:connector-curvature="0" /></g><g
         id="g122"><path
           d="m 332.383,66.895 c 0,-1.079 0.883,-1.961 1.949,-1.961 1.082,0 1.961,0.882 1.961,1.961 0,1.07 -0.879,1.949 -1.961,1.949 -1.066,0 -1.949,-0.879 -1.949,-1.949"
           style="fill:#000000;fill-opacity:1;fill-rule:nonzero;stroke:#000000;stroke-width:0.70999998;stroke-linecap:round;stroke-linejoin:round;stroke-miterlimit:10;stroke-dasharray:none;stroke-opacity:1"
           id="path124"
           inkscape:connector-curvature="0" /></g><g
         id="g126"><path
           d="m 380.234,94.605 c 0,-1.078 0.879,-1.96 1.961,-1.96 1.071,0 1.95,0.882 1.95,1.96 0,1.071 -0.879,1.95 -1.95,1.95 -1.082,0 -1.961,-0.879 -1.961,-1.95"
           style="fill:#000000;fill-opacity:1;fill-rule:nonzero;stroke:#000000;stroke-width:0.70999998;stroke-linecap:round;stroke-linejoin:round;stroke-miterlimit:10;stroke-dasharray:none;stroke-opacity:1"
           id="path128"
           inkscape:connector-curvature="0" /></g><g
         id="g130"><path
           d="m 333.305,136.234 c 0,-1.078 0.879,-1.957 1.961,-1.957 1.066,0 1.949,0.879 1.949,1.957 0,1.071 -0.883,1.95 -1.949,1.95 -1.082,0 -1.961,-0.879 -1.961,-1.95"
           style="fill:#000000;fill-opacity:1;fill-rule:nonzero;stroke:#000000;stroke-width:0.70999998;stroke-linecap:round;stroke-linejoin:round;stroke-miterlimit:10;stroke-dasharray:none;stroke-opacity:1"
           id="path132"
           inkscape:connector-curvature="0" /></g><g
         id="g134"><path
           d="m 195.203,111.586 c 0,-1.07 0.879,-1.949 1.949,-1.949 1.082,0 1.961,0.879 1.961,1.949 0,1.078 -0.879,1.961 -1.961,1.961 -1.07,0 -1.949,-0.883 -1.949,-1.961"
           style="fill:#000000;fill-opacity:1;fill-rule:nonzero;stroke:#000000;stroke-width:0.70999998;stroke-linecap:round;stroke-linejoin:round;stroke-miterlimit:10;stroke-dasharray:none;stroke-opacity:1"
           id="path136"
           inkscape:connector-curvature="0" /></g><g
         id="g138"><path
           d="m 175.965,83.074 c 0,-1.07 0.879,-1.949 1.949,-1.949 1.078,0 1.961,0.879 1.961,1.949 0,1.082 -0.883,1.961 -1.961,1.961 -1.07,0 -1.949,-0.879 -1.949,-1.961"
           style="fill:#000000;fill-opacity:1;fill-rule:nonzero;stroke:#000000;stroke-width:0.70999998;stroke-linecap:round;stroke-linejoin:round;stroke-miterlimit:10;stroke-dasharray:none;stroke-opacity:1"
           id="path140"
           inkscape:connector-curvature="0" /></g><g
         id="g142"><path
           d="m 156.266,88.594 c 0,-1.067 0.879,-1.949 1.957,-1.949 1.07,0 1.949,0.882 1.949,1.949 0,1.082 -0.879,1.961 -1.949,1.961 -1.078,0 -1.957,-0.879 -1.957,-1.961"
           style="fill:#000000;fill-opacity:1;fill-rule:nonzero;stroke:#000000;stroke-width:0.70999998;stroke-linecap:round;stroke-linejoin:round;stroke-miterlimit:10;stroke-dasharray:none;stroke-opacity:1"
           id="path144"
           inkscape:connector-curvature="0" /></g><g
         id="g146"><path
           d="m 190.484,100.047 c 0,-1.082 0.879,-1.961 1.961,-1.961 1.071,0 1.95,0.879 1.95,1.961 0,1.07 -0.879,1.949 -1.95,1.949 -1.082,0 -1.961,-0.879 -1.961,-1.949"
           style="fill:#000000;fill-opacity:1;fill-rule:nonzero;stroke:#000000;stroke-width:0.70999998;stroke-linecap:round;stroke-linejoin:round;stroke-miterlimit:10;stroke-dasharray:none;stroke-opacity:1"
           id="path148"
           inkscape:connector-curvature="0" /></g><g
         id="g150"><path
           d="m 219.855,105.746 c 0,-1.082 0.879,-1.961 1.95,-1.961 1.078,0 1.961,0.879 1.961,1.961 0,1.07 -0.883,1.949 -1.961,1.949 -1.071,0 -1.95,-0.879 -1.95,-1.949"
           style="fill:#000000;fill-opacity:1;fill-rule:nonzero;stroke:#000000;stroke-width:0.70999998;stroke-linecap:round;stroke-linejoin:round;stroke-miterlimit:10;stroke-dasharray:none;stroke-opacity:1"
           id="path152"
           inkscape:connector-curvature="0" /></g><g
         id="g154"><path
           d="m 306.555,118.184 c 0,-1.067 0.867,-1.95 1.949,-1.95 1.078,0 1.949,0.883 1.949,1.95 0,1.082 -0.871,1.961 -1.949,1.961 -1.082,0 -1.949,-0.879 -1.949,-1.961"
           style="fill:#000000;fill-opacity:1;fill-rule:nonzero;stroke:#000000;stroke-width:0.70999998;stroke-linecap:round;stroke-linejoin:round;stroke-miterlimit:10;stroke-dasharray:none;stroke-opacity:1"
           id="path156"
           inkscape:connector-curvature="0" /></g><g
         id="g158"><path
           d="m 281.504,144.176 c 0,-1.071 0.879,-1.949 1.949,-1.949 1.082,0 1.961,0.878 1.961,1.949 0,1.078 -0.879,1.961 -1.961,1.961 -1.07,0 -1.949,-0.883 -1.949,-1.961"
           style="fill:#000000;fill-opacity:1;fill-rule:nonzero;stroke:#000000;stroke-width:0.70999998;stroke-linecap:round;stroke-linejoin:round;stroke-miterlimit:10;stroke-dasharray:none;stroke-opacity:1"
           id="path160"
           inkscape:connector-curvature="0" /></g><g
         id="g162"><path
           d="m 63.734,49.527 4.032,0.899 4.039,0.89 4.027,0.899 4.031,0.89 4.032,0.899 4.027,0.891 4.031,0.902 4.031,0.887 4.032,0.902 4.027,0.898 4.039,0.891 4.031,0.902 4.032,0.887 4.027,0.902 4.031,0.891 4.031,0.898 4.032,0.891 4.027,0.899 4.031,0.89 4.031,0.899 4.04,0.902 4.027,0.891 4.031,0.898 4.031,0.891 4.032,0.898 4.027,0.891 4.031,0.902 4.031,0.887 4.028,0.902 4.039,0.899 4.031,0.89 4.031,0.899 4.032,0.89 4.027,0.903 4.031,0.89 4.031,0.899 4.028,0.89 4.031,0.899 4.039,0.902 4.031,0.887 4.032,0.902 4.027,0.891 4.031,0.898 4.031,0.891 4.028,0.898 4.031,0.891 4.031,0.902 4.028,0.899 4.043,0.89 4.027,0.899 4.031,0.89 4.031,0.899 4.028,0.89 4.031,0.903 4.031,0.89 4.028,0.899 4.031,0.89 4.039,0.899 4.031,0.902 4.031,0.887 4.028,0.902 4.031,0.891 4.031,0.898 4.028,0.891 4.031,0.898 4.031,0.891 4.039,0.902 4.031,0.899 4.028,0.89 4.031,0.899 4.031,0.89 4.028,0.899 4.031,0.891 4.031,0.902 4.027,0.887 4.032,0.902 4.039,0.898 4.031,0.891 4.031,0.902"
           style="fill:none;stroke:#a9a9a9;stroke-width:2.13000011;stroke-linecap:butt;stroke-linejoin:round;stroke-miterlimit:10;stroke-dasharray:none;stroke-opacity:1"
           id="path164"
           inkscape:connector-curvature="0" /></g><g
         id="g166"><path
           d="m 47.812,0.535 h 350.301 v 150.48 H 47.812 Z"
           style="fill:none;stroke:#333333;stroke-width:1.07000005;stroke-linecap:round;stroke-linejoin:round;stroke-miterlimit:10;stroke-dasharray:none;stroke-opacity:1"
           id="path168"
           inkscape:connector-curvature="0" /></g><text
         transform="translate(16.194,123.43583)"
         style="font-variant:normal;font-weight:normal;font-size:12px;font-family:'Nimbus Sans';-inkscape-font-specification:NimbusSans-Regular;writing-mode:lr-tb;fill:#000000;fill-opacity:1;fill-rule:nonzero;stroke:none"
         id="text176"><tspan
           x="0 6.6719999 13.344 20.016001"
           y="0"
           sodipodi:role="line"
           id="tspan170">4000</tspan><tspan
           x="0 6.6719999 13.344 20.016001"
           y="-40.010002"
           sodipodi:role="line"
           id="tspan172">6000</tspan><tspan
           x="0 6.6719999 13.344 20.016001"
           y="-80.020004"
           sodipodi:role="line"
           id="tspan174">8000</tspan></text>
<g
         id="g178"><path
           d="m 45.074,119.125 h 2.738"
           style="fill:none;stroke:#333333;stroke-width:1.07000005;stroke-linecap:butt;stroke-linejoin:round;stroke-miterlimit:10;stroke-dasharray:none;stroke-opacity:1"
           id="path180"
           inkscape:connector-curvature="0" /></g><g
         id="g182"><path
           d="m 45.074,79.117 h 2.738"
           style="fill:none;stroke:#333333;stroke-width:1.07000005;stroke-linecap:butt;stroke-linejoin:round;stroke-miterlimit:10;stroke-dasharray:none;stroke-opacity:1"
           id="path184"
           inkscape:connector-curvature="0" /></g><g
         id="g186"><path
           d="m 45.074,39.105 h 2.738"
           style="fill:none;stroke:#333333;stroke-width:1.07000005;stroke-linecap:butt;stroke-linejoin:round;stroke-miterlimit:10;stroke-dasharray:none;stroke-opacity:1"
           id="path188"
           inkscape:connector-curvature="0" /></g><g
         id="g190"><path
           d="m 67.094,153.754 v -2.738"
           style="fill:none;stroke:#333333;stroke-width:1.07000005;stroke-linecap:butt;stroke-linejoin:round;stroke-miterlimit:10;stroke-dasharray:none;stroke-opacity:1"
           id="path192"
           inkscape:connector-curvature="0" /></g><g
         id="g194"><path
           d="m 148.312,153.754 v -2.738"
           style="fill:none;stroke:#333333;stroke-width:1.07000005;stroke-linecap:butt;stroke-linejoin:round;stroke-miterlimit:10;stroke-dasharray:none;stroke-opacity:1"
           id="path196"
           inkscape:connector-curvature="0" /></g><g
         id="g198"><path
           d="m 229.543,153.754 v -2.738"
           style="fill:none;stroke:#333333;stroke-width:1.07000005;stroke-linecap:butt;stroke-linejoin:round;stroke-miterlimit:10;stroke-dasharray:none;stroke-opacity:1"
           id="path200"
           inkscape:connector-curvature="0" /></g><g
         id="g202"><path
           d="m 310.773,153.754 v -2.738"
           style="fill:none;stroke:#333333;stroke-width:1.07000005;stroke-linecap:butt;stroke-linejoin:round;stroke-miterlimit:10;stroke-dasharray:none;stroke-opacity:1"
           id="path204"
           inkscape:connector-curvature="0" /></g><g
         id="g206"><path
           d="m 391.992,153.754 v -2.738"
           style="fill:none;stroke:#333333;stroke-width:1.07000005;stroke-linecap:butt;stroke-linejoin:round;stroke-miterlimit:10;stroke-dasharray:none;stroke-opacity:1"
           id="path208"
           inkscape:connector-curvature="0" /></g><text
         transform="translate(55.413997,164.56582)"
         style="font-variant:normal;font-weight:normal;font-size:12px;font-family:'Nimbus Sans';-inkscape-font-specification:NimbusSans-Regular;writing-mode:lr-tb;fill:#000000;fill-opacity:1;fill-rule:nonzero;stroke:none"
         id="text212"><tspan
           x="0 6.6719999 10.008 16.68 81.227997 87.900002 91.236 97.907997 162.45599 169.12801 172.464 179.136 243.67999 250.35199 253.68799 260.35999 324.90799 331.57999 334.91599 341.58798"
           y="0"
           sodipodi:role="line"
           id="tspan210">0.600.630.660.690.72</tspan></text>
<text
         transform="translate(125.664,179.99583)"
         style="font-variant:normal;font-weight:normal;font-size:14px;font-family:'Nimbus Sans';-inkscape-font-specification:NimbusSans-Regular;writing-mode:lr-tb;fill:#000000;fill-opacity:1;fill-rule:nonzero;stroke:none"
         id="text216"><tspan
           x="0 9.3380003 14 21.784 29.568001 37.352001 42.574001 46.466 49.574001 57.358002 65.141998 69.033997 76.818001 80.709999 84.601997 93.239998 101.024 108.024 111.132 115.024 118.132 124.782 132.56599 136.45799 139.56599 147.35001 151.242 160.58 168.364 173.446 180.09599 187.60001"
           y="0"
           sodipodi:role="line"
           id="tspan214">Proportion of Positive in Survey</tspan></text>
<text
         transform="rotate(-90,78.71492,68.34092)"
         style="font-variant:normal;font-weight:normal;font-size:14px;font-family:'Nimbus Sans';-inkscape-font-specification:NimbusSans-Regular;writing-mode:lr-tb;fill:#000000;fill-opacity:1;fill-rule:nonzero;stroke:none"
         id="text220"><tspan
           x="0 10.108 17.612 27.719999 31.612 41.720001 51.911999 61.25 65.141998"
           y="0"
           sodipodi:role="line"
           id="tspan218">New COVID</tspan></text>
<text
         transform="rotate(-90,41.08992,30.71592)"
         style="font-variant:normal;font-weight:normal;font-size:14px;font-family:'Nimbus Sans';-inkscape-font-specification:NimbusSans-Regular;writing-mode:lr-tb;fill:#000000;fill-opacity:1;fill-rule:nonzero;stroke:none"
         id="text224"><tspan
           x="0"
           y="0"
           id="tspan222">−</tspan></text>
<text
         transform="rotate(-90,37.00192,26.62792)"
         style="font-variant:normal;font-weight:normal;font-size:14px;font-family:'Nimbus Sans';-inkscape-font-specification:NimbusSans-Regular;writing-mode:lr-tb;fill:#000000;fill-opacity:1;fill-rule:nonzero;stroke:none"
         id="text228"><tspan
           x="0 7.7839999 15.568 19.459999 29.568001 37.352001 44.352001 52.136002"
           y="0"
           sodipodi:role="line"
           id="tspan226">19 Cases</tspan></text>
<g
         id="g230"><path
           d="m 325.309,10.695 h 58.309 v 16.406 h -58.309 z"
           style="fill:#ffffff;fill-opacity:1;fill-rule:nonzero;stroke:#333333;stroke-width:0.68835402;stroke-linecap:round;stroke-linejoin:round;stroke-miterlimit:10;stroke-dasharray:none;stroke-opacity:1"
           id="path232"
           inkscape:connector-curvature="0" /></g><text
         transform="translate(329.41704,24.34902)"
         style="font-variant:normal;font-weight:normal;font-size:16.1301384px;font-family:'Nimbus Sans';-inkscape-font-specification:NimbusSans-Regular;writing-mode:lr-tb;fill:#000000;fill-opacity:1;fill-rule:nonzero;stroke:none"
         id="text236"><tspan
           x="0 5.371336 14.791337 20.162672 29.131029 33.615208 42.583565"
           y="0"
           sodipodi:role="line"
           id="tspan234">r=-0.53</tspan></text>
</g></g></svg>