<?xml version="1.0" encoding="UTF-8" standalone="no"?>
<!-- Created with Inkscape (http://www.inkscape.org/) -->

<svg
   xmlns:dc="http://purl.org/dc/elements/1.1/"
   xmlns:cc="http://creativecommons.org/ns#"
   xmlns:rdf="http://www.w3.org/1999/02/22-rdf-syntax-ns#"
   xmlns:svg="http://www.w3.org/2000/svg"
   xmlns="http://www.w3.org/2000/svg"
   xmlns:sodipodi="http://sodipodi.sourceforge.net/DTD/sodipodi-0.dtd"
   xmlns:inkscape="http://www.inkscape.org/namespaces/inkscape"
   version="1.1"
   id="svg2"
   xml:space="preserve"
   width="531.53186"
   height="244.06264"
   viewBox="0 0 531.53186 244.06264"
   sodipodi:docname="DS32.svg"
   inkscape:version="0.92.5 (2060ec1f9f, 2020-04-08)"><metadata
     id="metadata8"><rdf:RDF><cc:Work
         rdf:about=""><dc:format>image/svg+xml</dc:format><dc:type
           rdf:resource="http://purl.org/dc/dcmitype/StillImage" /><dc:title></dc:title></cc:Work></rdf:RDF></metadata><defs
     id="defs6" /><sodipodi:namedview
     pagecolor="#ffffff"
     bordercolor="#666666"
     borderopacity="1"
     objecttolerance="10"
     gridtolerance="10"
     guidetolerance="10"
     inkscape:pageopacity="0"
     inkscape:pageshadow="2"
     inkscape:window-width="863"
     inkscape:window-height="480"
     id="namedview4"
     showgrid="false"
     inkscape:zoom="0.8861181"
     inkscape:cx="265.76593"
     inkscape:cy="122.03132"
     inkscape:window-x="3734"
     inkscape:window-y="219"
     inkscape:window-maximized="0"
     inkscape:current-layer="g10" /><g
     id="g10"
     inkscape:groupmode="layer"
     inkscape:label="DS32"
     transform="matrix(1.3333333,0,0,1.3333333,0,3.4348994e-6)"><g
       id="g12"><g
         id="g14"><path
           d="m 47.812,0.535 h 350.301 v 150.48 H 47.812 Z"
           style="fill:#ffffff;fill-opacity:1;fill-rule:nonzero;stroke:#000000;stroke-width:1.07000005;stroke-linecap:round;stroke-linejoin:round;stroke-miterlimit:10;stroke-dasharray:none;stroke-opacity:1"
           id="path16"
           inkscape:connector-curvature="0" /></g><g
         id="g18"><path
           d="M 47.812,139.133 H 398.113"
           style="fill:none;stroke:#e5e5e5;stroke-width:1.07000005;stroke-linecap:butt;stroke-linejoin:round;stroke-miterlimit:10;stroke-dasharray:none;stroke-opacity:1"
           id="path20"
           inkscape:connector-curvature="0" /></g><g
         id="g22"><path
           d="M 47.812,99.125 H 398.113"
           style="fill:none;stroke:#e5e5e5;stroke-width:1.07000005;stroke-linecap:butt;stroke-linejoin:round;stroke-miterlimit:10;stroke-dasharray:none;stroke-opacity:1"
           id="path24"
           inkscape:connector-curvature="0" /></g><g
         id="g26"><path
           d="M 47.812,59.113 H 398.113"
           style="fill:none;stroke:#e5e5e5;stroke-width:1.07000005;stroke-linecap:butt;stroke-linejoin:round;stroke-miterlimit:10;stroke-dasharray:none;stroke-opacity:1"
           id="path28"
           inkscape:connector-curvature="0" /></g><g
         id="g30"><path
           d="M 47.812,19.094 H 398.113"
           style="fill:none;stroke:#e5e5e5;stroke-width:1.07000005;stroke-linecap:butt;stroke-linejoin:round;stroke-miterlimit:10;stroke-dasharray:none;stroke-opacity:1"
           id="path32"
           inkscape:connector-curvature="0" /></g><g
         id="g34"><path
           d="M 122.445,151.016 V 0.535"
           style="fill:none;stroke:#e5e5e5;stroke-width:1.07000005;stroke-linecap:butt;stroke-linejoin:round;stroke-miterlimit:10;stroke-dasharray:none;stroke-opacity:1"
           id="path36"
           inkscape:connector-curvature="0" /></g><g
         id="g38"><path
           d="M 206.664,151.016 V 0.535"
           style="fill:none;stroke:#e5e5e5;stroke-width:1.07000005;stroke-linecap:butt;stroke-linejoin:round;stroke-miterlimit:10;stroke-dasharray:none;stroke-opacity:1"
           id="path40"
           inkscape:connector-curvature="0" /></g><g
         id="g42"><path
           d="M 290.883,151.016 V 0.535"
           style="fill:none;stroke:#e5e5e5;stroke-width:1.07000005;stroke-linecap:butt;stroke-linejoin:round;stroke-miterlimit:10;stroke-dasharray:none;stroke-opacity:1"
           id="path44"
           inkscape:connector-curvature="0" /></g><g
         id="g46"><path
           d="M 375.105,151.016 V 0.535"
           style="fill:none;stroke:#e5e5e5;stroke-width:1.07000005;stroke-linecap:butt;stroke-linejoin:round;stroke-miterlimit:10;stroke-dasharray:none;stroke-opacity:1"
           id="path48"
           inkscape:connector-curvature="0" /></g><g
         id="g50"><path
           d="M 47.812,119.125 H 398.113"
           style="fill:none;stroke:#e5e5e5;stroke-width:1.07000005;stroke-linecap:butt;stroke-linejoin:round;stroke-miterlimit:10;stroke-dasharray:none;stroke-opacity:1"
           id="path52"
           inkscape:connector-curvature="0" /></g><g
         id="g54"><path
           d="M 47.812,79.113 H 398.113"
           style="fill:none;stroke:#e5e5e5;stroke-width:1.07000005;stroke-linecap:butt;stroke-linejoin:round;stroke-miterlimit:10;stroke-dasharray:none;stroke-opacity:1"
           id="path56"
           inkscape:connector-curvature="0" /></g><g
         id="g58"><path
           d="M 47.812,39.105 H 398.113"
           style="fill:none;stroke:#e5e5e5;stroke-width:1.07000005;stroke-linecap:butt;stroke-linejoin:round;stroke-miterlimit:10;stroke-dasharray:none;stroke-opacity:1"
           id="path60"
           inkscape:connector-curvature="0" /></g><g
         id="g62"><path
           d="M 80.332,151.016 V 0.535"
           style="fill:none;stroke:#e5e5e5;stroke-width:1.07000005;stroke-linecap:butt;stroke-linejoin:round;stroke-miterlimit:10;stroke-dasharray:none;stroke-opacity:1"
           id="path64"
           inkscape:connector-curvature="0" /></g><g
         id="g66"><path
           d="M 164.555,151.016 V 0.535"
           style="fill:none;stroke:#e5e5e5;stroke-width:1.07000005;stroke-linecap:butt;stroke-linejoin:round;stroke-miterlimit:10;stroke-dasharray:none;stroke-opacity:1"
           id="path68"
           inkscape:connector-curvature="0" /></g><g
         id="g70"><path
           d="M 248.773,151.016 V 0.535"
           style="fill:none;stroke:#e5e5e5;stroke-width:1.07000005;stroke-linecap:butt;stroke-linejoin:round;stroke-miterlimit:10;stroke-dasharray:none;stroke-opacity:1"
           id="path72"
           inkscape:connector-curvature="0" /></g><g
         id="g74"><path
           d="M 332.992,151.016 V 0.535"
           style="fill:none;stroke:#e5e5e5;stroke-width:1.07000005;stroke-linecap:butt;stroke-linejoin:round;stroke-miterlimit:10;stroke-dasharray:none;stroke-opacity:1"
           id="path76"
           inkscape:connector-curvature="0" /></g><g
         id="g78"><path
           d="m 87.344,48.824 c 0,-1.07 0.879,-1.949 1.961,-1.949 1.07,0 1.949,0.879 1.949,1.949 0,1.082 -0.879,1.961 -1.949,1.961 -1.082,0 -1.961,-0.879 -1.961,-1.961"
           style="fill:#000000;fill-opacity:1;fill-rule:nonzero;stroke:#000000;stroke-width:0.70999998;stroke-linecap:round;stroke-linejoin:round;stroke-miterlimit:10;stroke-dasharray:none;stroke-opacity:1"
           id="path80"
           inkscape:connector-curvature="0" /></g><g
         id="g82"><path
           d="m 96.785,13.855 c 0,-1.07 0.879,-1.949 1.957,-1.949 1.07,0 1.953,0.879 1.953,1.949 0,1.079 -0.883,1.961 -1.953,1.961 -1.078,0 -1.957,-0.882 -1.957,-1.961"
           style="fill:#000000;fill-opacity:1;fill-rule:nonzero;stroke:#000000;stroke-width:0.70999998;stroke-linecap:round;stroke-linejoin:round;stroke-miterlimit:10;stroke-dasharray:none;stroke-opacity:1"
           id="path84"
           inkscape:connector-curvature="0" /></g><g
         id="g86"><path
           d="m 74.863,7.375 c 0,-1.082 0.879,-1.961 1.949,-1.961 1.083,0 1.961,0.879 1.961,1.961 0,1.07 -0.878,1.949 -1.961,1.949 -1.07,0 -1.949,-0.879 -1.949,-1.949"
           style="fill:#000000;fill-opacity:1;fill-rule:nonzero;stroke:#000000;stroke-width:0.70999998;stroke-linecap:round;stroke-linejoin:round;stroke-miterlimit:10;stroke-dasharray:none;stroke-opacity:1"
           id="path88"
           inkscape:connector-curvature="0" /></g><g
         id="g90"><path
           d="m 75.895,57.844 c 0,-1.071 0.878,-1.949 1.96,-1.949 1.067,0 1.95,0.878 1.95,1.949 0,1.082 -0.883,1.961 -1.95,1.961 -1.082,0 -1.96,-0.879 -1.96,-1.961"
           style="fill:#000000;fill-opacity:1;fill-rule:nonzero;stroke:#000000;stroke-width:0.70999998;stroke-linecap:round;stroke-linejoin:round;stroke-miterlimit:10;stroke-dasharray:none;stroke-opacity:1"
           id="path92"
           inkscape:connector-curvature="0" /></g><g
         id="g94"><path
           d="m 61.785,85.816 c 0,-1.07 0.879,-1.953 1.949,-1.953 1.078,0 1.961,0.883 1.961,1.953 0,1.079 -0.883,1.957 -1.961,1.957 -1.07,0 -1.949,-0.878 -1.949,-1.957"
           style="fill:#000000;fill-opacity:1;fill-rule:nonzero;stroke:#000000;stroke-width:0.70999998;stroke-linecap:round;stroke-linejoin:round;stroke-miterlimit:10;stroke-dasharray:none;stroke-opacity:1"
           id="path96"
           inkscape:connector-curvature="0" /></g><g
         id="g98"><path
           d="m 78.805,105.984 c 0,-1.078 0.879,-1.961 1.957,-1.961 1.07,0 1.953,0.883 1.953,1.961 0,1.071 -0.883,1.95 -1.953,1.95 -1.078,0 -1.957,-0.879 -1.957,-1.95"
           style="fill:#000000;fill-opacity:1;fill-rule:nonzero;stroke:#000000;stroke-width:0.70999998;stroke-linecap:round;stroke-linejoin:round;stroke-miterlimit:10;stroke-dasharray:none;stroke-opacity:1"
           id="path100"
           inkscape:connector-curvature="0" /></g><g
         id="g102"><path
           d="m 150.473,79.434 c 0,-1.071 0.882,-1.95 1.961,-1.95 1.07,0 1.949,0.879 1.949,1.95 0,1.082 -0.879,1.961 -1.949,1.961 -1.079,0 -1.961,-0.879 -1.961,-1.961"
           style="fill:#000000;fill-opacity:1;fill-rule:nonzero;stroke:#000000;stroke-width:0.70999998;stroke-linecap:round;stroke-linejoin:round;stroke-miterlimit:10;stroke-dasharray:none;stroke-opacity:1"
           id="path104"
           inkscape:connector-curvature="0" /></g><g
         id="g106"><path
           d="m 165.535,57.285 c 0,-1.07 0.879,-1.949 1.957,-1.949 1.07,0 1.953,0.879 1.953,1.949 0,1.078 -0.883,1.961 -1.953,1.961 -1.078,0 -1.957,-0.883 -1.957,-1.961"
           style="fill:#000000;fill-opacity:1;fill-rule:nonzero;stroke:#000000;stroke-width:0.70999998;stroke-linecap:round;stroke-linejoin:round;stroke-miterlimit:10;stroke-dasharray:none;stroke-opacity:1"
           id="path108"
           inkscape:connector-curvature="0" /></g><g
         id="g110"><path
           d="m 192.035,59.215 c 0,-1.082 0.879,-1.961 1.957,-1.961 1.07,0 1.953,0.879 1.953,1.961 0,1.07 -0.883,1.949 -1.953,1.949 -1.078,0 -1.957,-0.879 -1.957,-1.949"
           style="fill:#000000;fill-opacity:1;fill-rule:nonzero;stroke:#000000;stroke-width:0.70999998;stroke-linecap:round;stroke-linejoin:round;stroke-miterlimit:10;stroke-dasharray:none;stroke-opacity:1"
           id="path112"
           inkscape:connector-curvature="0" /></g><g
         id="g114"><path
           d="m 188.164,65.754 c 0,-1.078 0.879,-1.961 1.961,-1.961 1.07,0 1.949,0.883 1.949,1.961 0,1.07 -0.879,1.949 -1.949,1.949 -1.082,0 -1.961,-0.879 -1.961,-1.949"
           style="fill:#000000;fill-opacity:1;fill-rule:nonzero;stroke:#000000;stroke-width:0.70999998;stroke-linecap:round;stroke-linejoin:round;stroke-miterlimit:10;stroke-dasharray:none;stroke-opacity:1"
           id="path116"
           inkscape:connector-curvature="0" /></g><g
         id="g118"><path
           d="m 250.934,66.895 c 0,-1.079 0.878,-1.961 1.961,-1.961 1.07,0 1.949,0.882 1.949,1.961 0,1.07 -0.879,1.949 -1.949,1.949 -1.083,0 -1.961,-0.879 -1.961,-1.949"
           style="fill:#000000;fill-opacity:1;fill-rule:nonzero;stroke:#000000;stroke-width:0.70999998;stroke-linecap:round;stroke-linejoin:round;stroke-miterlimit:10;stroke-dasharray:none;stroke-opacity:1"
           id="path120"
           inkscape:connector-curvature="0" /></g><g
         id="g122"><path
           d="m 323.684,94.605 c 0,-1.082 0.878,-1.96 1.949,-1.96 1.082,0 1.961,0.878 1.961,1.96 0,1.071 -0.879,1.95 -1.961,1.95 -1.071,0 -1.949,-0.879 -1.949,-1.95"
           style="fill:#000000;fill-opacity:1;fill-rule:nonzero;stroke:#000000;stroke-width:0.70999998;stroke-linecap:round;stroke-linejoin:round;stroke-miterlimit:10;stroke-dasharray:none;stroke-opacity:1"
           id="path124"
           inkscape:connector-curvature="0" /></g><g
         id="g126"><path
           d="m 350.195,136.234 c 0,-1.078 0.879,-1.961 1.957,-1.961 1.071,0 1.953,0.883 1.953,1.961 0,1.071 -0.882,1.95 -1.953,1.95 -1.078,0 -1.957,-0.879 -1.957,-1.95"
           style="fill:#000000;fill-opacity:1;fill-rule:nonzero;stroke:#000000;stroke-width:0.70999998;stroke-linecap:round;stroke-linejoin:round;stroke-miterlimit:10;stroke-dasharray:none;stroke-opacity:1"
           id="path128"
           inkscape:connector-curvature="0" /></g><g
         id="g130"><path
           d="m 380.234,111.586 c 0,-1.07 0.879,-1.953 1.961,-1.953 1.067,0 1.95,0.883 1.95,1.953 0,1.078 -0.883,1.957 -1.95,1.957 -1.082,0 -1.961,-0.879 -1.961,-1.957"
           style="fill:#000000;fill-opacity:1;fill-rule:nonzero;stroke:#000000;stroke-width:0.70999998;stroke-linecap:round;stroke-linejoin:round;stroke-miterlimit:10;stroke-dasharray:none;stroke-opacity:1"
           id="path132"
           inkscape:connector-curvature="0" /></g><g
         id="g134"><path
           d="m 290.375,83.074 c 0,-1.07 0.879,-1.949 1.949,-1.949 1.078,0 1.961,0.879 1.961,1.949 0,1.082 -0.883,1.961 -1.961,1.961 -1.07,0 -1.949,-0.879 -1.949,-1.961"
           style="fill:#000000;fill-opacity:1;fill-rule:nonzero;stroke:#000000;stroke-width:0.70999998;stroke-linecap:round;stroke-linejoin:round;stroke-miterlimit:10;stroke-dasharray:none;stroke-opacity:1"
           id="path136"
           inkscape:connector-curvature="0" /></g><g
         id="g138"><path
           d="m 232.133,88.594 c 0,-1.071 0.879,-1.949 1.961,-1.949 1.07,0 1.949,0.878 1.949,1.949 0,1.082 -0.879,1.961 -1.949,1.961 -1.082,0 -1.961,-0.879 -1.961,-1.961"
           style="fill:#000000;fill-opacity:1;fill-rule:nonzero;stroke:#000000;stroke-width:0.70999998;stroke-linecap:round;stroke-linejoin:round;stroke-miterlimit:10;stroke-dasharray:none;stroke-opacity:1"
           id="path140"
           inkscape:connector-curvature="0" /></g><g
         id="g142"><path
           d="m 147.383,100.043 c 0,-1.078 0.879,-1.957 1.949,-1.957 1.082,0 1.961,0.879 1.961,1.957 0,1.07 -0.879,1.953 -1.961,1.953 -1.07,0 -1.949,-0.883 -1.949,-1.953"
           style="fill:#000000;fill-opacity:1;fill-rule:nonzero;stroke:#000000;stroke-width:0.70999998;stroke-linecap:round;stroke-linejoin:round;stroke-miterlimit:10;stroke-dasharray:none;stroke-opacity:1"
           id="path144"
           inkscape:connector-curvature="0" /></g><g
         id="g146"><path
           d="m 163.164,105.746 c 0,-1.082 0.879,-1.961 1.961,-1.961 1.07,0 1.949,0.879 1.949,1.961 0,1.07 -0.879,1.949 -1.949,1.949 -1.082,0 -1.961,-0.879 -1.961,-1.949"
           style="fill:#000000;fill-opacity:1;fill-rule:nonzero;stroke:#000000;stroke-width:0.70999998;stroke-linecap:round;stroke-linejoin:round;stroke-miterlimit:10;stroke-dasharray:none;stroke-opacity:1"
           id="path148"
           inkscape:connector-curvature="0" /></g><g
         id="g150"><path
           d="m 225.012,118.184 c 0,-1.071 0.883,-1.95 1.953,-1.95 1.078,0 1.957,0.879 1.957,1.95 0,1.082 -0.879,1.961 -1.957,1.961 -1.07,0 -1.953,-0.879 -1.953,-1.961"
           style="fill:#000000;fill-opacity:1;fill-rule:nonzero;stroke:#000000;stroke-width:0.70999998;stroke-linecap:round;stroke-linejoin:round;stroke-miterlimit:10;stroke-dasharray:none;stroke-opacity:1"
           id="path152"
           inkscape:connector-curvature="0" /></g><g
         id="g154"><path
           d="m 245.043,144.176 c 0,-1.071 0.879,-1.949 1.961,-1.949 1.07,0 1.949,0.878 1.949,1.949 0,1.078 -0.879,1.957 -1.949,1.957 -1.082,0 -1.961,-0.879 -1.961,-1.957"
           style="fill:#000000;fill-opacity:1;fill-rule:nonzero;stroke:#000000;stroke-width:0.70999998;stroke-linecap:round;stroke-linejoin:round;stroke-miterlimit:10;stroke-dasharray:none;stroke-opacity:1"
           id="path156"
           inkscape:connector-curvature="0" /></g><g
         id="g158"><path
           d="m 63.734,54.895 4.028,0.839 4.043,0.852 4.027,0.84 4.031,0.84 4.032,0.847 4.027,0.84 4.031,0.852 4.031,0.84 4.028,0.839 4.031,0.852 4.039,0.84 4.031,0.847 4.032,0.84 4.027,0.84 4.031,0.852 4.031,0.84 4.028,0.851 8.062,1.68 4.031,0.847 4.04,0.84 4.027,0.852 8.062,1.68 4.028,0.851 4.031,0.84 4.031,0.848 4.031,0.839 4.028,0.84 4.039,0.852 4.031,0.84 4.031,0.851 4.028,0.84 4.031,0.84 4.031,0.848 4.031,0.839 4.028,0.852 4.031,0.84 4.039,0.84 4.031,0.851 4.028,0.84 4.031,0.848 8.062,1.679 4.028,0.852 4.031,0.84 4.031,0.851 4.028,0.84 4.039,0.84 4.031,0.848 8.062,1.679 4.028,0.852 4.031,0.84 4.031,0.851 4.028,0.84 4.031,0.84 4.039,0.848 4.031,0.84 4.031,0.851 4.028,0.84 4.031,0.84 4.031,0.851 4.028,0.84 4.031,0.848 4.031,0.84 4.039,0.84 4.031,0.851 4.028,0.84 4.031,0.852 4.031,0.839 4.028,0.84 4.031,0.848 4.031,0.84 4.027,0.851 4.032,0.84 4.039,0.84 4.031,0.852 4.031,0.839"
           style="fill:none;stroke:#a9a9a9;stroke-width:2.13000011;stroke-linecap:butt;stroke-linejoin:round;stroke-miterlimit:10;stroke-dasharray:none;stroke-opacity:1"
           id="path160"
           inkscape:connector-curvature="0" /></g><g
         id="g162"><path
           d="m 47.812,0.535 h 350.301 v 150.48 H 47.812 Z"
           style="fill:none;stroke:#333333;stroke-width:1.07000005;stroke-linecap:round;stroke-linejoin:round;stroke-miterlimit:10;stroke-dasharray:none;stroke-opacity:1"
           id="path164"
           inkscape:connector-curvature="0" /></g><text
         transform="translate(16.194007,123.435)"
         style="font-variant:normal;font-weight:normal;font-size:12px;font-family:'Nimbus Sans';-inkscape-font-specification:NimbusSans-Regular;writing-mode:lr-tb;fill:#000000;fill-opacity:1;fill-rule:nonzero;stroke:none"
         id="text172"><tspan
           x="0 6.6719999 13.344 20.016001"
           y="0"
           sodipodi:role="line"
           id="tspan166">4000</tspan><tspan
           x="0 6.6719999 13.344 20.016001"
           y="-40.010002"
           sodipodi:role="line"
           id="tspan168">6000</tspan><tspan
           x="0 6.6719999 13.344 20.016001"
           y="-80.020004"
           sodipodi:role="line"
           id="tspan170">8000</tspan></text>
<g
         id="g174"><path
           d="m 45.074,119.125 h 2.738"
           style="fill:none;stroke:#333333;stroke-width:1.07000005;stroke-linecap:butt;stroke-linejoin:round;stroke-miterlimit:10;stroke-dasharray:none;stroke-opacity:1"
           id="path176"
           inkscape:connector-curvature="0" /></g><g
         id="g178"><path
           d="m 45.074,79.113 h 2.738"
           style="fill:none;stroke:#333333;stroke-width:1.07000005;stroke-linecap:butt;stroke-linejoin:round;stroke-miterlimit:10;stroke-dasharray:none;stroke-opacity:1"
           id="path180"
           inkscape:connector-curvature="0" /></g><g
         id="g182"><path
           d="m 45.074,39.105 h 2.738"
           style="fill:none;stroke:#333333;stroke-width:1.07000005;stroke-linecap:butt;stroke-linejoin:round;stroke-miterlimit:10;stroke-dasharray:none;stroke-opacity:1"
           id="path184"
           inkscape:connector-curvature="0" /></g><g
         id="g186"><path
           d="m 80.332,153.754 v -2.738"
           style="fill:none;stroke:#333333;stroke-width:1.07000005;stroke-linecap:butt;stroke-linejoin:round;stroke-miterlimit:10;stroke-dasharray:none;stroke-opacity:1"
           id="path188"
           inkscape:connector-curvature="0" /></g><g
         id="g190"><path
           d="m 164.555,153.754 v -2.738"
           style="fill:none;stroke:#333333;stroke-width:1.07000005;stroke-linecap:butt;stroke-linejoin:round;stroke-miterlimit:10;stroke-dasharray:none;stroke-opacity:1"
           id="path192"
           inkscape:connector-curvature="0" /></g><g
         id="g194"><path
           d="m 248.773,153.754 v -2.738"
           style="fill:none;stroke:#333333;stroke-width:1.07000005;stroke-linecap:butt;stroke-linejoin:round;stroke-miterlimit:10;stroke-dasharray:none;stroke-opacity:1"
           id="path196"
           inkscape:connector-curvature="0" /></g><g
         id="g198"><path
           d="m 332.992,153.754 v -2.738"
           style="fill:none;stroke:#333333;stroke-width:1.07000005;stroke-linecap:butt;stroke-linejoin:round;stroke-miterlimit:10;stroke-dasharray:none;stroke-opacity:1"
           id="path200"
           inkscape:connector-curvature="0" /></g><text
         transform="translate(65.153997,164.56499)"
         style="font-variant:normal;font-weight:normal;font-size:12px;font-family:'Nimbus Sans';-inkscape-font-specification:NimbusSans-Regular;writing-mode:lr-tb;fill:#000000;fill-opacity:1;fill-rule:nonzero;stroke:none"
         id="text204"><tspan
           x="0"
           y="0"
           id="tspan202">−</tspan></text>
<text
         transform="translate(72.161997,164.56499)"
         style="font-variant:normal;font-weight:normal;font-size:12px;font-family:'Nimbus Sans';-inkscape-font-specification:NimbusSans-Regular;writing-mode:lr-tb;fill:#000000;fill-opacity:1;fill-rule:nonzero;stroke:none"
         id="text208"><tspan
           x="0 6.6719999 10.008 16.68 80.723999 87.396004 90.732002 97.403999 164.94 171.612 174.948 181.62 249.16199 255.83398 259.16998 265.84198"
           y="0"
           sodipodi:role="line"
           id="tspan206">0.050.000.050.10</tspan></text>
<text
         transform="translate(115.92402,179.99499)"
         style="font-variant:normal;font-weight:normal;font-size:14px;font-family:'Nimbus Sans';-inkscape-font-specification:NimbusSans-Regular;writing-mode:lr-tb;fill:#000000;fill-opacity:1;fill-rule:nonzero;stroke:none"
         id="text212"><tspan
           x="0 9.3380003 17.122 24.906 29.568001 37.352001 45.136002 52.919998 56.812 64.596001 68.487999 75.362 82.725998 89.725998 93.617996 97.510002 106.848 114.632 122.416 126.308 129.416 141.078 148.862 156.646 160.53799 164.42999 169.092 175.966 186.07401 189.18201 193.07401 196.966 204.75 209.412"
           y="0"
           sodipodi:role="line"
           id="tspan210">Aggregate Text Sentiment (Twitter)</tspan></text>
<text
         transform="rotate(-90,78.714492,68.340492)"
         style="font-variant:normal;font-weight:normal;font-size:14px;font-family:'Nimbus Sans';-inkscape-font-specification:NimbusSans-Regular;writing-mode:lr-tb;fill:#000000;fill-opacity:1;fill-rule:nonzero;stroke:none"
         id="text216"><tspan
           x="0 10.108 17.612 27.719999 31.612 41.720001 51.911999 61.25 65.141998"
           y="0"
           sodipodi:role="line"
           id="tspan214">New COVID</tspan></text>
<text
         transform="rotate(-90,41.089492,30.715492)"
         style="font-variant:normal;font-weight:normal;font-size:14px;font-family:'Nimbus Sans';-inkscape-font-specification:NimbusSans-Regular;writing-mode:lr-tb;fill:#000000;fill-opacity:1;fill-rule:nonzero;stroke:none"
         id="text220"><tspan
           x="0"
           y="0"
           id="tspan218">−</tspan></text>
<text
         transform="rotate(-90,37.001492,26.627492)"
         style="font-variant:normal;font-weight:normal;font-size:14px;font-family:'Nimbus Sans';-inkscape-font-specification:NimbusSans-Regular;writing-mode:lr-tb;fill:#000000;fill-opacity:1;fill-rule:nonzero;stroke:none"
         id="text224"><tspan
           x="0 7.7839999 15.568 19.459999 29.568001 37.352001 44.352001 52.136002"
           y="0"
           sodipodi:role="line"
           id="tspan222">19 Cases</tspan></text>
<g
         id="g226"><path
           d="m 326.961,10.609 h 58.305 v 16.406 h -58.305 z"
           style="fill:#ffffff;fill-opacity:1;fill-rule:nonzero;stroke:#333333;stroke-width:0.68835402;stroke-linecap:round;stroke-linejoin:round;stroke-miterlimit:10;stroke-dasharray:none;stroke-opacity:1"
           id="path228"
           inkscape:connector-curvature="0" /></g><text
         transform="translate(331.0664,24.266056)"
         style="font-variant:normal;font-weight:normal;font-size:16.1301384px;font-family:'Nimbus Sans';-inkscape-font-specification:NimbusSans-Regular;writing-mode:lr-tb;fill:#000000;fill-opacity:1;fill-rule:nonzero;stroke:none"
         id="text232"><tspan
           x="0 5.371336 14.791337 20.162672 29.131029 33.615208 42.583565"
           y="0"
           sodipodi:role="line"
           id="tspan230">r=-0.57</tspan></text>
</g></g></svg>