<?xml version="1.0" encoding="UTF-8" standalone="no"?>
<svg
   xmlns:dc="http://purl.org/dc/elements/1.1/"
   xmlns:cc="http://creativecommons.org/ns#"
   xmlns:rdf="http://www.w3.org/1999/02/22-rdf-syntax-ns#"
   xmlns:svg="http://www.w3.org/2000/svg"
   xmlns="http://www.w3.org/2000/svg"
   xmlns:xlink="http://www.w3.org/1999/xlink"
   xmlns:sodipodi="http://sodipodi.sourceforge.net/DTD/sodipodi-0.dtd"
   xmlns:inkscape="http://www.inkscape.org/namespaces/inkscape"
   version="1.1"
   id="Layer_1"
   x="0px"
   y="0px"
   viewBox="0 0 566.20764 351.69495"
   sodipodi:docname="location-4496459.svg"
   width="566.20764"
   height="351.69495"
   inkscape:version="0.92.5 (2060ec1f9f, 2020-04-08)">
  <metadata
     id="metadata93">
    <rdf:RDF>
      <cc:Work
         rdf:about="">
        <dc:format>image/svg+xml</dc:format>
        <dc:type
           rdf:resource="http://purl.org/dc/dcmitype/StillImage" />
      </cc:Work>
    </rdf:RDF>
  </metadata>
  <defs
     id="defs91" />
  <sodipodi:namedview
     pagecolor="#ffffff"
     bordercolor="#666666"
     borderopacity="1"
     objecttolerance="10"
     gridtolerance="10"
     guidetolerance="10"
     inkscape:pageopacity="0"
     inkscape:pageshadow="2"
     inkscape:window-width="2560"
     inkscape:window-height="1309"
     id="namedview89"
     showgrid="false"
     inkscape:zoom="1.888"
     inkscape:cx="242.4983"
     inkscape:cy="186.78079"
     inkscape:window-x="0"
     inkscape:window-y="0"
     inkscape:window-maximized="1"
     inkscape:current-layer="Layer_1" />
  <style
     type="text/css"
     id="style2"> .st0{fill:#878787;} .st1{opacity:0.3;} .st2{fill:#45BBC6;} .st3{clip-path:url(#SVGID_2_);} .st4{fill:#CCE4C4;} .st5{opacity:0.5;} .st6{fill:#F1F8EF;} .st7{fill:#1E4C4C;} .st8{fill:#FCC020;} .st9{fill:#1A7C7B;} .st10{opacity:0.2;fill:#1E4C4C;} .st11{fill:#FFFFFF;} </style>
  <rect
     class="st0"
     width="566.20764"
     height="351.69495"
     id="rect4"
     x="0"
     y="0"
     style="fill:#878787;stroke-width:0.89248496" />
  <g
     id="g86"
     transform="translate(31.25,-73.093224)">
    <g
       class="st1"
       id="g8"
       style="opacity:0.3">
      <path
         d="m 248.3,407.7 c 0,2.1 41.2,3.8 92.1,3.8 50.8,0 92.1,-1.7 92.1,-3.8 0,-2.1 -41.2,-3.8 -92.1,-3.8 -50.9,0 -92.1,1.7 -92.1,3.8 z"
         id="path6"
         inkscape:connector-curvature="0" />
    </g>
    <g
       id="g48">
      <g
         id="g12">
        <circle
           transform="matrix(0.9788,-0.2048,0.2048,0.9788,-46.1169,55.6414)"
           class="st2"
           cx="245.8"
           cy="250.60001"
           id="ellipse10"
           r="105.2"
           style="fill:#45bbc6" />
      </g>
      <g
         id="g46">
        <defs
           id="defs15">
          <circle
             id="SVGID_1_"
             transform="matrix(0.9926,-0.1217,0.1217,0.9926,-28.6265,31.7133)"
             cx="245.3"
             cy="250.2"
             r="100.6" />
        </defs>
        <clipPath
           id="SVGID_2_">
          <use
             xlink:href="#SVGID_1_"
             style="overflow:visible"
             id="use17"
             x="0"
             y="0"
             width="100%"
             height="100%" />
        </clipPath>
        <g
           class="st3"
           clip-path="url(#SVGID_2_)"
           id="g44">
          <g
             id="g22">
            <path
               class="st4"
               d="m 449.6,212.7 c 1.2,0.7 2.7,1.2 3.6,2.1 2.6,2.6 5,5.3 7.4,8.1 1.1,1.2 2,1.4 3,0.1 1.5,-2.1 2.9,-4.4 4.6,-6.4 3.2,-3.7 3.1,-8.9 -0.9,-11.8 -3.6,-2.6 -7.3,-5 -10.9,-7.4 -1.3,-0.8 -2.1,-1.6 0,-2.4 0.6,-0.2 1.2,-0.7 1.9,-0.8 4.8,-0.4 9.6,-0.9 14.4,-1.1 3.3,-0.2 6.3,-1 8.1,-3.7 2.4,-3.4 4.3,-7.1 6.2,-10.8 0.9,-1.9 -0.4,-4.7 -2.4,-5.4 -1.8,-0.6 -3.7,-1.2 -5.6,-1.2 -5.5,-0.2 -10.9,-0.1 -16.4,-0.2 -2.6,-0.1 -5.2,-0.6 -7.9,-0.6 -4.6,0 -9.3,0.5 -13.9,0.5 -5.5,0 -11,-0.1 -16.5,-0.6 -4,-0.4 -7.8,-1.7 -11.8,-2.2 -6.2,-0.9 -12.5,-0.7 -18.4,-3.2 -1.4,-0.6 -3.2,-1.1 -4.5,-0.6 -4,1.6 -8.1,3.3 -11.8,5.6 -6.4,4 -13.1,6.6 -20.8,5.8 -3.6,-0.4 -7.1,-0.7 -10.7,-1.2 -3.8,-0.6 -7.5,-1.6 -11.3,-2.1 -7.1,-0.9 -13,2.5 -18.8,6 -2.5,1.5 -2.6,3.1 -1.2,5.7 1.2,2.1 2.4,4.1 3.5,6.2 1.4,2.6 2.5,2.8 5.2,1.6 3,-1.3 6,-2.4 9.1,-3.5 2,-0.7 3.1,0.7 3.5,2.4 0.8,4.1 -1.7,6.9 -5.9,6.9 -8.4,0 -16.8,-0.1 -25.1,-0.1 -1.3,0 -2.7,0.4 -3.9,0.9 -1.7,0.7 -3.3,1.7 -5.1,2.4 -2,0.7 -3.5,1.7 -3.3,4 0.3,2.3 0.6,4.6 1.2,6.9 1.5,5.8 5.5,8.1 10.9,5.8 5,-2.1 9.8,-4.7 14.8,-6.9 1.6,-0.7 3.7,-1.5 5,-0.9 4.3,1.8 8.8,2.8 13.4,2.7 2.6,0 5.3,-0.1 7.9,0 3.4,0.2 4.7,2.8 2.8,5.6 -0.6,0.8 -1.3,1.5 -2.1,2.2 -4.6,4.4 -9.6,8.1 -16.5,6.9 -3.4,-0.6 -6.8,-1.3 -10.1,-2.3 -6.4,-2.1 -13,-3.5 -19.8,-2.9 -3.8,0.3 -6.9,2.2 -9.4,4.9 -2.8,3.1 -5.1,6.6 -7.8,9.7 -7,7.8 -6.6,10.2 0.4,17 5.4,5.3 11.6,9.6 19.3,10.8 4.1,0.7 8.3,0.9 12.5,1.2 1.6,0.1 2.4,0.5 2.1,2.4 -0.5,3.2 -1.1,6.4 -1.1,9.6 0,5.3 0.5,10.6 0.8,16 0.3,4.3 2.3,7.7 5.3,10.8 2.5,2.5 4.8,5.3 7.1,8 1.1,1.3 2,2.7 3.1,4 1.1,1.3 2.6,1.5 3.8,0.3 2.5,-2.6 5.6,-4.9 7.1,-8 4,-8.3 7.6,-16.8 10.7,-25.4 2.6,-7.2 6.3,-13 13.1,-16.9 3.4,-1.9 6.5,-4.6 9.4,-7.2 2.4,-2.1 2,-3.2 -0.8,-4.5 -1,-0.4 -2.2,-0.7 -3.1,-1.2 -8.7,-4.9 -15.9,-11.5 -22.2,-19.1 -1,-1.2 -1.3,-2.9 -1.9,-4.4 3.3,-1.1 4.5,0.9 5.3,2.6 3.9,7.4 10.2,11.4 17.9,13.7 2.3,0.7 4.6,0.3 6.3,-1.8 2.9,-3.6 2.8,-5 -0.1,-8.5 -2.8,-3.4 -5.2,-7.1 -7.8,-10.6 0,0 0.1,-0.2 0.2,-0.6 2.5,0.9 5.1,1.7 7.6,2.7 4.4,1.9 9.2,3.5 12.3,7.4 3.3,4.2 6.6,8.4 9.8,12.7 1.3,1.8 2.3,3.9 3.8,5.4 0.8,0.8 2.6,1.2 3.8,0.9 1,-0.3 2.3,-1.6 2.5,-2.7 0.7,-2.6 0.9,-5.3 1.2,-8 0.8,-7.5 5.5,-9.8 11.8,-5.8 2.3,1.5 4.2,3.4 6.3,5.2 3.4,2.9 6.5,6.2 10.3,8.5 5.3,3.2 6.3,2.7 9.7,-1.3 2.7,-3.2 2.8,-5.2 0.6,-8.5 -0.8,-1.1 -1.5,-2.2 -2.3,-3.3 -2.4,-3.7 -3.2,-7.7 -2.3,-11.9 1.2,-4.6 2.4,-8.9 3.8,-14.2 z"
               id="path20"
               inkscape:connector-curvature="0"
               style="fill:#cce4c4" />
          </g>
          <g
             id="g26">
            <path
               class="st4"
               d="m 183.1,235.7 c 5.5,-0.4 10.7,-0.8 16,-1.2 4.3,-0.3 7.6,-2.2 9.8,-6.1 1.1,-2 2.3,-4 3.8,-5.7 5.2,-6.2 11.5,-10.2 20,-9.5 4.5,0.3 7.9,-1.6 10.2,-5.3 1.4,-2.3 2.8,-4.7 3.7,-7.2 1.9,-5.8 0.5,-8.9 -5.1,-12 -1.1,-0.6 -2.3,-1.5 -3.5,-1.5 -4.1,-0.2 -8.3,-0.6 -12.3,0.1 -2.8,0.4 -4.3,0.8 -5.9,-1.7 -1.2,-1.8 -0.8,-3.5 0.7,-5.1 0.5,-0.5 0.7,-2 0.6,-2.1 -2.9,-1.1 -4.7,-3.4 -6.4,-5.8 -0.2,-0.3 -0.7,-0.6 -1.1,-0.6 -6.5,-0.2 -12.9,-1 -19,3.4 -5.8,4.2 -12.7,4.6 -19.3,0.9 -4.3,-2.4 -8,-5.7 -13,-6.9 -5.2,-1.2 -9.8,-1.1 -14.3,2.2 -4.2,3.1 -8.5,6.2 -13.2,8.5 -3.4,1.7 -3.2,5.8 -0.7,7.5 4.8,3.4 10,5.9 16,5.4 3.2,-0.2 6.4,-0.8 9.7,-0.9 1.1,0 2.9,1 3.1,1.8 0.4,1.4 0,3.3 -0.6,4.7 -1.2,2.8 -2.8,5.4 -4.3,8.1 -3.2,5.7 -5.4,11.5 -4.5,18.3 0.4,2.9 -0.1,6 0.2,9 0.3,3.6 1.1,7.5 4.5,9.4 3.7,2.1 8,2.7 12.4,2 5.1,-0.8 10.3,-1.3 15,1.7 4.2,2.6 6,7.1 8.2,11.3 1.9,3.6 1.5,6.7 -1.9,9.2 -0.6,0.4 -0.8,1.3 -1.3,1.9 -1.5,1.7 -0.7,2.9 0.9,3.9 3.4,2.2 6.8,4.3 10.1,6.5 3.8,2.5 6.9,5.8 8.1,10.2 2.2,8.5 1.3,17.2 0.5,25.9 -0.5,5.7 0.4,11 3.7,15.8 3.2,4.6 7.7,7.3 12.7,9.3 5.6,2.2 9.5,-0.4 11.1,-4.6 1.6,-4.3 2.7,-8.9 3.9,-13.3 1.1,-4.1 2.5,-7.8 6,-10.6 2.1,-1.7 4.2,-3.7 5.5,-6 4.8,-8.6 6.6,-18.1 7.7,-27.7 0.2,-1.6 0.4,-3.3 0.7,-4.9 0.8,-3.7 -0.8,-7.7 -3.8,-8.7 -4,-1.3 -8.2,-2.1 -12.2,-3.4 -3.5,-1.1 -7,-2.2 -10.2,-3.8 -3.9,-1.9 -7.4,-5.1 -11.4,-6.5 -7.1,-2.4 -14.6,-3.6 -21.8,-5.5 -4.5,-1.2 -9.1,-2.6 -13.4,-4.5 -2.8,-1.1 -5.4,-2.7 -5.6,-5.9 z"
               id="path24"
               inkscape:connector-curvature="0"
               style="fill:#cce4c4" />
          </g>
          <g
             id="g30">
            <path
               class="st4"
               d="m 247.9,168.1 c 0.8,1.4 1.4,2.2 1.8,3 1.2,2.3 2.3,4.7 3.4,7 0.8,1.8 0.7,4.4 2.9,5.1 4.1,1.3 8.4,1.2 12.3,-0.3 5,-1.9 9.8,-4.4 14.6,-7 3.8,-2 7.6,-4.1 9.8,-8.2 0.7,-1.3 1.1,-2.3 -0.4,-3.6 -5.3,-4.4 -11.1,-7.9 -17.8,-9.1 -8.1,-1.5 -15.7,0.3 -21.8,6.3 -1.8,2.1 -3.1,4.5 -4.8,6.8 z"
               id="path28"
               inkscape:connector-curvature="0"
               style="fill:#cce4c4" />
          </g>
          <g
             class="st5"
             id="g34"
             style="opacity:0.5">
            <path
               class="st4"
               d="m 449.6,212.7 c -1.4,5.3 -2.6,9.6 -3.6,14 -0.9,4.2 -0.1,8.3 2.3,11.9 0.7,1.1 1.5,2.2 2.3,3.3 2.3,3.4 2.2,5.3 -0.6,8.5 -3.4,4 -4.5,4.5 -9.7,1.3 -3.8,-2.3 -6.9,-5.6 -10.3,-8.5 -2.1,-1.7 -4,-3.7 -6.3,-5.2 -6.3,-4.1 -11.1,-1.7 -11.8,5.8 -0.3,2.7 -0.5,5.4 -1.2,8 -0.3,1.1 -1.5,2.4 -2.5,2.7 -1.1,0.3 -3,-0.1 -3.8,-0.9 -1.5,-1.5 -2.5,-3.6 -3.8,-5.4 -3.2,-4.3 -6.4,-8.5 -9.8,-12.7 -3.2,-4 -7.9,-5.5 -12.3,-7.4 -2.5,-1.1 -5,-1.8 -7.6,-2.7 -0.2,0.5 -0.2,0.6 -0.2,0.6 2.6,3.6 5,7.2 7.8,10.6 2.9,3.4 3,4.9 0.1,8.5 -1.7,2.1 -4,2.5 -6.3,1.8 -7.7,-2.3 -14,-6.3 -17.9,-13.7 -0.9,-1.6 -2,-3.6 -5.3,-2.6 0.6,1.5 0.9,3.3 1.9,4.4 6.3,7.7 13.5,14.2 22.2,19.1 1,0.5 2.1,0.8 3.1,1.2 2.8,1.2 3.2,2.3 0.8,4.5 -2.9,2.6 -6,5.3 -9.4,7.2 -6.8,3.9 -10.5,9.7 -13.1,16.9 -3.1,8.6 -6.7,17.1 -10.7,25.4 -1.5,3.1 -4.6,5.4 -7.1,8 -1.2,1.2 -2.7,1 -3.8,-0.3 -1.1,-1.3 -2,-2.7 -3.1,-4 -2.3,-2.7 -4.6,-5.4 -7.1,-8 -3,-3 -5.1,-6.5 -5.3,-10.8 -0.3,-5.3 -0.8,-10.6 -0.8,-16 0,-3.2 0.6,-6.4 1.1,-9.6 0.3,-1.9 -0.4,-2.3 -2.1,-2.4 -4.2,-0.3 -8.4,-0.5 -12.5,-1.2 -7.7,-1.3 -13.8,-5.5 -19.3,-10.8 -7,-6.9 -7.3,-9.2 -0.4,-17 2.8,-3.1 5.1,-6.6 7.8,-9.7 2.5,-2.8 5.5,-4.6 9.4,-4.9 6.8,-0.6 13.3,0.8 19.8,2.9 3.3,1.1 6.7,1.7 10.1,2.3 6.9,1.2 11.9,-2.5 16.5,-6.9 0.7,-0.7 1.5,-1.4 2.1,-2.2 1.9,-2.8 0.6,-5.4 -2.8,-5.6 -2.6,-0.2 -5.3,-0.1 -7.9,0 -4.7,0.1 -9.1,-0.9 -13.4,-2.7 -1.3,-0.6 -3.5,0.2 -5,0.9 -5,2.2 -9.8,4.8 -14.8,6.9 -5.4,2.2 -9.4,0 -10.9,-5.8 -0.6,-2.2 -1,-4.6 -1.2,-6.9 -0.3,-2.3 1.3,-3.3 3.3,-4 1.7,-0.6 3.3,-1.7 5.1,-2.4 1.2,-0.5 2.6,-0.9 3.9,-0.9 8.4,0 16.8,0.1 25.1,0.1 4.3,0 6.7,-2.9 5.9,-6.9 -0.3,-1.6 -1.5,-3 -3.5,-2.4 -3.1,1 -6.1,2.1 -9.1,3.5 -2.7,1.2 -3.8,1 -5.2,-1.6 -1.2,-2.1 -2.3,-4.2 -3.5,-6.2 -1.4,-2.5 -1.3,-4.2 1.2,-5.7 5.8,-3.4 11.6,-6.9 18.8,-6 3.8,0.5 7.5,1.5 11.3,2.1 3.5,0.5 7.1,0.8 10.7,1.2 7.7,0.8 14.4,-1.8 20.8,-5.8 3.7,-2.3 7.7,-4 11.8,-5.6 1.2,-0.5 3.1,0.1 4.5,0.6 5.9,2.5 12.3,2.3 18.4,3.2 3.9,0.5 7.8,1.8 11.8,2.2 5.5,0.5 11,0.6 16.5,0.6 4.6,0 9.3,-0.4 13.9,-0.5 2.6,0 5.2,0.6 7.9,0.6 5.5,0.1 10.9,0 16.4,0.2 1.9,0.1 3.8,0.6 5.6,1.2 2,0.7 3.3,3.5 2.4,5.4 -1.8,3.7 -3.8,7.4 -6.2,10.8 -1.8,2.7 -4.9,3.5 -8.1,3.7 -4.8,0.2 -9.6,0.7 -14.4,1.1 -0.6,0.1 -1.2,0.5 -1.9,0.8 -2.1,0.8 -1.3,1.6 0,2.4 3.7,2.5 7.4,4.8 10.9,7.4 3.9,2.9 4.1,8.1 0.9,11.8 -1.7,2 -3,4.3 -4.6,6.4 -1,1.3 -1.9,1.2 -3,-0.1 -2.4,-2.8 -4.8,-5.5 -7.4,-8.1 -1.1,-0.7 -2.6,-1.2 -3.8,-1.9 z"
               id="path32"
               inkscape:connector-curvature="0"
               style="fill:#cce4c4" />
          </g>
          <g
             class="st5"
             id="g38"
             style="opacity:0.5">
            <path
               class="st4"
               d="m 183.1,235.7 c 0.2,3.2 2.8,4.8 5.1,5.8 4.3,1.9 8.8,3.3 13.4,4.5 7.3,2 14.7,3.2 21.8,5.5 4.1,1.3 7.5,4.5 11.4,6.5 3.3,1.6 6.8,2.8 10.2,3.8 4,1.3 8.2,2.1 12.2,3.4 3.1,1 4.6,5 3.8,8.7 -0.3,1.6 -0.5,3.3 -0.7,4.9 -1,9.7 -2.8,19.2 -7.7,27.7 -1.3,2.3 -3.4,4.3 -5.5,6 -3.5,2.8 -4.9,6.5 -6,10.6 -1.2,4.5 -2.3,9 -3.9,13.3 -1.6,4.2 -5.5,6.8 -11.1,4.6 -5,-2 -9.5,-4.7 -12.7,-9.3 -3.3,-4.8 -4.2,-10.1 -3.7,-15.8 0.8,-8.7 1.7,-17.4 -0.5,-25.9 -1.1,-4.4 -4.3,-7.7 -8.1,-10.2 -3.3,-2.2 -6.7,-4.4 -10.1,-6.5 -1.6,-1 -2.4,-2.2 -0.9,-3.9 0.5,-0.6 0.7,-1.4 1.3,-1.9 3.4,-2.5 3.8,-5.5 1.9,-9.2 -2.2,-4.2 -4,-8.7 -8.2,-11.3 -4.7,-2.9 -9.9,-2.4 -15,-1.7 -4.4,0.7 -8.6,0 -12.4,-2 -3.4,-1.9 -4.2,-5.7 -4.5,-9.4 -0.2,-3 0.2,-6 -0.2,-9 -0.9,-6.8 1.4,-12.6 4.5,-18.3 1.5,-2.7 3,-5.3 4.3,-8.1 0.6,-1.4 1,-3.3 0.6,-4.7 -0.2,-0.8 -2,-1.8 -3.1,-1.8 -3.2,0 -6.4,0.6 -9.7,0.9 -6.1,0.4 -11.2,-2.1 -16,-5.4 -2.5,-1.7 -2.7,-5.8 0.7,-7.5 4.7,-2.3 9,-5.4 13.2,-8.5 4.5,-3.4 9.1,-3.4 14.3,-2.2 5,1.2 8.8,4.4 13,6.9 6.6,3.8 13.5,3.3 19.3,-0.9 6.1,-4.4 12.4,-3.5 19,-3.4 0.4,0 0.9,0.3 1.1,0.6 1.7,2.4 3.5,4.7 6.4,5.8 0.1,0 -0.2,1.6 -0.6,2.1 -1.5,1.6 -1.9,3.3 -0.7,5.1 1.6,2.5 3.1,2.1 5.9,1.7 4,-0.6 8.2,-0.3 12.3,-0.1 1.2,0.1 2.4,0.9 3.5,1.5 5.6,3.1 7,6.1 5.1,12 -0.8,2.5 -2.2,5 -3.7,7.2 -2.3,3.7 -5.7,5.6 -10.2,5.3 -8.5,-0.6 -14.9,3.3 -20,9.5 -1.4,1.7 -2.6,3.7 -3.8,5.7 -2.2,3.8 -5.5,5.7 -9.8,6.1 -4.7,0.5 -10,0.9 -15.5,1.3 z"
               id="path36"
               inkscape:connector-curvature="0"
               style="fill:#cce4c4" />
          </g>
          <g
             id="g42">
            <path
               class="st4"
               d="m 247.9,168.1 c 1.7,-2.3 3,-4.7 4.9,-6.6 6.1,-6 13.7,-7.8 21.8,-6.3 6.7,1.2 12.5,4.7 17.8,9.1 1.5,1.2 1,2.3 0.4,3.6 -2.1,4.1 -6,6.2 -9.8,8.2 -4.7,2.6 -9.5,5.1 -14.6,7 -3.9,1.4 -8.2,1.6 -12.3,0.3 -2.3,-0.7 -2.1,-3.3 -2.9,-5.1 -1.1,-2.4 -2.2,-4.7 -3.4,-7 -0.5,-1 -1,-1.8 -1.9,-3.2 z"
               id="path40"
               inkscape:connector-curvature="0"
               style="fill:#cce4c4" />
          </g>
        </g>
      </g>
    </g>
    <g
       id="g54">
      <path
         class="st4"
         d="m 344.4,344.3 14.9,10.5 12.3,-17.6 -13.7,-9.6 c -4,5.9 -8.6,11.4 -13.5,16.7 z"
         id="path50"
         inkscape:connector-curvature="0"
         style="fill:#cce4c4" />
      <path
         class="st6"
         d="m 381.9,250.6 c 0,-75.1 -61.1,-136.1 -136.1,-136.1 -24.3,0 -47.1,6.5 -66.8,17.7 l 6.3,14.6 c 17.8,-10.4 38.4,-16.5 60.5,-16.5 66.3,0 120.3,54 120.3,120.3 0,66.3 -54,120.3 -120.3,120.3 -66.3,0 -120.3,-54 -120.3,-120.3 0,-19.2 4.6,-37.2 12.6,-53.3 l -15,-5.2 c -8.5,17.8 -13.4,37.6 -13.4,58.5 0,75.1 61.1,136.1 136.1,136.1 38.8,0 73.8,-16.4 98.6,-42.5 4.9,-5.2 9.5,-10.7 13.6,-16.7 15,-21.8 23.9,-48.3 23.9,-76.9 z"
         id="path52"
         inkscape:connector-curvature="0"
         style="fill:#f1f8ef" />
    </g>
    <g
       id="g66">
      <g
         class="st1"
         id="g58"
         style="opacity:0.3">
        <path
           class="st7"
           d="m 195.4,189.7 c -2.1,-2.3 -7.9,-0.4 -13,4.2 -5.1,4.6 -7.5,10.2 -5.5,12.5 2.1,2.3 7.9,0.4 13,-4.2 5.1,-4.6 7.6,-10.2 5.5,-12.5 z"
           id="path56"
           inkscape:connector-curvature="0"
           style="fill:#1e4c4c" />
      </g>
      <g
         id="g64">
        <g
           id="g62">
          <path
             class="st8"
             d="m 182.7,196.6 c 0,0 -46.7,-7.6 -57.6,-19.7 -10.9,-12 -10,-30.6 2,-41.6 12,-10.9 30.6,-10 41.6,2 10.9,12.1 14,59.3 14,59.3 z m -27.6,-50 c -4.7,-5.2 -12.8,-5.6 -18.1,-0.9 -5.2,4.7 -5.6,12.8 -0.9,18.1 4.7,5.2 12.8,5.6 18.1,0.9 5.3,-4.8 5.7,-12.9 0.9,-18.1 z"
             id="path60"
             inkscape:connector-curvature="0"
             style="fill:#fcc020" />
        </g>
      </g>
    </g>
    <path
       class="st9"
       d="m 356.4,358.9 71.4,50.1 2.7,-2.6 c 6,-5.9 10.8,-12.9 14.3,-20.6 l 1.3,-2.8 -71.4,-50.1 z"
       id="path68"
       inkscape:connector-curvature="0"
       style="fill:#1a7c7b" />
    <path
       class="st10"
       d="m 351.2,252.2 c 0,-58.9 -47.7,-106.6 -106.6,-106.6 0,99 0,110.6 0,210.2 58.9,-0.1 106.6,-44.8 106.6,-103.6 z"
       id="path70"
       inkscape:connector-curvature="0"
       style="opacity:0.2;fill:#1e4c4c" />
    <path
       class="st11"
       d="m 408.1,168 c 0,-1.3 -1.1,-2.4 -2.4,-2.4 -1.3,0 -2.4,1.1 -2.4,2.4 0,1.3 1.1,2.4 2.4,2.4 1.4,-0.1 2.4,-1.1 2.4,-2.4 z"
       id="path72"
       inkscape:connector-curvature="0"
       style="fill:#ffffff" />
    <path
       class="st11"
       d="m 224,89 c 0,-0.9 -0.7,-1.6 -1.6,-1.6 -0.9,0 -1.6,0.7 -1.6,1.6 0,0.9 0.7,1.6 1.6,1.6 0.9,0 1.6,-0.7 1.6,-1.6 z"
       id="path74"
       inkscape:connector-curvature="0"
       style="fill:#ffffff" />
    <path
       class="st11"
       d="m 62.7,195.2 c 0,-1.2 -1,-2.2 -2.2,-2.2 -1.2,0 -2.2,1 -2.2,2.2 0,1.2 1,2.2 2.2,2.2 1.2,0 2.2,-1 2.2,-2.2 z"
       id="path76"
       inkscape:connector-curvature="0"
       style="fill:#ffffff" />
    <path
       class="st11"
       d="m 80.3,244.9 c 0,-1 -0.8,-1.8 -1.8,-1.8 -1,0 -1.8,0.8 -1.8,1.8 0,1 0.8,1.8 1.8,1.8 0.9,0 1.8,-0.8 1.8,-1.8 z"
       id="path78"
       inkscape:connector-curvature="0"
       style="fill:#ffffff" />
    <path
       class="st11"
       d="m 132.9,367.2 c 0,-1 -0.8,-1.8 -1.8,-1.8 -1,0 -1.8,0.8 -1.8,1.8 0,1 0.8,1.8 1.8,1.8 1,0 1.8,-0.8 1.8,-1.8 z"
       id="path80"
       inkscape:connector-curvature="0"
       style="fill:#ffffff" />
    <path
       class="st11"
       d="m 45.4,297.2 c 0,-1 -0.8,-1.8 -1.8,-1.8 -1,0 -1.8,0.8 -1.8,1.8 0,1 0.8,1.8 1.8,1.8 0.9,0 1.8,-0.8 1.8,-1.8 z"
       id="path82"
       inkscape:connector-curvature="0"
       style="fill:#ffffff" />
    <path
       class="st11"
       d="m 417.1,263.7 c 0,-1 -0.8,-1.8 -1.8,-1.8 -1,0 -1.8,0.8 -1.8,1.8 0,1 0.8,1.8 1.8,1.8 1,0 1.8,-0.8 1.8,-1.8 z"
       id="path84"
       inkscape:connector-curvature="0"
       style="fill:#ffffff" />
  </g>
</svg>
