<?xml version="1.0" encoding="UTF-8" standalone="no"?>
<svg
   xmlns:dc="http://purl.org/dc/elements/1.1/"
   xmlns:cc="http://creativecommons.org/ns#"
   xmlns:rdf="http://www.w3.org/1999/02/22-rdf-syntax-ns#"
   xmlns:svg="http://www.w3.org/2000/svg"
   xmlns="http://www.w3.org/2000/svg"
   xmlns:xlink="http://www.w3.org/1999/xlink"
   xmlns:sodipodi="http://sodipodi.sourceforge.net/DTD/sodipodi-0.dtd"
   xmlns:inkscape="http://www.inkscape.org/namespaces/inkscape"
   version="1.1"
   id="Layer_1"
   x="0px"
   y="0px"
   viewBox="0 0 600.10596 351.69495"
   sodipodi:docname="summary1.svg"
   width="600.10596"
   height="351.69495"
   inkscape:version="0.92.5 (2060ec1f9f, 2020-04-08)">
  <metadata
     id="metadata93">
    <rdf:RDF>
      <cc:Work
         rdf:about="">
        <dc:format>image/svg+xml</dc:format>
        <dc:type
           rdf:resource="http://purl.org/dc/dcmitype/StillImage" />
        <dc:title></dc:title>
      </cc:Work>
    </rdf:RDF>
  </metadata>
  <defs
     id="defs91">
    <defs
       id="defs15">
      <circle
         r="100.6"
         cy="250.2"
         cx="245.3"
         transform="matrix(0.9926,-0.1217,0.1217,0.9926,-28.6265,31.7133)"
         id="SVGID_1_" />
    </defs>
    <clipPath
       id="SVGID_2_">
      <use
         height="100%"
         width="100%"
         y="0"
         x="0"
         id="use17"
         style="overflow:visible"
         xlink:href="#SVGID_1_" />
    </clipPath>
    <defs
       id="defs15-5">
      <circle
         id="SVGID_1_-3"
         transform="matrix(0.9926,-0.1217,0.1217,0.9926,-28.6265,31.7133)"
         cx="245.3"
         cy="250.2"
         r="100.6" />
    </defs>
    <clipPath
       id="SVGID_2_-5">
      <use
         xlink:href="#SVGID_1_-3"
         style="overflow:visible"
         id="use17-6"
         x="0"
         y="0"
         width="100%"
         height="100%" />
    </clipPath>
    <circle
       id="circle992"
       transform="matrix(0.9926,-0.1217,0.1217,0.9926,-28.6265,31.7133)"
       cx="245.3"
       cy="250.2"
       r="100.6" />
    <circle
       r="100.6"
       cy="250.2"
       cx="245.3"
       transform="matrix(0.9926,-0.1217,0.1217,0.9926,-28.6265,31.7133)"
       id="SVGID_1_-2" />
    <defs
       id="defs15-6">
      <circle
         r="100.6"
         cy="250.2"
         cx="245.3"
         transform="matrix(0.9926,-0.1217,0.1217,0.9926,-28.6265,31.7133)"
         id="circle1110" />
    </defs>
    <clipPath
       id="SVGID_2_-6">
      <use
         height="100%"
         width="100%"
         y="0"
         x="0"
         id="use17-1"
         style="overflow:visible"
         xlink:href="#SVGID_1_-2" />
    </clipPath>
    <linearGradient
       id="linearGradient4478">
      <stop
         id="stop4480"
         offset="0"
         style="stop-color:#330d0d;stop-opacity:0.99607849" />
      <stop
         style="stop-color:#fa4c4c;stop-opacity:1"
         offset="0.47511348"
         id="stop4486" />
      <stop
         id="stop4482"
         offset="1"
         style="stop-color:#ff8a65;stop-opacity:1" />
    </linearGradient>
    <linearGradient
       id="linearGradient19920">
      <stop
         id="stop19922"
         offset="0"
         style="stop-color:#757575;stop-opacity:1;" />
    </linearGradient>
    <linearGradient
       id="linearGradient6205">
      <stop
         style="stop-color:#d50000;stop-opacity:1"
         offset="0"
         id="stop6207" />
      <stop
         id="stop6209"
         offset="0.39729255"
         style="stop-color:#ce93d8;stop-opacity:1" />
      <stop
         style="stop-color:#00bfa5;stop-opacity:1"
         offset="0.95597363"
         id="stop6211" />
      <stop
         style="stop-color:#4a148c;stop-opacity:1"
         offset="1"
         id="stop6213" />
    </linearGradient>
    <linearGradient
       id="linearGradient4471-9">
      <stop
         id="stop4473-4"
         offset="0"
         style="stop-color:#426c40;stop-opacity:1" />
      <stop
         id="stop4475-8"
         offset="1"
         style="stop-color:#558a52;stop-opacity:1" />
    </linearGradient>
    <linearGradient
       xlink:href="#linearGradient4471-9"
       id="linearGradient4496"
       gradientUnits="userSpaceOnUse"
       x1="7.007309"
       y1="3.2116654"
       x2="581.60583"
       y2="1096.3503" />
    <linearGradient
       y2="382.15875"
       x2="230.20682"
       y1="354.3468"
       x1="230.20682"
       gradientUnits="userSpaceOnUse"
       id="linearGradient20006"
       xlink:href="#linearGradient19920" />
    <linearGradient
       y2="382.15875"
       x2="230.20682"
       y1="354.3468"
       x1="230.20682"
       gradientTransform="translate(133.48906,-211.35767)"
       gradientUnits="userSpaceOnUse"
       id="linearGradient20014"
       xlink:href="#linearGradient19920" />
    <linearGradient
       id="linearGradient4274-6">
      <stop
         id="stop4276-1"
         offset="0"
         style="stop-color:#ffffff;stop-opacity:1" />
      <stop
         id="stop4278-5"
         offset="1"
         style="stop-color:#fdebd3;stop-opacity:1" />
    </linearGradient>
    <radialGradient
       xlink:href="#linearGradient4274-6"
       id="radialGradient4297"
       gradientUnits="userSpaceOnUse"
       gradientTransform="matrix(2.1621406,0,0,2.1259843,410.81632,236.25)"
       cx="253.99998"
       cy="142.875"
       fx="253.99998"
       fy="142.875"
       r="254" />
    <clipPath
       id="clipPath4349"
       clipPathUnits="userSpaceOnUse">
      <rect
         y="53.743385"
         x="68.801964"
         height="218.40622"
         width="217.6062"
         id="rect4351"
         style="color:#000000;fill:#f64c01;fill-opacity:1;fill-rule:nonzero;stroke:#000000;stroke-width:0.52916664;stroke-linecap:butt;stroke-linejoin:miter;stroke-miterlimit:4;stroke-opacity:1;stroke-dasharray:none;stroke-dashoffset:0;marker:none;visibility:visible;display:inline;overflow:visible;enable-background:accumulate" />
    </clipPath>
    <radialGradient
       gradientUnits="userSpaceOnUse"
       gradientTransform="matrix(0.4545364,0,0,0.43984233,138.54774,80.032528)"
       r="254"
       fy="142.875"
       fx="254"
       cy="142.875"
       cx="254"
       id="radialGradient4268-2"
       xlink:href="#linearGradient4262-0" />
    <linearGradient
       id="linearGradient4262-0">
      <stop
         id="stop4264-0"
         offset="0"
         style="stop-color:#e0dde4;stop-opacity:1" />
      <stop
         id="stop4266-1"
         offset="1"
         style="stop-color:#dbaa8a;stop-opacity:1" />
    </linearGradient>
    <radialGradient
       gradientUnits="userSpaceOnUse"
       gradientTransform="matrix(1.5429579,-1.2431516,1.4061869,1.7453305,140.49958,709.76371)"
       r="210.91946"
       fy="-160.18578"
       fx="243.00388"
       cy="-160.18578"
       cx="243.00388"
       id="radialGradient4484"
       xlink:href="#linearGradient4478" />
    <radialGradient
       r="210.91946"
       fy="-160.18578"
       fx="243.00388"
       cy="-160.18578"
       cx="243.00388"
       gradientTransform="matrix(1.5429579,-1.2431516,1.4061869,1.7453305,140.49958,709.76371)"
       gradientUnits="userSpaceOnUse"
       id="radialGradient4606"
       xlink:href="#linearGradient4478" />
    <radialGradient
       r="210.91946"
       fy="-160.18578"
       fx="243.00388"
       cy="-160.18578"
       cx="243.00388"
       gradientTransform="matrix(1.5429579,-1.2431516,1.4061869,1.7453305,140.49958,709.76371)"
       gradientUnits="userSpaceOnUse"
       id="radialGradient4678"
       xlink:href="#linearGradient4478" />
    <radialGradient
       r="210.91946"
       fy="-151.9949"
       fx="247.87094"
       cy="-151.9949"
       cx="247.87094"
       gradientTransform="matrix(1.5429579,-1.2431516,1.4061869,1.7453305,140.49958,709.76371)"
       gradientUnits="userSpaceOnUse"
       id="radialGradient4700"
       xlink:href="#linearGradient4478" />
    <clipPath
       clipPathUnits="userSpaceOnUse"
       id="clipPath3028-9">
      <path
         d="m 0,207.251 67.044,0 L 67.044,0 0,0 0,207.251 z"
         id="path3030-7" />
    </clipPath>
    <clipPath
       clipPathUnits="userSpaceOnUse"
       id="clipPath6828">
      <path
         d="m 0,207.251 67.044,0 L 67.044,0 0,0 0,207.251 z"
         id="path6830" />
    </clipPath>
    <clipPath
       clipPathUnits="userSpaceOnUse"
       id="clipPath3028-9-1">
      <path
         d="m 0,207.251 67.044,0 L 67.044,0 0,0 0,207.251 z"
         id="path3030-7-7" />
    </clipPath>
    <clipPath
       clipPathUnits="userSpaceOnUse"
       id="clipPath3814">
      <path
         d="m 0,207.251 67.044,0 L 67.044,0 0,0 0,207.251 z"
         id="path3816" />
    </clipPath>
    <clipPath
       clipPathUnits="userSpaceOnUse"
       id="clipPath3028-9-1-8">
      <path
         d="m 0,207.251 67.044,0 L 67.044,0 0,0 0,207.251 z"
         id="path3030-7-7-0" />
    </clipPath>
    <clipPath
       clipPathUnits="userSpaceOnUse"
       id="clipPath4991">
      <path
         d="m 0,207.251 67.044,0 L 67.044,0 0,0 0,207.251 z"
         id="path4993" />
    </clipPath>
    <pattern
       y="0"
       x="0"
       height="6"
       width="6"
       patternUnits="userSpaceOnUse"
       id="EMFhbasepattern" />
    <clipPath
       id="clipEmfPath1"
       clipPathUnits="userSpaceOnUse">
      <path
         id="path7"
         d="m 4.04729,-0.1499 714.57171,0 0,452.2469 -714.57171,0 z" />
    </clipPath>
    <style
       type="text/css"
       id="style3112"> .str0 {stroke:#FECC00;stroke-width:20} .fil4 {fill:none} .fil3 {fill:#FECC00} .fil2 {fill:black} .fil0 {fill:#1A1813} .fil1 {fill:#F5CA2F;fill-rule:nonzero} </style>
    <style
       type="text/css"
       id="style3149"> .fil1 {fill:#2B2A29} .fil0 {fill:#FECC00} .fil2 {fill:#FEFEFE} </style>
    <pattern
       y="0"
       x="0"
       height="6"
       width="6"
       patternUnits="userSpaceOnUse"
       id="EMFhbasepattern-4" />
    <clipPath
       id="clipEmfPath1-1"
       clipPathUnits="userSpaceOnUse">
      <path
         id="path7-7"
         d="M -0.449699,0 1049.3,0 l 0,654.462 -1049.749699,0 z" />
    </clipPath>
  </defs>
  <sodipodi:namedview
     pagecolor="#ffffff"
     bordercolor="#666666"
     borderopacity="1"
     objecttolerance="10"
     gridtolerance="10"
     guidetolerance="10"
     inkscape:pageopacity="0"
     inkscape:pageshadow="2"
     inkscape:window-width="2560"
     inkscape:window-height="1305"
     id="namedview89"
     showgrid="false"
     inkscape:zoom="1.888"
     inkscape:cx="430.1405"
     inkscape:cy="197.24239"
     inkscape:window-x="2560"
     inkscape:window-y="0"
     inkscape:window-maximized="1"
     inkscape:current-layer="Layer_1"
     showguides="false" />
  <style
     type="text/css"
     id="style2"> .st0{fill:#878787;} .st1{opacity:0.3;} .st2{fill:#45BBC6;} .st3{clip-path:url(#SVGID_2_);} .st4{fill:#CCE4C4;} .st5{opacity:0.5;} .st6{fill:#F1F8EF;} .st7{fill:#1E4C4C;} .st8{fill:#FCC020;} .st9{fill:#1A7C7B;} .st10{opacity:0.2;fill:#1E4C4C;} .st11{fill:#FFFFFF;} </style>
  <style
     id="style2-9"
     type="text/css"> .st0{fill:#878787;} .st1{opacity:0.3;} .st2{fill:#45BBC6;} .st3{clip-path:url(#SVGID_2_);} .st4{fill:#CCE4C4;} .st5{opacity:0.5;} .st6{fill:#F1F8EF;} .st7{fill:#1E4C4C;} .st8{fill:#FCC020;} .st9{fill:#1A7C7B;} .st10{opacity:0.2;fill:#1E4C4C;} .st11{fill:#FFFFFF;} </style>
  <style
     id="style2-93"
     type="text/css"> .st0{fill:#878787;} .st1{opacity:0.3;} .st2{fill:#45BBC6;} .st3{clip-path:url(#SVGID_2_);} .st4{fill:#CCE4C4;} .st5{opacity:0.5;} .st6{fill:#F1F8EF;} .st7{fill:#1E4C4C;} .st8{fill:#FCC020;} .st9{fill:#1A7C7B;} .st10{opacity:0.2;fill:#1E4C4C;} .st11{fill:#FFFFFF;} </style>
  <rect
     class="st0"
     width="271.68466"
     height="230.29744"
     id="rect4-6"
     x="2.7447476"
     y="1.5600516"
     style="fill:#878787;stroke-width:0.50027305" />
  <path
     d="m 131.84552,220.66778 c 0,1.37513 26.97863,2.48833 60.30905,2.48833 33.26494,0 60.30907,-1.1132 60.30907,-2.48833 0,-1.37512 -26.97865,-2.48832 -60.30907,-2.48832 -33.33042,0 -60.30905,1.1132 -60.30905,2.48832 z"
     id="path6-0"
     inkscape:connector-curvature="0"
     style="stroke-width:0.65482157" />
  <circle
     style="fill:#45bbc6;stroke-width:0.65481913"
     r="68.886971"
     id="ellipse10"
     cy="141.95747"
     cx="103.32225"
     class="st2"
     transform="rotate(-11.817837)" />
  <g
     id="g44"
     clip-path="url(#SVGID_2_)"
     class="st3"
     transform="matrix(0.65482158,0,0,0.65482158,-30.746697,-46.302978)">
    <g
       id="g22">
      <path
         style="fill:#cce4c4"
         inkscape:connector-curvature="0"
         id="path20"
         d="m 449.6,212.7 c 1.2,0.7 2.7,1.2 3.6,2.1 2.6,2.6 5,5.3 7.4,8.1 1.1,1.2 2,1.4 3,0.1 1.5,-2.1 2.9,-4.4 4.6,-6.4 3.2,-3.7 3.1,-8.9 -0.9,-11.8 -3.6,-2.6 -7.3,-5 -10.9,-7.4 -1.3,-0.8 -2.1,-1.6 0,-2.4 0.6,-0.2 1.2,-0.7 1.9,-0.8 4.8,-0.4 9.6,-0.9 14.4,-1.1 3.3,-0.2 6.3,-1 8.1,-3.7 2.4,-3.4 4.3,-7.1 6.2,-10.8 0.9,-1.9 -0.4,-4.7 -2.4,-5.4 -1.8,-0.6 -3.7,-1.2 -5.6,-1.2 -5.5,-0.2 -10.9,-0.1 -16.4,-0.2 -2.6,-0.1 -5.2,-0.6 -7.9,-0.6 -4.6,0 -9.3,0.5 -13.9,0.5 -5.5,0 -11,-0.1 -16.5,-0.6 -4,-0.4 -7.8,-1.7 -11.8,-2.2 -6.2,-0.9 -12.5,-0.7 -18.4,-3.2 -1.4,-0.6 -3.2,-1.1 -4.5,-0.6 -4,1.6 -8.1,3.3 -11.8,5.6 -6.4,4 -13.1,6.6 -20.8,5.8 -3.6,-0.4 -7.1,-0.7 -10.7,-1.2 -3.8,-0.6 -7.5,-1.6 -11.3,-2.1 -7.1,-0.9 -13,2.5 -18.8,6 -2.5,1.5 -2.6,3.1 -1.2,5.7 1.2,2.1 2.4,4.1 3.5,6.2 1.4,2.6 2.5,2.8 5.2,1.6 3,-1.3 6,-2.4 9.1,-3.5 2,-0.7 3.1,0.7 3.5,2.4 0.8,4.1 -1.7,6.9 -5.9,6.9 -8.4,0 -16.8,-0.1 -25.1,-0.1 -1.3,0 -2.7,0.4 -3.9,0.9 -1.7,0.7 -3.3,1.7 -5.1,2.4 -2,0.7 -3.5,1.7 -3.3,4 0.3,2.3 0.6,4.6 1.2,6.9 1.5,5.8 5.5,8.1 10.9,5.8 5,-2.1 9.8,-4.7 14.8,-6.9 1.6,-0.7 3.7,-1.5 5,-0.9 4.3,1.8 8.8,2.8 13.4,2.7 2.6,0 5.3,-0.1 7.9,0 3.4,0.2 4.7,2.8 2.8,5.6 -0.6,0.8 -1.3,1.5 -2.1,2.2 -4.6,4.4 -9.6,8.1 -16.5,6.9 -3.4,-0.6 -6.8,-1.3 -10.1,-2.3 -6.4,-2.1 -13,-3.5 -19.8,-2.9 -3.8,0.3 -6.9,2.2 -9.4,4.9 -2.8,3.1 -5.1,6.6 -7.8,9.7 -7,7.8 -6.6,10.2 0.4,17 5.4,5.3 11.6,9.6 19.3,10.8 4.1,0.7 8.3,0.9 12.5,1.2 1.6,0.1 2.4,0.5 2.1,2.4 -0.5,3.2 -1.1,6.4 -1.1,9.6 0,5.3 0.5,10.6 0.8,16 0.3,4.3 2.3,7.7 5.3,10.8 2.5,2.5 4.8,5.3 7.1,8 1.1,1.3 2,2.7 3.1,4 1.1,1.3 2.6,1.5 3.8,0.3 2.5,-2.6 5.6,-4.9 7.1,-8 4,-8.3 7.6,-16.8 10.7,-25.4 2.6,-7.2 6.3,-13 13.1,-16.9 3.4,-1.9 6.5,-4.6 9.4,-7.2 2.4,-2.1 2,-3.2 -0.8,-4.5 -1,-0.4 -2.2,-0.7 -3.1,-1.2 -8.7,-4.9 -15.9,-11.5 -22.2,-19.1 -1,-1.2 -1.3,-2.9 -1.9,-4.4 3.3,-1.1 4.5,0.9 5.3,2.6 3.9,7.4 10.2,11.4 17.9,13.7 2.3,0.7 4.6,0.3 6.3,-1.8 2.9,-3.6 2.8,-5 -0.1,-8.5 -2.8,-3.4 -5.2,-7.1 -7.8,-10.6 0,0 0.1,-0.2 0.2,-0.6 2.5,0.9 5.1,1.7 7.6,2.7 4.4,1.9 9.2,3.5 12.3,7.4 3.3,4.2 6.6,8.4 9.8,12.7 1.3,1.8 2.3,3.9 3.8,5.4 0.8,0.8 2.6,1.2 3.8,0.9 1,-0.3 2.3,-1.6 2.5,-2.7 0.7,-2.6 0.9,-5.3 1.2,-8 0.8,-7.5 5.5,-9.8 11.8,-5.8 2.3,1.5 4.2,3.4 6.3,5.2 3.4,2.9 6.5,6.2 10.3,8.5 5.3,3.2 6.3,2.7 9.7,-1.3 2.7,-3.2 2.8,-5.2 0.6,-8.5 -0.8,-1.1 -1.5,-2.2 -2.3,-3.3 -2.4,-3.7 -3.2,-7.7 -2.3,-11.9 1.2,-4.6 2.4,-8.9 3.8,-14.2 z"
         class="st4" />
    </g>
    <g
       id="g26">
      <path
         style="fill:#cce4c4"
         inkscape:connector-curvature="0"
         id="path24"
         d="m 183.1,235.7 c 5.5,-0.4 10.7,-0.8 16,-1.2 4.3,-0.3 7.6,-2.2 9.8,-6.1 1.1,-2 2.3,-4 3.8,-5.7 5.2,-6.2 11.5,-10.2 20,-9.5 4.5,0.3 7.9,-1.6 10.2,-5.3 1.4,-2.3 2.8,-4.7 3.7,-7.2 1.9,-5.8 0.5,-8.9 -5.1,-12 -1.1,-0.6 -2.3,-1.5 -3.5,-1.5 -4.1,-0.2 -8.3,-0.6 -12.3,0.1 -2.8,0.4 -4.3,0.8 -5.9,-1.7 -1.2,-1.8 -0.8,-3.5 0.7,-5.1 0.5,-0.5 0.7,-2 0.6,-2.1 -2.9,-1.1 -4.7,-3.4 -6.4,-5.8 -0.2,-0.3 -0.7,-0.6 -1.1,-0.6 -6.5,-0.2 -12.9,-1 -19,3.4 -5.8,4.2 -12.7,4.6 -19.3,0.9 -4.3,-2.4 -8,-5.7 -13,-6.9 -5.2,-1.2 -9.8,-1.1 -14.3,2.2 -4.2,3.1 -8.5,6.2 -13.2,8.5 -3.4,1.7 -3.2,5.8 -0.7,7.5 4.8,3.4 10,5.9 16,5.4 3.2,-0.2 6.4,-0.8 9.7,-0.9 1.1,0 2.9,1 3.1,1.8 0.4,1.4 0,3.3 -0.6,4.7 -1.2,2.8 -2.8,5.4 -4.3,8.1 -3.2,5.7 -5.4,11.5 -4.5,18.3 0.4,2.9 -0.1,6 0.2,9 0.3,3.6 1.1,7.5 4.5,9.4 3.7,2.1 8,2.7 12.4,2 5.1,-0.8 10.3,-1.3 15,1.7 4.2,2.6 6,7.1 8.2,11.3 1.9,3.6 1.5,6.7 -1.9,9.2 -0.6,0.4 -0.8,1.3 -1.3,1.9 -1.5,1.7 -0.7,2.9 0.9,3.9 3.4,2.2 6.8,4.3 10.1,6.5 3.8,2.5 6.9,5.8 8.1,10.2 2.2,8.5 1.3,17.2 0.5,25.9 -0.5,5.7 0.4,11 3.7,15.8 3.2,4.6 7.7,7.3 12.7,9.3 5.6,2.2 9.5,-0.4 11.1,-4.6 1.6,-4.3 2.7,-8.9 3.9,-13.3 1.1,-4.1 2.5,-7.8 6,-10.6 2.1,-1.7 4.2,-3.7 5.5,-6 4.8,-8.6 6.6,-18.1 7.7,-27.7 0.2,-1.6 0.4,-3.3 0.7,-4.9 0.8,-3.7 -0.8,-7.7 -3.8,-8.7 -4,-1.3 -8.2,-2.1 -12.2,-3.4 -3.5,-1.1 -7,-2.2 -10.2,-3.8 -3.9,-1.9 -7.4,-5.1 -11.4,-6.5 -7.1,-2.4 -14.6,-3.6 -21.8,-5.5 -4.5,-1.2 -9.1,-2.6 -13.4,-4.5 -2.8,-1.1 -5.4,-2.7 -5.6,-5.9 z"
         class="st4" />
    </g>
    <g
       id="g30">
      <path
         style="fill:#cce4c4"
         inkscape:connector-curvature="0"
         id="path28"
         d="m 247.9,168.1 c 0.8,1.4 1.4,2.2 1.8,3 1.2,2.3 2.3,4.7 3.4,7 0.8,1.8 0.7,4.4 2.9,5.1 4.1,1.3 8.4,1.2 12.3,-0.3 5,-1.9 9.8,-4.4 14.6,-7 3.8,-2 7.6,-4.1 9.8,-8.2 0.7,-1.3 1.1,-2.3 -0.4,-3.6 -5.3,-4.4 -11.1,-7.9 -17.8,-9.1 -8.1,-1.5 -15.7,0.3 -21.8,6.3 -1.8,2.1 -3.1,4.5 -4.8,6.8 z"
         class="st4" />
    </g>
    <g
       style="opacity:0.5"
       id="g34"
       class="st5">
      <path
         style="fill:#cce4c4"
         inkscape:connector-curvature="0"
         id="path32"
         d="m 449.6,212.7 c -1.4,5.3 -2.6,9.6 -3.6,14 -0.9,4.2 -0.1,8.3 2.3,11.9 0.7,1.1 1.5,2.2 2.3,3.3 2.3,3.4 2.2,5.3 -0.6,8.5 -3.4,4 -4.5,4.5 -9.7,1.3 -3.8,-2.3 -6.9,-5.6 -10.3,-8.5 -2.1,-1.7 -4,-3.7 -6.3,-5.2 -6.3,-4.1 -11.1,-1.7 -11.8,5.8 -0.3,2.7 -0.5,5.4 -1.2,8 -0.3,1.1 -1.5,2.4 -2.5,2.7 -1.1,0.3 -3,-0.1 -3.8,-0.9 -1.5,-1.5 -2.5,-3.6 -3.8,-5.4 -3.2,-4.3 -6.4,-8.5 -9.8,-12.7 -3.2,-4 -7.9,-5.5 -12.3,-7.4 -2.5,-1.1 -5,-1.8 -7.6,-2.7 -0.2,0.5 -0.2,0.6 -0.2,0.6 2.6,3.6 5,7.2 7.8,10.6 2.9,3.4 3,4.9 0.1,8.5 -1.7,2.1 -4,2.5 -6.3,1.8 -7.7,-2.3 -14,-6.3 -17.9,-13.7 -0.9,-1.6 -2,-3.6 -5.3,-2.6 0.6,1.5 0.9,3.3 1.9,4.4 6.3,7.7 13.5,14.2 22.2,19.1 1,0.5 2.1,0.8 3.1,1.2 2.8,1.2 3.2,2.3 0.8,4.5 -2.9,2.6 -6,5.3 -9.4,7.2 -6.8,3.9 -10.5,9.7 -13.1,16.9 -3.1,8.6 -6.7,17.1 -10.7,25.4 -1.5,3.1 -4.6,5.4 -7.1,8 -1.2,1.2 -2.7,1 -3.8,-0.3 -1.1,-1.3 -2,-2.7 -3.1,-4 -2.3,-2.7 -4.6,-5.4 -7.1,-8 -3,-3 -5.1,-6.5 -5.3,-10.8 -0.3,-5.3 -0.8,-10.6 -0.8,-16 0,-3.2 0.6,-6.4 1.1,-9.6 0.3,-1.9 -0.4,-2.3 -2.1,-2.4 -4.2,-0.3 -8.4,-0.5 -12.5,-1.2 -7.7,-1.3 -13.8,-5.5 -19.3,-10.8 -7,-6.9 -7.3,-9.2 -0.4,-17 2.8,-3.1 5.1,-6.6 7.8,-9.7 2.5,-2.8 5.5,-4.6 9.4,-4.9 6.8,-0.6 13.3,0.8 19.8,2.9 3.3,1.1 6.7,1.7 10.1,2.3 6.9,1.2 11.9,-2.5 16.5,-6.9 0.7,-0.7 1.5,-1.4 2.1,-2.2 1.9,-2.8 0.6,-5.4 -2.8,-5.6 -2.6,-0.2 -5.3,-0.1 -7.9,0 -4.7,0.1 -9.1,-0.9 -13.4,-2.7 -1.3,-0.6 -3.5,0.2 -5,0.9 -5,2.2 -9.8,4.8 -14.8,6.9 -5.4,2.2 -9.4,0 -10.9,-5.8 -0.6,-2.2 -1,-4.6 -1.2,-6.9 -0.3,-2.3 1.3,-3.3 3.3,-4 1.7,-0.6 3.3,-1.7 5.1,-2.4 1.2,-0.5 2.6,-0.9 3.9,-0.9 8.4,0 16.8,0.1 25.1,0.1 4.3,0 6.7,-2.9 5.9,-6.9 -0.3,-1.6 -1.5,-3 -3.5,-2.4 -3.1,1 -6.1,2.1 -9.1,3.5 -2.7,1.2 -3.8,1 -5.2,-1.6 -1.2,-2.1 -2.3,-4.2 -3.5,-6.2 -1.4,-2.5 -1.3,-4.2 1.2,-5.7 5.8,-3.4 11.6,-6.9 18.8,-6 3.8,0.5 7.5,1.5 11.3,2.1 3.5,0.5 7.1,0.8 10.7,1.2 7.7,0.8 14.4,-1.8 20.8,-5.8 3.7,-2.3 7.7,-4 11.8,-5.6 1.2,-0.5 3.1,0.1 4.5,0.6 5.9,2.5 12.3,2.3 18.4,3.2 3.9,0.5 7.8,1.8 11.8,2.2 5.5,0.5 11,0.6 16.5,0.6 4.6,0 9.3,-0.4 13.9,-0.5 2.6,0 5.2,0.6 7.9,0.6 5.5,0.1 10.9,0 16.4,0.2 1.9,0.1 3.8,0.6 5.6,1.2 2,0.7 3.3,3.5 2.4,5.4 -1.8,3.7 -3.8,7.4 -6.2,10.8 -1.8,2.7 -4.9,3.5 -8.1,3.7 -4.8,0.2 -9.6,0.7 -14.4,1.1 -0.6,0.1 -1.2,0.5 -1.9,0.8 -2.1,0.8 -1.3,1.6 0,2.4 3.7,2.5 7.4,4.8 10.9,7.4 3.9,2.9 4.1,8.1 0.9,11.8 -1.7,2 -3,4.3 -4.6,6.4 -1,1.3 -1.9,1.2 -3,-0.1 -2.4,-2.8 -4.8,-5.5 -7.4,-8.1 -1.1,-0.7 -2.6,-1.2 -3.8,-1.9 z"
         class="st4" />
    </g>
    <g
       style="opacity:0.5"
       id="g38"
       class="st5">
      <path
         style="fill:#cce4c4"
         inkscape:connector-curvature="0"
         id="path36"
         d="m 183.1,235.7 c 0.2,3.2 2.8,4.8 5.1,5.8 4.3,1.9 8.8,3.3 13.4,4.5 7.3,2 14.7,3.2 21.8,5.5 4.1,1.3 7.5,4.5 11.4,6.5 3.3,1.6 6.8,2.8 10.2,3.8 4,1.3 8.2,2.1 12.2,3.4 3.1,1 4.6,5 3.8,8.7 -0.3,1.6 -0.5,3.3 -0.7,4.9 -1,9.7 -2.8,19.2 -7.7,27.7 -1.3,2.3 -3.4,4.3 -5.5,6 -3.5,2.8 -4.9,6.5 -6,10.6 -1.2,4.5 -2.3,9 -3.9,13.3 -1.6,4.2 -5.5,6.8 -11.1,4.6 -5,-2 -9.5,-4.7 -12.7,-9.3 -3.3,-4.8 -4.2,-10.1 -3.7,-15.8 0.8,-8.7 1.7,-17.4 -0.5,-25.9 -1.1,-4.4 -4.3,-7.7 -8.1,-10.2 -3.3,-2.2 -6.7,-4.4 -10.1,-6.5 -1.6,-1 -2.4,-2.2 -0.9,-3.9 0.5,-0.6 0.7,-1.4 1.3,-1.9 3.4,-2.5 3.8,-5.5 1.9,-9.2 -2.2,-4.2 -4,-8.7 -8.2,-11.3 -4.7,-2.9 -9.9,-2.4 -15,-1.7 -4.4,0.7 -8.6,0 -12.4,-2 -3.4,-1.9 -4.2,-5.7 -4.5,-9.4 -0.2,-3 0.2,-6 -0.2,-9 -0.9,-6.8 1.4,-12.6 4.5,-18.3 1.5,-2.7 3,-5.3 4.3,-8.1 0.6,-1.4 1,-3.3 0.6,-4.7 -0.2,-0.8 -2,-1.8 -3.1,-1.8 -3.2,0 -6.4,0.6 -9.7,0.9 -6.1,0.4 -11.2,-2.1 -16,-5.4 -2.5,-1.7 -2.7,-5.8 0.7,-7.5 4.7,-2.3 9,-5.4 13.2,-8.5 4.5,-3.4 9.1,-3.4 14.3,-2.2 5,1.2 8.8,4.4 13,6.9 6.6,3.8 13.5,3.3 19.3,-0.9 6.1,-4.4 12.4,-3.5 19,-3.4 0.4,0 0.9,0.3 1.1,0.6 1.7,2.4 3.5,4.7 6.4,5.8 0.1,0 -0.2,1.6 -0.6,2.1 -1.5,1.6 -1.9,3.3 -0.7,5.1 1.6,2.5 3.1,2.1 5.9,1.7 4,-0.6 8.2,-0.3 12.3,-0.1 1.2,0.1 2.4,0.9 3.5,1.5 5.6,3.1 7,6.1 5.1,12 -0.8,2.5 -2.2,5 -3.7,7.2 -2.3,3.7 -5.7,5.6 -10.2,5.3 -8.5,-0.6 -14.9,3.3 -20,9.5 -1.4,1.7 -2.6,3.7 -3.8,5.7 -2.2,3.8 -5.5,5.7 -9.8,6.1 -4.7,0.5 -10,0.9 -15.5,1.3 z"
         class="st4" />
    </g>
    <g
       id="g42">
      <path
         style="fill:#cce4c4"
         inkscape:connector-curvature="0"
         id="path40"
         d="m 247.9,168.1 c 1.7,-2.3 3,-4.7 4.9,-6.6 6.1,-6 13.7,-7.8 21.8,-6.3 6.7,1.2 12.5,4.7 17.8,9.1 1.5,1.2 1,2.3 0.4,3.6 -2.1,4.1 -6,6.2 -9.8,8.2 -4.7,2.6 -9.5,5.1 -14.6,7 -3.9,1.4 -8.2,1.6 -12.3,0.3 -2.3,-0.7 -2.1,-3.3 -2.9,-5.1 -1.1,-2.4 -2.2,-4.7 -3.4,-7 -0.5,-1 -1,-1.8 -1.9,-3.2 z"
         class="st4" />
    </g>
  </g>
  <path
     class="st4"
     d="m 194.77387,179.15209 9.75683,6.87563 8.05431,-11.52486 -8.97106,-6.28629 c -2.61928,3.86345 -5.63146,7.46498 -8.84008,10.93552 z"
     id="path50-8"
     inkscape:connector-curvature="0"
     style="fill:#cce4c4;stroke-width:0.65482157" />
  <path
     class="st6"
     d="m 219.32967,117.7953 c 0,-49.17709 -40.0096,-89.121206 -89.12121,-89.121206 -15.91217,0 -30.842103,4.25634 -43.742095,11.590341 l 4.12538,9.560395 C 102.24756,43.014685 115.7369,39.020275 130.20846,39.020275 c 43.41467,0 78.77504,35.360365 78.77504,78.775025 0,43.41469 -35.36037,78.77505 -78.77504,78.77505 -43.414679,0 -78.775049,-35.36036 -78.775049,-78.77505 0,-12.57257 3.012175,-24.359354 8.250748,-34.901982 l -9.822326,-3.405073 c -5.565977,11.655825 -8.774598,24.621285 -8.774598,38.307055 0,49.17712 40.009586,89.12124 89.121225,89.12124 25.40707,0 48.32583,-10.73909 64.56541,-27.82993 3.20862,-3.40506 6.2208,-7.00659 8.90556,-10.93552 9.82233,-14.2751 15.65024,-31.62788 15.65024,-50.35579 z"
     id="path52"
     inkscape:connector-curvature="0"
     style="fill:#f1f8ef;stroke-width:0.65482157" />
  <path
     style="fill:#1e4c4c;stroke-width:0.65482157"
     inkscape:connector-curvature="0"
     id="path56"
     d="m 97.205437,77.916677 c -1.375118,-1.50609 -5.173082,-0.261929 -8.512674,2.750248 -3.33959,3.012179 -4.911172,6.67918 -3.601518,8.18527 1.37512,1.506089 5.173084,0.261929 8.512676,-2.750251 3.33959,-3.012179 4.976647,-6.67918 3.601516,-8.185267 z"
     class="st7" />
  <g
     id="g62"
     transform="matrix(0.65482158,0,0,0.65482158,-30.746697,-46.302978)">
    <path
       style="fill:#fcc020"
       inkscape:connector-curvature="0"
       id="path60"
       d="m 182.7,196.6 c 0,0 -46.7,-7.6 -57.6,-19.7 -10.9,-12 -10,-30.6 2,-41.6 12,-10.9 30.6,-10 41.6,2 10.9,12.1 14,59.3 14,59.3 z m -27.6,-50 c -4.7,-5.2 -12.8,-5.6 -18.1,-0.9 -5.2,4.7 -5.6,12.8 -0.9,18.1 4.7,5.2 12.8,5.6 18.1,0.9 5.3,-4.8 5.7,-12.9 0.9,-18.1 z"
       class="st8" />
  </g>
  <path
     style="fill:#1a7c7b;stroke-width:0.65482157"
     inkscape:connector-curvature="0"
     id="path68-7"
     d="m 202.63172,188.7125 46.75426,32.80655 1.76802,-1.70254 c 3.92894,-3.86344 7.07208,-8.44719 9.36396,-13.48932 l 0.85127,-1.83351 -46.75427,-32.80655 z"
     class="st9" />
  <path
     style="opacity:0.2;fill:#1e4c4c;stroke-width:0.65482157"
     inkscape:connector-curvature="0"
     id="path70"
     d="m 199.22664,118.84302 c 0,-38.568989 -31.23499,-69.803975 -69.80398,-69.803975 0,64.827335 0,72.423265 0,137.643495 38.56899,-0.0655 69.80398,-29.33601 69.80398,-67.83952 z"
     class="st10" />
  <g
     id="g1326"
     transform="matrix(0.36597359,0,0,0.36597359,46.713925,37.588499)">
    <path
       id="path1303"
       d="M 50,5 C 25.187,5 5,25.187 5,50 5,74.813 25.187,95 50,95 74.814,95 95,74.812 95,50 95,25.187 74.814,5 50,5 Z m 0,84.204 C 28.383,89.204 10.796,71.617 10.796,50 10.796,28.383 28.382,10.796 50,10.796 71.619,10.796 89.205,28.383 89.205,50 89.205,71.617 71.618,89.204 50,89.204 Z"
       inkscape:connector-curvature="0" />
    <path
       id="path1305"
       d="M 50,10.796 C 28.382,10.796 10.796,28.383 10.796,50 10.796,71.617 28.383,89.204 50,89.204 71.618,89.204 89.205,71.617 89.205,50 89.205,28.383 71.619,10.796 50,10.796 Z m 13.063,13.913 c 4.121,0 7.463,5.19 7.463,11.592 0,6.402 -3.342,11.592 -7.463,11.592 -4.121,0 -7.461,-5.19 -7.461,-11.592 0,-6.402 3.339,-11.592 7.461,-11.592 z m -26.066,0 c 4.121,0 7.462,5.19 7.462,11.592 0,6.402 -3.341,11.592 -7.462,11.592 -4.121,0 -7.462,-5.19 -7.462,-11.592 0,-6.402 3.341,-11.592 7.462,-11.592 z M 72.865,63.725 C 68.12,71.456 59.42,76.259 50.161,76.259 c -9.502,0 -18.314,-4.993 -22.999,-13.03 -0.807,-1.383 -0.338,-3.158 1.044,-3.963 1.383,-0.809 3.158,-0.339 3.963,1.043 3.651,6.265 10.545,10.153 17.992,10.153 7.259,0 14.065,-3.744 17.764,-9.771 0.839,-1.363 2.622,-1.791 3.985,-0.953 1.363,0.837 1.792,2.621 0.955,3.987 z"
       inkscape:connector-curvature="0"
       style="fill:#fff200" />
    <ellipse
       id="ellipse1307"
       ry="11.592"
       rx="7.4619999"
       cy="36.300999"
       cx="36.997002" />
    <ellipse
       id="ellipse1309"
       ry="11.592"
       rx="7.4629998"
       cy="36.300999"
       cx="63.063" />
    <path
       id="path1311"
       d="m 71.91,59.738 c -1.363,-0.838 -3.146,-0.41 -3.985,0.953 -3.698,6.025 -10.505,9.771 -17.764,9.771 -7.447,0 -14.341,-3.89 -17.992,-10.153 -0.805,-1.382 -2.58,-1.852 -3.963,-1.043 -1.382,0.805 -1.851,2.579 -1.044,3.963 4.685,8.037 13.497,13.03 22.999,13.03 9.259,0 17.959,-4.803 22.704,-12.534 0.837,-1.366 0.408,-3.15 -0.955,-3.987 z"
       inkscape:connector-curvature="0" />
  </g>
</svg>
