<?xml version="1.0" encoding="utf-8"?> 
<svg width="463" height="192" viewBox="0 0 463 192" fill="none" xmlns="http://www.w3.org/2000/svg">
<rect width="463" height="192" fill="white"/>
<rect x="95" y="15" width="264" height="39" fill="#828282"/>
<path d="M197.953 37.6602H192.592L191.388 41H189.647L194.534 28.2031H196.011L200.906 41H199.175L197.953 37.6602ZM193.102 36.2715H197.452L195.272 30.2861L193.102 36.2715ZM204.316 35.9902V41H202.629V28.2031H207.349C208.749 28.2031 209.845 28.5605 210.636 29.2754C211.433 29.9902 211.831 30.9365 211.831 32.1143C211.831 33.3564 211.441 34.3145 210.662 34.9883C209.889 35.6562 208.778 35.9902 207.331 35.9902H204.316ZM204.316 34.6104H207.349C208.251 34.6104 208.942 34.3994 209.423 33.9775C209.903 33.5498 210.144 32.9346 210.144 32.1318C210.144 31.3701 209.903 30.7607 209.423 30.3037C208.942 29.8467 208.283 29.6094 207.445 29.5918H204.316V34.6104ZM215.795 41H214.107V28.2031H215.795V41ZM227.124 35.2959C225.677 34.8799 224.622 34.3701 223.96 33.7666C223.304 33.1572 222.976 32.4072 222.976 31.5166C222.976 30.5088 223.377 29.6768 224.18 29.0205C224.988 28.3584 226.037 28.0273 227.326 28.0273C228.205 28.0273 228.987 28.1973 229.673 28.5371C230.364 28.877 230.897 29.3457 231.272 29.9434C231.653 30.541 231.844 31.1943 231.844 31.9033H230.147C230.147 31.1299 229.901 30.5234 229.409 30.084C228.917 29.6387 228.223 29.416 227.326 29.416C226.494 29.416 225.844 29.6006 225.375 29.9697C224.912 30.333 224.681 30.8398 224.681 31.4902C224.681 32.0117 224.9 32.4541 225.34 32.8174C225.785 33.1748 226.538 33.5029 227.599 33.8018C228.665 34.1006 229.497 34.4316 230.095 34.7949C230.698 35.1523 231.144 35.5713 231.431 36.0518C231.724 36.5322 231.87 37.0977 231.87 37.748C231.87 38.7852 231.466 39.6172 230.657 40.2441C229.849 40.8652 228.768 41.1758 227.414 41.1758C226.535 41.1758 225.715 41.0088 224.953 40.6748C224.191 40.335 223.603 39.8721 223.187 39.2861C222.776 38.7002 222.571 38.0352 222.571 37.291H224.268C224.268 38.0645 224.552 38.6768 225.12 39.1279C225.694 39.5732 226.459 39.7959 227.414 39.7959C228.305 39.7959 228.987 39.6143 229.462 39.251C229.937 38.8877 230.174 38.3926 230.174 37.7656C230.174 37.1387 229.954 36.6553 229.515 36.3154C229.075 35.9697 228.278 35.6299 227.124 35.2959ZM237.732 41.1758C236.443 41.1758 235.395 40.7539 234.586 39.9102C233.777 39.0605 233.373 37.9268 233.373 36.5088V36.21C233.373 35.2666 233.552 34.4258 233.909 33.6875C234.272 32.9434 234.776 32.3633 235.421 31.9473C236.071 31.5254 236.774 31.3145 237.53 31.3145C238.767 31.3145 239.728 31.7217 240.413 32.5361C241.099 33.3506 241.441 34.5166 241.441 36.0342V36.7109H234.999C235.022 37.6484 235.295 38.4072 235.816 38.9873C236.344 39.5615 237.012 39.8486 237.82 39.8486C238.395 39.8486 238.881 39.7314 239.279 39.4971C239.678 39.2627 240.026 38.9521 240.325 38.5654L241.318 39.3389C240.521 40.5635 239.326 41.1758 237.732 41.1758ZM237.53 32.6504C236.874 32.6504 236.323 32.8906 235.878 33.3711C235.433 33.8457 235.157 34.5137 235.052 35.375H239.815V35.252C239.769 34.4258 239.546 33.7871 239.147 33.3359C238.749 32.8789 238.21 32.6504 237.53 32.6504ZM247.928 32.9492C247.682 32.9082 247.415 32.8877 247.128 32.8877C246.062 32.8877 245.338 33.3418 244.957 34.25V41H243.331V31.4902H244.913L244.939 32.5889C245.473 31.7393 246.229 31.3145 247.207 31.3145C247.523 31.3145 247.764 31.3555 247.928 31.4375V32.9492ZM252.727 38.7939L255.082 31.4902H256.743L253.333 41H252.094L248.648 31.4902H250.31L252.727 38.7939ZM262.131 41.1758C260.842 41.1758 259.793 40.7539 258.984 39.9102C258.176 39.0605 257.771 37.9268 257.771 36.5088V36.21C257.771 35.2666 257.95 34.4258 258.308 33.6875C258.671 32.9434 259.175 32.3633 259.819 31.9473C260.47 31.5254 261.173 31.3145 261.929 31.3145C263.165 31.3145 264.126 31.7217 264.812 32.5361C265.497 33.3506 265.84 34.5166 265.84 36.0342V36.7109H259.397C259.421 37.6484 259.693 38.4072 260.215 38.9873C260.742 39.5615 261.41 39.8486 262.219 39.8486C262.793 39.8486 263.279 39.7314 263.678 39.4971C264.076 39.2627 264.425 38.9521 264.724 38.5654L265.717 39.3389C264.92 40.5635 263.725 41.1758 262.131 41.1758ZM261.929 32.6504C261.272 32.6504 260.722 32.8906 260.276 33.3711C259.831 33.8457 259.556 34.5137 259.45 35.375H264.214V35.252C264.167 34.4258 263.944 33.7871 263.546 33.3359C263.147 32.8789 262.608 32.6504 261.929 32.6504ZM272.326 32.9492C272.08 32.9082 271.813 32.8877 271.526 32.8877C270.46 32.8877 269.736 33.3418 269.355 34.25V41H267.729V31.4902H269.312L269.338 32.5889C269.871 31.7393 270.627 31.3145 271.605 31.3145C271.922 31.3145 272.162 31.3555 272.326 31.4375V32.9492Z" fill="white"/>
<path d="M163.061 59.9393C162.475 59.3535 161.525 59.3535 160.939 59.9393L151.393 69.4853C150.808 70.0711 150.808 71.0208 151.393 71.6066C151.979 72.1924 152.929 72.1924 153.515 71.6066L162 63.1213L170.485 71.6066C171.071 72.1924 172.021 72.1924 172.607 71.6066C173.192 71.0208 173.192 70.0711 172.607 69.4853L163.061 59.9393ZM163.5 169L163.5 61L160.5 61L160.5 169L163.5 169Z" fill="#2D9CDB"/>
<path d="M112.75 97.333L113.682 97.9658C113.137 98.71 112.855 99.5127 112.838 100.374V101.569H111.221V100.55C111.221 99.9521 111.361 99.3604 111.643 98.7744C111.93 98.1885 112.299 97.708 112.75 97.333ZM124.914 109.321C124.48 109.942 123.874 110.408 123.095 110.719C122.321 111.023 121.419 111.176 120.388 111.176C119.345 111.176 118.419 110.933 117.61 110.446C116.802 109.954 116.175 109.257 115.729 108.354C115.29 107.452 115.064 106.406 115.053 105.217V104.101C115.053 102.173 115.501 100.679 116.397 99.6182C117.3 98.5576 118.565 98.0273 120.194 98.0273C121.53 98.0273 122.605 98.3701 123.42 99.0557C124.234 99.7354 124.732 100.702 124.914 101.956H123.227C122.91 100.263 121.902 99.416 120.203 99.416C119.072 99.416 118.214 99.8145 117.628 100.611C117.048 101.402 116.755 102.551 116.749 104.057V105.103C116.749 106.538 117.077 107.681 117.733 108.53C118.39 109.374 119.277 109.796 120.396 109.796C121.029 109.796 121.583 109.726 122.058 109.585C122.532 109.444 122.925 109.207 123.235 108.873V105.999H120.273V104.628H124.914V109.321ZM134.969 105.085H129.423V109.62H135.865V111H127.735V98.2031H135.777V99.5918H129.423V103.705H134.969V105.085ZM146.983 99.5918H142.87V111H141.191V99.5918H137.087V98.2031H146.983V99.5918ZM148.741 101.807L147.818 101.174C148.363 100.412 148.645 99.6094 148.662 98.7656V97.5H150.271V98.6426C150.265 99.2285 150.118 99.8145 149.831 100.4C149.55 100.98 149.187 101.449 148.741 101.807ZM91.665 126.823H88.6592V132H86.9629V119.203H91.1992C92.6406 119.203 93.748 119.531 94.5215 120.188C95.3008 120.844 95.6904 121.799 95.6904 123.053C95.6904 123.85 95.4736 124.544 95.04 125.136C94.6123 125.728 94.0146 126.17 93.2471 126.463L96.2529 131.895V132H94.4424L91.665 126.823ZM88.6592 125.443H91.252C92.0898 125.443 92.7549 125.227 93.2471 124.793C93.7451 124.359 93.9941 123.779 93.9941 123.053C93.9941 122.262 93.7568 121.655 93.2822 121.233C92.8135 120.812 92.1338 120.598 91.2432 120.592H88.6592V125.443ZM101.755 132.176C100.466 132.176 99.417 131.754 98.6084 130.91C97.7998 130.061 97.3955 128.927 97.3955 127.509V127.21C97.3955 126.267 97.5742 125.426 97.9316 124.688C98.2949 123.943 98.7988 123.363 99.4434 122.947C100.094 122.525 100.797 122.314 101.553 122.314C102.789 122.314 103.75 122.722 104.436 123.536C105.121 124.351 105.464 125.517 105.464 127.034V127.711H99.0215C99.0449 128.648 99.3174 129.407 99.8389 129.987C100.366 130.562 101.034 130.849 101.843 130.849C102.417 130.849 102.903 130.731 103.302 130.497C103.7 130.263 104.049 129.952 104.348 129.565L105.341 130.339C104.544 131.563 103.349 132.176 101.755 132.176ZM101.553 123.65C100.896 123.65 100.346 123.891 99.9004 124.371C99.4551 124.846 99.1797 125.514 99.0742 126.375H103.838V126.252C103.791 125.426 103.568 124.787 103.17 124.336C102.771 123.879 102.232 123.65 101.553 123.65ZM106.958 127.166C106.958 125.672 107.301 124.491 107.986 123.624C108.672 122.751 109.592 122.314 110.746 122.314C111.871 122.314 112.759 122.692 113.409 123.448L113.479 122.49H114.974V135.656H113.348V131.121C112.691 131.824 111.818 132.176 110.729 132.176C109.58 132.176 108.663 131.73 107.978 130.84C107.298 129.943 106.958 128.757 106.958 127.28V127.166ZM108.584 127.351C108.584 128.44 108.812 129.296 109.27 129.917C109.732 130.538 110.354 130.849 111.133 130.849C112.1 130.849 112.838 130.421 113.348 129.565V124.907C112.832 124.069 112.1 123.65 111.15 123.65C110.365 123.65 109.741 123.964 109.278 124.591C108.815 125.212 108.584 126.132 108.584 127.351ZM123.455 131.06C122.822 131.804 121.894 132.176 120.669 132.176C119.655 132.176 118.882 131.883 118.349 131.297C117.821 130.705 117.555 129.832 117.549 128.678V122.49H119.175V128.634C119.175 130.075 119.761 130.796 120.933 130.796C122.175 130.796 123.001 130.333 123.411 129.407V122.49H125.037V132H123.49L123.455 131.06ZM131.462 132.176C130.173 132.176 129.124 131.754 128.315 130.91C127.507 130.061 127.103 128.927 127.103 127.509V127.21C127.103 126.267 127.281 125.426 127.639 124.688C128.002 123.943 128.506 123.363 129.15 122.947C129.801 122.525 130.504 122.314 131.26 122.314C132.496 122.314 133.457 122.722 134.143 123.536C134.828 124.351 135.171 125.517 135.171 127.034V127.711H128.729C128.752 128.648 129.024 129.407 129.546 129.987C130.073 130.562 130.741 130.849 131.55 130.849C132.124 130.849 132.61 130.731 133.009 130.497C133.407 130.263 133.756 129.952 134.055 129.565L135.048 130.339C134.251 131.563 133.056 132.176 131.462 132.176ZM131.26 123.65C130.604 123.65 130.053 123.891 129.607 124.371C129.162 124.846 128.887 125.514 128.781 126.375H133.545V126.252C133.498 125.426 133.275 124.787 132.877 124.336C132.479 123.879 131.939 123.65 131.26 123.65ZM142.598 129.478C142.598 129.038 142.431 128.698 142.097 128.458C141.769 128.212 141.191 128.001 140.365 127.825C139.545 127.649 138.892 127.438 138.405 127.192C137.925 126.946 137.567 126.653 137.333 126.313C137.104 125.974 136.99 125.569 136.99 125.101C136.99 124.321 137.318 123.662 137.975 123.123C138.637 122.584 139.48 122.314 140.506 122.314C141.584 122.314 142.457 122.593 143.125 123.149C143.799 123.706 144.136 124.418 144.136 125.285H142.501C142.501 124.84 142.311 124.456 141.93 124.134C141.555 123.812 141.08 123.65 140.506 123.65C139.914 123.65 139.451 123.779 139.117 124.037C138.783 124.295 138.616 124.632 138.616 125.048C138.616 125.44 138.771 125.736 139.082 125.936C139.393 126.135 139.952 126.325 140.761 126.507C141.575 126.688 142.234 126.905 142.738 127.157C143.242 127.409 143.614 127.714 143.854 128.071C144.101 128.423 144.224 128.854 144.224 129.363C144.224 130.213 143.884 130.896 143.204 131.411C142.524 131.921 141.643 132.176 140.559 132.176C139.797 132.176 139.123 132.041 138.537 131.771C137.951 131.502 137.491 131.127 137.157 130.646C136.829 130.16 136.665 129.636 136.665 129.073H138.291C138.32 129.618 138.537 130.052 138.941 130.374C139.352 130.69 139.891 130.849 140.559 130.849C141.174 130.849 141.666 130.726 142.035 130.479C142.41 130.228 142.598 129.894 142.598 129.478ZM148.548 120.188V122.49H150.323V123.747H148.548V129.645C148.548 130.025 148.627 130.312 148.785 130.506C148.943 130.693 149.213 130.787 149.594 130.787C149.781 130.787 150.039 130.752 150.367 130.682V132C149.939 132.117 149.523 132.176 149.119 132.176C148.393 132.176 147.845 131.956 147.476 131.517C147.106 131.077 146.922 130.453 146.922 129.645V123.747H145.19V122.49H146.922V120.188H148.548Z" fill="#2D9CDB"/>
<path d="M189.13 122.823H186.124V128H184.428V115.203H188.664C190.105 115.203 191.213 115.531 191.986 116.188C192.766 116.844 193.155 117.799 193.155 119.053C193.155 119.85 192.938 120.544 192.505 121.136C192.077 121.728 191.479 122.17 190.712 122.463L193.718 127.895V128H191.907L189.13 122.823ZM186.124 121.443H188.717C189.555 121.443 190.22 121.227 190.712 120.793C191.21 120.359 191.459 119.779 191.459 119.053C191.459 118.262 191.222 117.655 190.747 117.233C190.278 116.812 189.599 116.598 188.708 116.592H186.124V121.443ZM199.22 128.176C197.931 128.176 196.882 127.754 196.073 126.91C195.265 126.061 194.86 124.927 194.86 123.509V123.21C194.86 122.267 195.039 121.426 195.396 120.688C195.76 119.943 196.264 119.363 196.908 118.947C197.559 118.525 198.262 118.314 199.018 118.314C200.254 118.314 201.215 118.722 201.9 119.536C202.586 120.351 202.929 121.517 202.929 123.034V123.711H196.486C196.51 124.648 196.782 125.407 197.304 125.987C197.831 126.562 198.499 126.849 199.308 126.849C199.882 126.849 200.368 126.731 200.767 126.497C201.165 126.263 201.514 125.952 201.812 125.565L202.806 126.339C202.009 127.563 200.813 128.176 199.22 128.176ZM199.018 119.65C198.361 119.65 197.811 119.891 197.365 120.371C196.92 120.846 196.645 121.514 196.539 122.375H201.303V122.252C201.256 121.426 201.033 120.787 200.635 120.336C200.236 119.879 199.697 119.65 199.018 119.65ZM210.355 125.478C210.355 125.038 210.188 124.698 209.854 124.458C209.526 124.212 208.949 124.001 208.123 123.825C207.303 123.649 206.649 123.438 206.163 123.192C205.683 122.946 205.325 122.653 205.091 122.313C204.862 121.974 204.748 121.569 204.748 121.101C204.748 120.321 205.076 119.662 205.732 119.123C206.395 118.584 207.238 118.314 208.264 118.314C209.342 118.314 210.215 118.593 210.883 119.149C211.557 119.706 211.894 120.418 211.894 121.285H210.259C210.259 120.84 210.068 120.456 209.688 120.134C209.312 119.812 208.838 119.65 208.264 119.65C207.672 119.65 207.209 119.779 206.875 120.037C206.541 120.295 206.374 120.632 206.374 121.048C206.374 121.44 206.529 121.736 206.84 121.936C207.15 122.135 207.71 122.325 208.519 122.507C209.333 122.688 209.992 122.905 210.496 123.157C211 123.409 211.372 123.714 211.612 124.071C211.858 124.423 211.981 124.854 211.981 125.363C211.981 126.213 211.642 126.896 210.962 127.411C210.282 127.921 209.4 128.176 208.316 128.176C207.555 128.176 206.881 128.041 206.295 127.771C205.709 127.502 205.249 127.127 204.915 126.646C204.587 126.16 204.423 125.636 204.423 125.073H206.049C206.078 125.618 206.295 126.052 206.699 126.374C207.109 126.69 207.648 126.849 208.316 126.849C208.932 126.849 209.424 126.726 209.793 126.479C210.168 126.228 210.355 125.894 210.355 125.478ZM222.133 123.351C222.133 124.798 221.802 125.964 221.14 126.849C220.478 127.733 219.581 128.176 218.45 128.176C217.296 128.176 216.388 127.81 215.726 127.077V131.656H214.1V118.49H215.585L215.664 119.545C216.326 118.725 217.246 118.314 218.424 118.314C219.566 118.314 220.469 118.745 221.131 119.606C221.799 120.468 222.133 121.666 222.133 123.201V123.351ZM220.507 123.166C220.507 122.094 220.278 121.247 219.821 120.626C219.364 120.005 218.737 119.694 217.94 119.694C216.956 119.694 216.218 120.131 215.726 121.004V125.548C216.212 126.415 216.956 126.849 217.958 126.849C218.737 126.849 219.355 126.541 219.812 125.926C220.275 125.305 220.507 124.385 220.507 123.166ZM223.776 123.157C223.776 122.226 223.958 121.388 224.321 120.644C224.69 119.899 225.2 119.325 225.851 118.921C226.507 118.517 227.254 118.314 228.092 118.314C229.387 118.314 230.433 118.763 231.229 119.659C232.032 120.556 232.434 121.748 232.434 123.236V123.351C232.434 124.276 232.255 125.108 231.897 125.847C231.546 126.579 231.039 127.15 230.377 127.561C229.721 127.971 228.965 128.176 228.109 128.176C226.82 128.176 225.774 127.728 224.972 126.831C224.175 125.935 223.776 124.748 223.776 123.271V123.157ZM225.411 123.351C225.411 124.405 225.654 125.252 226.141 125.891C226.633 126.529 227.289 126.849 228.109 126.849C228.936 126.849 229.592 126.526 230.078 125.882C230.564 125.231 230.808 124.323 230.808 123.157C230.808 122.114 230.559 121.271 230.061 120.626C229.568 119.976 228.912 119.65 228.092 119.65C227.289 119.65 226.642 119.97 226.149 120.608C225.657 121.247 225.411 122.161 225.411 123.351ZM236.011 118.49L236.063 119.686C236.79 118.771 237.739 118.314 238.911 118.314C240.921 118.314 241.935 119.448 241.952 121.716V128H240.326V121.707C240.32 121.021 240.162 120.515 239.852 120.187C239.547 119.858 239.069 119.694 238.419 119.694C237.892 119.694 237.429 119.835 237.03 120.116C236.632 120.397 236.321 120.767 236.099 121.224V128H234.473V118.49H236.011ZM249.941 125.478C249.941 125.038 249.774 124.698 249.44 124.458C249.112 124.212 248.535 124.001 247.709 123.825C246.889 123.649 246.235 123.438 245.749 123.192C245.269 122.946 244.911 122.653 244.677 122.313C244.448 121.974 244.334 121.569 244.334 121.101C244.334 120.321 244.662 119.662 245.318 119.123C245.98 118.584 246.824 118.314 247.85 118.314C248.928 118.314 249.801 118.593 250.469 119.149C251.143 119.706 251.479 120.418 251.479 121.285H249.845C249.845 120.84 249.654 120.456 249.273 120.134C248.898 119.812 248.424 119.65 247.85 119.65C247.258 119.65 246.795 119.779 246.461 120.037C246.127 120.295 245.96 120.632 245.96 121.048C245.96 121.44 246.115 121.736 246.426 121.936C246.736 122.135 247.296 122.325 248.104 122.507C248.919 122.688 249.578 122.905 250.082 123.157C250.586 123.409 250.958 123.714 251.198 124.071C251.444 124.423 251.567 124.854 251.567 125.363C251.567 126.213 251.228 126.896 250.548 127.411C249.868 127.921 248.986 128.176 247.902 128.176C247.141 128.176 246.467 128.041 245.881 127.771C245.295 127.502 244.835 127.127 244.501 126.646C244.173 126.16 244.009 125.636 244.009 125.073H245.635C245.664 125.618 245.881 126.052 246.285 126.374C246.695 126.69 247.234 126.849 247.902 126.849C248.518 126.849 249.01 126.726 249.379 126.479C249.754 126.228 249.941 125.894 249.941 125.478ZM257.632 128.176C256.343 128.176 255.294 127.754 254.485 126.91C253.677 126.061 253.272 124.927 253.272 123.509V123.21C253.272 122.267 253.451 121.426 253.809 120.688C254.172 119.943 254.676 119.363 255.32 118.947C255.971 118.525 256.674 118.314 257.43 118.314C258.666 118.314 259.627 118.722 260.312 119.536C260.998 120.351 261.341 121.517 261.341 123.034V123.711H254.898C254.922 124.648 255.194 125.407 255.716 125.987C256.243 126.562 256.911 126.849 257.72 126.849C258.294 126.849 258.78 126.731 259.179 126.497C259.577 126.263 259.926 125.952 260.225 125.565L261.218 126.339C260.421 127.563 259.226 128.176 257.632 128.176ZM257.43 119.65C256.773 119.65 256.223 119.891 255.777 120.371C255.332 120.846 255.057 121.514 254.951 122.375H259.715V122.252C259.668 121.426 259.445 120.787 259.047 120.336C258.648 119.879 258.109 119.65 257.43 119.65ZM231.203 144.939C231.045 146.293 230.544 147.339 229.7 148.077C228.862 148.81 227.746 149.176 226.352 149.176C224.84 149.176 223.627 148.634 222.713 147.55C221.805 146.466 221.351 145.016 221.351 143.199V141.969C221.351 140.779 221.562 139.733 221.983 138.831C222.411 137.929 223.015 137.237 223.794 136.757C224.573 136.271 225.476 136.027 226.501 136.027C227.86 136.027 228.95 136.408 229.771 137.17C230.591 137.926 231.068 138.975 231.203 140.316H229.507C229.36 139.297 229.041 138.559 228.549 138.102C228.062 137.645 227.38 137.416 226.501 137.416C225.423 137.416 224.576 137.814 223.961 138.611C223.352 139.408 223.047 140.542 223.047 142.013V143.252C223.047 144.641 223.337 145.745 223.917 146.565C224.497 147.386 225.309 147.796 226.352 147.796C227.289 147.796 228.007 147.585 228.505 147.163C229.009 146.735 229.343 145.994 229.507 144.939H231.203ZM232.829 144.157C232.829 143.226 233.011 142.388 233.374 141.644C233.743 140.899 234.253 140.325 234.903 139.921C235.56 139.517 236.307 139.314 237.145 139.314C238.439 139.314 239.485 139.763 240.282 140.659C241.085 141.556 241.486 142.748 241.486 144.236V144.351C241.486 145.276 241.308 146.108 240.95 146.847C240.599 147.579 240.092 148.15 239.43 148.561C238.773 148.971 238.018 149.176 237.162 149.176C235.873 149.176 234.827 148.728 234.024 147.831C233.228 146.935 232.829 145.748 232.829 144.271V144.157ZM234.464 144.351C234.464 145.405 234.707 146.252 235.193 146.891C235.686 147.529 236.342 147.849 237.162 147.849C237.988 147.849 238.645 147.526 239.131 146.882C239.617 146.231 239.86 145.323 239.86 144.157C239.86 143.114 239.611 142.271 239.113 141.626C238.621 140.976 237.965 140.65 237.145 140.65C236.342 140.65 235.694 140.97 235.202 141.608C234.71 142.247 234.464 143.161 234.464 144.351ZM243.13 144.166C243.13 142.707 243.476 141.535 244.167 140.65C244.858 139.76 245.764 139.314 246.883 139.314C247.996 139.314 248.878 139.695 249.528 140.457V135.5H251.154V149H249.66L249.581 147.98C248.931 148.777 248.025 149.176 246.865 149.176C245.764 149.176 244.864 148.725 244.167 147.822C243.476 146.92 243.13 145.742 243.13 144.289V144.166ZM244.756 144.351C244.756 145.429 244.979 146.272 245.424 146.882C245.869 147.491 246.484 147.796 247.27 147.796C248.301 147.796 249.054 147.333 249.528 146.407V142.039C249.042 141.143 248.295 140.694 247.287 140.694C246.49 140.694 245.869 141.002 245.424 141.617C244.979 142.232 244.756 143.144 244.756 144.351ZM257.632 149.176C256.343 149.176 255.294 148.754 254.485 147.91C253.677 147.061 253.272 145.927 253.272 144.509V144.21C253.272 143.267 253.451 142.426 253.809 141.688C254.172 140.943 254.676 140.363 255.32 139.947C255.971 139.525 256.674 139.314 257.43 139.314C258.666 139.314 259.627 139.722 260.312 140.536C260.998 141.351 261.341 142.517 261.341 144.034V144.711H254.898C254.922 145.648 255.194 146.407 255.716 146.987C256.243 147.562 256.911 147.849 257.72 147.849C258.294 147.849 258.78 147.731 259.179 147.497C259.577 147.263 259.926 146.952 260.225 146.565L261.218 147.339C260.421 148.563 259.226 149.176 257.632 149.176ZM257.43 140.65C256.773 140.65 256.223 140.891 255.777 141.371C255.332 141.846 255.057 142.514 254.951 143.375H259.715V143.252C259.668 142.426 259.445 141.787 259.047 141.336C258.648 140.879 258.109 140.65 257.43 140.65Z" fill="#27AE60"/>
<path d="M338.179 118.823H335.173V124H333.477V111.203H337.713C339.154 111.203 340.262 111.531 341.035 112.188C341.814 112.844 342.204 113.799 342.204 115.053C342.204 115.85 341.987 116.544 341.554 117.136C341.126 117.728 340.528 118.17 339.761 118.463L342.767 123.895V124H340.956L338.179 118.823ZM335.173 117.443H337.766C338.604 117.443 339.269 117.227 339.761 116.793C340.259 116.359 340.508 115.779 340.508 115.053C340.508 114.262 340.271 113.655 339.796 113.233C339.327 112.812 338.647 112.598 337.757 112.592H335.173V117.443ZM348.269 124.176C346.979 124.176 345.931 123.754 345.122 122.91C344.313 122.061 343.909 120.927 343.909 119.509V119.21C343.909 118.267 344.088 117.426 344.445 116.688C344.809 115.943 345.312 115.363 345.957 114.947C346.607 114.525 347.311 114.314 348.066 114.314C349.303 114.314 350.264 114.722 350.949 115.536C351.635 116.351 351.978 117.517 351.978 119.034V119.711H345.535C345.559 120.648 345.831 121.407 346.353 121.987C346.88 122.562 347.548 122.849 348.356 122.849C348.931 122.849 349.417 122.731 349.815 122.497C350.214 122.263 350.562 121.952 350.861 121.565L351.854 122.339C351.058 123.563 349.862 124.176 348.269 124.176ZM348.066 115.65C347.41 115.65 346.859 115.891 346.414 116.371C345.969 116.846 345.693 117.514 345.588 118.375H350.352V118.252C350.305 117.426 350.082 116.787 349.684 116.336C349.285 115.879 348.746 115.65 348.066 115.65ZM359.404 121.478C359.404 121.038 359.237 120.698 358.903 120.458C358.575 120.212 357.998 120.001 357.172 119.825C356.352 119.649 355.698 119.438 355.212 119.192C354.731 118.946 354.374 118.653 354.14 118.313C353.911 117.974 353.797 117.569 353.797 117.101C353.797 116.321 354.125 115.662 354.781 115.123C355.443 114.584 356.287 114.314 357.312 114.314C358.391 114.314 359.264 114.593 359.932 115.149C360.605 115.706 360.942 116.418 360.942 117.285H359.308C359.308 116.84 359.117 116.456 358.736 116.134C358.361 115.812 357.887 115.65 357.312 115.65C356.721 115.65 356.258 115.779 355.924 116.037C355.59 116.295 355.423 116.632 355.423 117.048C355.423 117.44 355.578 117.736 355.889 117.936C356.199 118.135 356.759 118.325 357.567 118.507C358.382 118.688 359.041 118.905 359.545 119.157C360.049 119.409 360.421 119.714 360.661 120.071C360.907 120.423 361.03 120.854 361.03 121.363C361.03 122.213 360.69 122.896 360.011 123.411C359.331 123.921 358.449 124.176 357.365 124.176C356.604 124.176 355.93 124.041 355.344 123.771C354.758 123.502 354.298 123.127 353.964 122.646C353.636 122.16 353.472 121.636 353.472 121.073H355.098C355.127 121.618 355.344 122.052 355.748 122.374C356.158 122.69 356.697 122.849 357.365 122.849C357.98 122.849 358.473 122.726 358.842 122.479C359.217 122.228 359.404 121.894 359.404 121.478ZM371.182 119.351C371.182 120.798 370.851 121.964 370.188 122.849C369.526 123.733 368.63 124.176 367.499 124.176C366.345 124.176 365.437 123.81 364.774 123.077V127.656H363.148V114.49H364.634L364.713 115.545C365.375 114.725 366.295 114.314 367.473 114.314C368.615 114.314 369.518 114.745 370.18 115.606C370.848 116.468 371.182 117.666 371.182 119.201V119.351ZM369.556 119.166C369.556 118.094 369.327 117.247 368.87 116.626C368.413 116.005 367.786 115.694 366.989 115.694C366.005 115.694 365.267 116.131 364.774 117.004V121.548C365.261 122.415 366.005 122.849 367.007 122.849C367.786 122.849 368.404 122.541 368.861 121.926C369.324 121.305 369.556 120.385 369.556 119.166ZM372.825 119.157C372.825 118.226 373.007 117.388 373.37 116.644C373.739 115.899 374.249 115.325 374.899 114.921C375.556 114.517 376.303 114.314 377.141 114.314C378.436 114.314 379.481 114.763 380.278 115.659C381.081 116.556 381.482 117.748 381.482 119.236V119.351C381.482 120.276 381.304 121.108 380.946 121.847C380.595 122.579 380.088 123.15 379.426 123.561C378.77 123.971 378.014 124.176 377.158 124.176C375.869 124.176 374.823 123.728 374.021 122.831C373.224 121.935 372.825 120.748 372.825 119.271V119.157ZM374.46 119.351C374.46 120.405 374.703 121.252 375.189 121.891C375.682 122.529 376.338 122.849 377.158 122.849C377.984 122.849 378.641 122.526 379.127 121.882C379.613 121.231 379.856 120.323 379.856 119.157C379.856 118.114 379.607 117.271 379.109 116.626C378.617 115.976 377.961 115.65 377.141 115.65C376.338 115.65 375.69 115.97 375.198 116.608C374.706 117.247 374.46 118.161 374.46 119.351ZM385.06 114.49L385.112 115.686C385.839 114.771 386.788 114.314 387.96 114.314C389.97 114.314 390.983 115.448 391.001 117.716V124H389.375V117.707C389.369 117.021 389.211 116.515 388.9 116.187C388.596 115.858 388.118 115.694 387.468 115.694C386.94 115.694 386.478 115.835 386.079 116.116C385.681 116.397 385.37 116.767 385.147 117.224V124H383.521V114.49H385.06ZM398.99 121.478C398.99 121.038 398.823 120.698 398.489 120.458C398.161 120.212 397.584 120.001 396.758 119.825C395.938 119.649 395.284 119.438 394.798 119.192C394.317 118.946 393.96 118.653 393.726 118.313C393.497 117.974 393.383 117.569 393.383 117.101C393.383 116.321 393.711 115.662 394.367 115.123C395.029 114.584 395.873 114.314 396.898 114.314C397.977 114.314 398.85 114.593 399.518 115.149C400.191 115.706 400.528 116.418 400.528 117.285H398.894C398.894 116.84 398.703 116.456 398.322 116.134C397.947 115.812 397.473 115.65 396.898 115.65C396.307 115.65 395.844 115.779 395.51 116.037C395.176 116.295 395.009 116.632 395.009 117.048C395.009 117.44 395.164 117.736 395.475 117.936C395.785 118.135 396.345 118.325 397.153 118.507C397.968 118.688 398.627 118.905 399.131 119.157C399.635 119.409 400.007 119.714 400.247 120.071C400.493 120.423 400.616 120.854 400.616 121.363C400.616 122.213 400.276 122.896 399.597 123.411C398.917 123.921 398.035 124.176 396.951 124.176C396.189 124.176 395.516 124.041 394.93 123.771C394.344 123.502 393.884 123.127 393.55 122.646C393.222 122.16 393.058 121.636 393.058 121.073H394.684C394.713 121.618 394.93 122.052 395.334 122.374C395.744 122.69 396.283 122.849 396.951 122.849C397.566 122.849 398.059 122.726 398.428 122.479C398.803 122.228 398.99 121.894 398.99 121.478ZM406.681 124.176C405.392 124.176 404.343 123.754 403.534 122.91C402.726 122.061 402.321 120.927 402.321 119.509V119.21C402.321 118.267 402.5 117.426 402.857 116.688C403.221 115.943 403.725 115.363 404.369 114.947C405.02 114.525 405.723 114.314 406.479 114.314C407.715 114.314 408.676 114.722 409.361 115.536C410.047 116.351 410.39 117.517 410.39 119.034V119.711H403.947C403.971 120.648 404.243 121.407 404.765 121.987C405.292 122.562 405.96 122.849 406.769 122.849C407.343 122.849 407.829 122.731 408.228 122.497C408.626 122.263 408.975 121.952 409.273 121.565L410.267 122.339C409.47 123.563 408.274 124.176 406.681 124.176ZM406.479 115.65C405.822 115.65 405.271 115.891 404.826 116.371C404.381 116.846 404.105 117.514 404 118.375H408.764V118.252C408.717 117.426 408.494 116.787 408.096 116.336C407.697 115.879 407.158 115.65 406.479 115.65ZM333.485 145V132.203H337.098C338.211 132.203 339.195 132.449 340.051 132.941C340.906 133.434 341.565 134.134 342.028 135.042C342.497 135.95 342.734 136.993 342.74 138.171V138.988C342.74 140.195 342.506 141.253 342.037 142.161C341.574 143.069 340.909 143.767 340.042 144.253C339.181 144.739 338.176 144.988 337.027 145H333.485ZM335.173 133.592V143.62H336.948C338.249 143.62 339.26 143.216 339.98 142.407C340.707 141.599 341.07 140.447 341.07 138.953V138.206C341.07 136.753 340.728 135.625 340.042 134.822C339.362 134.014 338.396 133.604 337.142 133.592H335.173ZM350.914 145C350.82 144.812 350.744 144.479 350.686 143.998C349.93 144.783 349.027 145.176 347.979 145.176C347.041 145.176 346.271 144.912 345.667 144.385C345.069 143.852 344.771 143.178 344.771 142.363C344.771 141.373 345.146 140.605 345.896 140.061C346.651 139.51 347.712 139.234 349.077 139.234H350.659V138.487C350.659 137.919 350.489 137.468 350.149 137.134C349.81 136.794 349.309 136.624 348.646 136.624C348.066 136.624 347.58 136.771 347.188 137.063C346.795 137.356 346.599 137.711 346.599 138.127H344.964C344.964 137.652 345.131 137.195 345.465 136.756C345.805 136.311 346.262 135.959 346.836 135.701C347.416 135.443 348.052 135.314 348.743 135.314C349.839 135.314 350.697 135.59 351.318 136.141C351.939 136.686 352.262 137.438 352.285 138.399V142.776C352.285 143.649 352.396 144.344 352.619 144.859V145H350.914ZM348.216 143.761C348.726 143.761 349.209 143.629 349.666 143.365C350.123 143.102 350.454 142.759 350.659 142.337V140.386H349.385C347.393 140.386 346.396 140.969 346.396 142.135C346.396 142.645 346.566 143.043 346.906 143.33C347.246 143.617 347.683 143.761 348.216 143.761ZM357.04 133.188V135.49H358.815V136.747H357.04V142.645C357.04 143.025 357.119 143.312 357.277 143.506C357.436 143.693 357.705 143.787 358.086 143.787C358.273 143.787 358.531 143.752 358.859 143.682V145C358.432 145.117 358.016 145.176 357.611 145.176C356.885 145.176 356.337 144.956 355.968 144.517C355.599 144.077 355.414 143.453 355.414 142.645V136.747H353.683V135.49H355.414V133.188H357.04ZM366.594 145C366.5 144.812 366.424 144.479 366.365 143.998C365.609 144.783 364.707 145.176 363.658 145.176C362.721 145.176 361.95 144.912 361.347 144.385C360.749 143.852 360.45 143.178 360.45 142.363C360.45 141.373 360.825 140.605 361.575 140.061C362.331 139.51 363.392 139.234 364.757 139.234H366.339V138.487C366.339 137.919 366.169 137.468 365.829 137.134C365.489 136.794 364.988 136.624 364.326 136.624C363.746 136.624 363.26 136.771 362.867 137.063C362.475 137.356 362.278 137.711 362.278 138.127H360.644C360.644 137.652 360.811 137.195 361.145 136.756C361.484 136.311 361.941 135.959 362.516 135.701C363.096 135.443 363.731 135.314 364.423 135.314C365.519 135.314 366.377 135.59 366.998 136.141C367.619 136.686 367.941 137.438 367.965 138.399V142.776C367.965 143.649 368.076 144.344 368.299 144.859V145H366.594ZM363.896 143.761C364.405 143.761 364.889 143.629 365.346 143.365C365.803 143.102 366.134 142.759 366.339 142.337V140.386H365.064C363.072 140.386 362.076 140.969 362.076 142.135C362.076 142.645 362.246 143.043 362.586 143.33C362.926 143.617 363.362 143.761 363.896 143.761Z" fill="#27AE60"/>
<path d="M272.939 170.061C273.525 170.646 274.475 170.646 275.061 170.061L284.607 160.515C285.192 159.929 285.192 158.979 284.607 158.393C284.021 157.808 283.071 157.808 282.485 158.393L274 166.879L265.515 158.393C264.929 157.808 263.979 157.808 263.393 158.393C262.808 158.979 262.808 159.929 263.393 160.515L272.939 170.061ZM272.5 105.654L272.5 169L275.5 169L275.5 105.654L272.5 105.654Z" fill="#27AE60"/>
<path d="M318.939 170.061C319.525 170.646 320.475 170.646 321.061 170.061L330.607 160.515C331.192 159.929 331.192 158.979 330.607 158.393C330.021 157.808 329.071 157.808 328.485 158.393L320 166.879L311.515 158.393C310.929 157.808 309.979 157.808 309.393 158.393C308.808 158.979 308.808 159.929 309.393 160.515L318.939 170.061ZM318.5 105.654L318.5 169L321.5 169L321.5 105.654L318.5 105.654Z" fill="#27AE60"/>
<line x1="296.5" y1="61" x2="296.5" y2="105.654" stroke="#27AE60" stroke-width="3"/>
<line x1="273" y1="107.269" x2="321" y2="107.269" stroke="#27AE60" stroke-width="3"/>
</svg>
